G04 #@! TF.FileFunction,Legend,Top*
%FSLAX46Y46*%
G04 Gerber Fmt 4.6, Leading zero omitted, Abs format (unit mm)*
G04 Created by KiCad (PCBNEW (2014-12-10 BZR 5319)-product) date 2015年02月02日 11時42分02秒*
%MOMM*%
G01*
G04 APERTURE LIST*
%ADD10C,0.100000*%
%ADD11C,0.200000*%
%ADD12C,0.150000*%
G04 APERTURE END LIST*
D10*
D11*
X7969785Y-26968905D02*
X8426928Y-26968905D01*
X8198357Y-27768905D02*
X8198357Y-26968905D01*
X8693595Y-27768905D02*
X8693595Y-26968905D01*
X8960262Y-27540333D01*
X9226929Y-26968905D01*
X9226929Y-27768905D01*
X9607881Y-27768905D02*
X9607881Y-26968905D01*
X10065024Y-27768905D02*
X9722167Y-27311762D01*
X10065024Y-26968905D02*
X9607881Y-27426048D01*
X11017405Y-26968905D02*
X11017405Y-27616524D01*
X11055500Y-27692714D01*
X11093596Y-27730810D01*
X11169786Y-27768905D01*
X11322167Y-27768905D01*
X11398358Y-27730810D01*
X11436453Y-27692714D01*
X11474548Y-27616524D01*
X11474548Y-26968905D01*
X11817405Y-27730810D02*
X11931691Y-27768905D01*
X12122167Y-27768905D01*
X12198357Y-27730810D01*
X12236453Y-27692714D01*
X12274548Y-27616524D01*
X12274548Y-27540333D01*
X12236453Y-27464143D01*
X12198357Y-27426048D01*
X12122167Y-27387952D01*
X11969786Y-27349857D01*
X11893595Y-27311762D01*
X11855500Y-27273667D01*
X11817405Y-27197476D01*
X11817405Y-27121286D01*
X11855500Y-27045095D01*
X11893595Y-27007000D01*
X11969786Y-26968905D01*
X12160262Y-26968905D01*
X12274548Y-27007000D01*
X12884072Y-27349857D02*
X12998358Y-27387952D01*
X13036453Y-27426048D01*
X13074548Y-27502238D01*
X13074548Y-27616524D01*
X13036453Y-27692714D01*
X12998358Y-27730810D01*
X12922167Y-27768905D01*
X12617405Y-27768905D01*
X12617405Y-26968905D01*
X12884072Y-26968905D01*
X12960262Y-27007000D01*
X12998358Y-27045095D01*
X13036453Y-27121286D01*
X13036453Y-27197476D01*
X12998358Y-27273667D01*
X12960262Y-27311762D01*
X12884072Y-27349857D01*
X12617405Y-27349857D01*
X13417405Y-27464143D02*
X14026929Y-27464143D01*
X14407881Y-26968905D02*
X14407881Y-27616524D01*
X14445976Y-27692714D01*
X14484072Y-27730810D01*
X14560262Y-27768905D01*
X14712643Y-27768905D01*
X14788834Y-27730810D01*
X14826929Y-27692714D01*
X14865024Y-27616524D01*
X14865024Y-26968905D01*
X15207881Y-27730810D02*
X15322167Y-27768905D01*
X15512643Y-27768905D01*
X15588833Y-27730810D01*
X15626929Y-27692714D01*
X15665024Y-27616524D01*
X15665024Y-27540333D01*
X15626929Y-27464143D01*
X15588833Y-27426048D01*
X15512643Y-27387952D01*
X15360262Y-27349857D01*
X15284071Y-27311762D01*
X15245976Y-27273667D01*
X15207881Y-27197476D01*
X15207881Y-27121286D01*
X15245976Y-27045095D01*
X15284071Y-27007000D01*
X15360262Y-26968905D01*
X15550738Y-26968905D01*
X15665024Y-27007000D01*
X16274548Y-27349857D02*
X16388834Y-27387952D01*
X16426929Y-27426048D01*
X16465024Y-27502238D01*
X16465024Y-27616524D01*
X16426929Y-27692714D01*
X16388834Y-27730810D01*
X16312643Y-27768905D01*
X16007881Y-27768905D01*
X16007881Y-26968905D01*
X16274548Y-26968905D01*
X16350738Y-27007000D01*
X16388834Y-27045095D01*
X16426929Y-27121286D01*
X16426929Y-27197476D01*
X16388834Y-27273667D01*
X16350738Y-27311762D01*
X16274548Y-27349857D01*
X16007881Y-27349857D01*
X11322167Y-29088905D02*
X11055500Y-28707952D01*
X10865024Y-29088905D02*
X10865024Y-28288905D01*
X11169786Y-28288905D01*
X11245977Y-28327000D01*
X11284072Y-28365095D01*
X11322167Y-28441286D01*
X11322167Y-28555571D01*
X11284072Y-28631762D01*
X11245977Y-28669857D01*
X11169786Y-28707952D01*
X10865024Y-28707952D01*
X11969786Y-29050810D02*
X11893596Y-29088905D01*
X11741215Y-29088905D01*
X11665024Y-29050810D01*
X11626929Y-28974619D01*
X11626929Y-28669857D01*
X11665024Y-28593667D01*
X11741215Y-28555571D01*
X11893596Y-28555571D01*
X11969786Y-28593667D01*
X12007881Y-28669857D01*
X12007881Y-28746048D01*
X11626929Y-28822238D01*
X12274548Y-28555571D02*
X12465024Y-29088905D01*
X12655500Y-28555571D01*
X12960262Y-29012714D02*
X12998357Y-29050810D01*
X12960262Y-29088905D01*
X12922167Y-29050810D01*
X12960262Y-29012714D01*
X12960262Y-29088905D01*
X13303119Y-28860333D02*
X13684071Y-28860333D01*
X13226928Y-29088905D02*
X13493595Y-28288905D01*
X13760262Y-29088905D01*
D12*
X7712000Y-27209000D02*
X7712000Y-27909000D01*
X6512000Y-27909000D02*
X6512000Y-27209000D01*
X20075000Y-13827000D02*
X20075000Y-11827000D01*
X18025000Y-11827000D02*
X18025000Y-13827000D01*
X7147000Y-12923000D02*
X7147000Y-12223000D01*
X8347000Y-12223000D02*
X8347000Y-12923000D01*
X3460000Y-17942000D02*
X4160000Y-17942000D01*
X4160000Y-19142000D02*
X3460000Y-19142000D01*
X4160000Y-12284000D02*
X3460000Y-12284000D01*
X3460000Y-11084000D02*
X4160000Y-11084000D01*
X3460000Y-25435000D02*
X4160000Y-25435000D01*
X4160000Y-26635000D02*
X3460000Y-26635000D01*
X4160000Y-22317000D02*
X3460000Y-22317000D01*
X3460000Y-21117000D02*
X4160000Y-21117000D01*
D11*
X18980000Y-29751000D02*
X16580000Y-29751000D01*
X16580000Y-29651000D02*
X18980000Y-29651000D01*
X18980000Y-29551000D02*
X16580000Y-29551000D01*
X18980000Y-25851000D02*
X18980000Y-24651000D01*
X18980000Y-24651000D02*
X16580000Y-24651000D01*
X16580000Y-24651000D02*
X16580000Y-25851000D01*
X18980000Y-29451000D02*
X16580000Y-29451000D01*
X18980000Y-28251000D02*
X18980000Y-29851000D01*
X18980000Y-29851000D02*
X16580000Y-29851000D01*
X16580000Y-29851000D02*
X16580000Y-28251000D01*
D12*
X20868000Y-26678000D02*
X20868000Y-27678000D01*
X19518000Y-27678000D02*
X19518000Y-26678000D01*
X9739000Y-13073000D02*
X9739000Y-12073000D01*
X11089000Y-12073000D02*
X11089000Y-13073000D01*
X11771000Y-13073000D02*
X11771000Y-12073000D01*
X13121000Y-12073000D02*
X13121000Y-13073000D01*
X14438000Y-13073000D02*
X14438000Y-12073000D01*
X15788000Y-12073000D02*
X15788000Y-13073000D01*
D11*
X20673000Y-17370000D02*
X20673000Y-23270000D01*
X20673000Y-23270000D02*
X17173000Y-23270000D01*
X17173000Y-23270000D02*
X17173000Y-17370000D01*
X17173000Y-17370000D02*
X20573000Y-17370000D01*
X20573000Y-17370000D02*
X20673000Y-17370000D01*
D12*
X8805000Y-22818000D02*
X9315000Y-22818000D01*
X8805000Y-17568000D02*
X9315000Y-17568000D01*
X14055000Y-17568000D02*
X13545000Y-17568000D01*
X14055000Y-22818000D02*
X13545000Y-22818000D01*
X8805000Y-22818000D02*
X8805000Y-22308000D01*
X14055000Y-22818000D02*
X14055000Y-22308000D01*
X14055000Y-17568000D02*
X14055000Y-18078000D01*
X8805000Y-17568000D02*
X8805000Y-18078000D01*
X9315000Y-22818000D02*
X9315000Y-24043000D01*
X1831340Y-22555200D02*
X1262380Y-22555200D01*
X1262380Y-22555200D02*
X1262380Y-22966680D01*
X2210000Y-13813000D02*
X5410000Y-13813000D01*
X5410000Y-13813000D02*
X5410000Y-16413000D01*
X5410000Y-16413000D02*
X2210000Y-16413000D01*
X2210000Y-16413000D02*
X2210000Y-13813000D01*
X4860000Y-8693000D02*
X4860000Y-4783000D01*
X18000000Y-4783000D02*
X18000000Y-8636000D01*
X4860000Y-8693000D02*
X18000000Y-8693000D01*
X6432643Y-25431714D02*
X6470738Y-25469810D01*
X6432643Y-25507905D01*
X6394548Y-25469810D01*
X6432643Y-25431714D01*
X6432643Y-25507905D01*
X7232643Y-25507905D02*
X6775500Y-25507905D01*
X7004071Y-25507905D02*
X7004071Y-24707905D01*
X6927881Y-24822190D01*
X6851690Y-24898381D01*
X6775500Y-24936476D01*
X7918357Y-24974571D02*
X7918357Y-25507905D01*
X7575500Y-24974571D02*
X7575500Y-25393619D01*
X7613595Y-25469810D01*
X7689786Y-25507905D01*
X7804072Y-25507905D01*
X7880262Y-25469810D01*
X7918357Y-25431714D01*
X16973571Y-13607953D02*
X17506905Y-13607953D01*
X16668810Y-13798429D02*
X17240238Y-13988905D01*
X17240238Y-13493667D01*
X17430714Y-13188905D02*
X17468810Y-13150810D01*
X17506905Y-13188905D01*
X17468810Y-13227000D01*
X17430714Y-13188905D01*
X17506905Y-13188905D01*
X16706905Y-12884143D02*
X16706905Y-12350810D01*
X17506905Y-12693667D01*
X16973571Y-11703191D02*
X17506905Y-11703191D01*
X16973571Y-12046048D02*
X17392619Y-12046048D01*
X17468810Y-12007953D01*
X17506905Y-11931762D01*
X17506905Y-11817476D01*
X17468810Y-11741286D01*
X17430714Y-11703191D01*
X7004143Y-10064714D02*
X7042238Y-10102810D01*
X7004143Y-10140905D01*
X6966048Y-10102810D01*
X7004143Y-10064714D01*
X7004143Y-10140905D01*
X7804143Y-10140905D02*
X7347000Y-10140905D01*
X7575571Y-10140905D02*
X7575571Y-9340905D01*
X7499381Y-9455190D01*
X7423190Y-9531381D01*
X7347000Y-9569476D01*
X8489857Y-9607571D02*
X8489857Y-10140905D01*
X8147000Y-9607571D02*
X8147000Y-10026619D01*
X8185095Y-10102810D01*
X8261286Y-10140905D01*
X8375572Y-10140905D01*
X8451762Y-10102810D01*
X8489857Y-10064714D01*
X1695405Y-19056286D02*
X1695405Y-19513429D01*
X1695405Y-19284858D02*
X895405Y-19284858D01*
X1009690Y-19361048D01*
X1085881Y-19437239D01*
X1123976Y-19513429D01*
X1238262Y-18599143D02*
X1200167Y-18675334D01*
X1162071Y-18713429D01*
X1085881Y-18751524D01*
X1047786Y-18751524D01*
X971595Y-18713429D01*
X933500Y-18675334D01*
X895405Y-18599143D01*
X895405Y-18446762D01*
X933500Y-18370572D01*
X971595Y-18332476D01*
X1047786Y-18294381D01*
X1085881Y-18294381D01*
X1162071Y-18332476D01*
X1200167Y-18370572D01*
X1238262Y-18446762D01*
X1238262Y-18599143D01*
X1276357Y-18675334D01*
X1314452Y-18713429D01*
X1390643Y-18751524D01*
X1543024Y-18751524D01*
X1619214Y-18713429D01*
X1657310Y-18675334D01*
X1695405Y-18599143D01*
X1695405Y-18446762D01*
X1657310Y-18370572D01*
X1619214Y-18332476D01*
X1543024Y-18294381D01*
X1390643Y-18294381D01*
X1314452Y-18332476D01*
X1276357Y-18370572D01*
X1238262Y-18446762D01*
X1162071Y-17951524D02*
X1962071Y-17951524D01*
X1200167Y-17951524D02*
X1162071Y-17875333D01*
X1162071Y-17722952D01*
X1200167Y-17646762D01*
X1238262Y-17608667D01*
X1314452Y-17570571D01*
X1543024Y-17570571D01*
X1619214Y-17608667D01*
X1657310Y-17646762D01*
X1695405Y-17722952D01*
X1695405Y-17875333D01*
X1657310Y-17951524D01*
X1695405Y-12198286D02*
X1695405Y-12655429D01*
X1695405Y-12426858D02*
X895405Y-12426858D01*
X1009690Y-12503048D01*
X1085881Y-12579239D01*
X1123976Y-12655429D01*
X1238262Y-11741143D02*
X1200167Y-11817334D01*
X1162071Y-11855429D01*
X1085881Y-11893524D01*
X1047786Y-11893524D01*
X971595Y-11855429D01*
X933500Y-11817334D01*
X895405Y-11741143D01*
X895405Y-11588762D01*
X933500Y-11512572D01*
X971595Y-11474476D01*
X1047786Y-11436381D01*
X1085881Y-11436381D01*
X1162071Y-11474476D01*
X1200167Y-11512572D01*
X1238262Y-11588762D01*
X1238262Y-11741143D01*
X1276357Y-11817334D01*
X1314452Y-11855429D01*
X1390643Y-11893524D01*
X1543024Y-11893524D01*
X1619214Y-11855429D01*
X1657310Y-11817334D01*
X1695405Y-11741143D01*
X1695405Y-11588762D01*
X1657310Y-11512572D01*
X1619214Y-11474476D01*
X1543024Y-11436381D01*
X1390643Y-11436381D01*
X1314452Y-11474476D01*
X1276357Y-11512572D01*
X1238262Y-11588762D01*
X1162071Y-11093524D02*
X1962071Y-11093524D01*
X1200167Y-11093524D02*
X1162071Y-11017333D01*
X1162071Y-10864952D01*
X1200167Y-10788762D01*
X1238262Y-10750667D01*
X1314452Y-10712571D01*
X1543024Y-10712571D01*
X1619214Y-10750667D01*
X1657310Y-10788762D01*
X1695405Y-10864952D01*
X1695405Y-11017333D01*
X1657310Y-11093524D01*
X1822405Y-26104833D02*
X1822405Y-26561976D01*
X1822405Y-26333405D02*
X1022405Y-26333405D01*
X1136690Y-26409595D01*
X1212881Y-26485786D01*
X1250976Y-26561976D01*
X1289071Y-25419119D02*
X1822405Y-25419119D01*
X1289071Y-25761976D02*
X1708119Y-25761976D01*
X1784310Y-25723881D01*
X1822405Y-25647690D01*
X1822405Y-25533404D01*
X1784310Y-25457214D01*
X1746214Y-25419119D01*
X1758905Y-21850333D02*
X1758905Y-22307476D01*
X1758905Y-22078905D02*
X958905Y-22078905D01*
X1073190Y-22155095D01*
X1149381Y-22231286D01*
X1187476Y-22307476D01*
X1225571Y-21164619D02*
X1758905Y-21164619D01*
X1225571Y-21507476D02*
X1644619Y-21507476D01*
X1720810Y-21469381D01*
X1758905Y-21393190D01*
X1758905Y-21278904D01*
X1720810Y-21202714D01*
X1682714Y-21164619D01*
X20021572Y-24936405D02*
X19564429Y-24936405D01*
X19793000Y-24936405D02*
X19793000Y-24136405D01*
X19716810Y-24250690D01*
X19640619Y-24326881D01*
X19564429Y-24364976D01*
X20364429Y-24936405D02*
X20364429Y-24136405D01*
X20821572Y-24936405D02*
X20478715Y-24479262D01*
X20821572Y-24136405D02*
X20364429Y-24593548D01*
X9766381Y-9340905D02*
X10261619Y-9340905D01*
X9994952Y-9645667D01*
X10109238Y-9645667D01*
X10185428Y-9683762D01*
X10223524Y-9721857D01*
X10261619Y-9798048D01*
X10261619Y-9988524D01*
X10223524Y-10064714D01*
X10185428Y-10102810D01*
X10109238Y-10140905D01*
X9880666Y-10140905D01*
X9804476Y-10102810D01*
X9766381Y-10064714D01*
X10528286Y-9340905D02*
X11023524Y-9340905D01*
X10756857Y-9645667D01*
X10871143Y-9645667D01*
X10947333Y-9683762D01*
X10985429Y-9721857D01*
X11023524Y-9798048D01*
X11023524Y-9988524D01*
X10985429Y-10064714D01*
X10947333Y-10102810D01*
X10871143Y-10140905D01*
X10642571Y-10140905D01*
X10566381Y-10102810D01*
X10528286Y-10064714D01*
X11798381Y-9340905D02*
X12293619Y-9340905D01*
X12026952Y-9645667D01*
X12141238Y-9645667D01*
X12217428Y-9683762D01*
X12255524Y-9721857D01*
X12293619Y-9798048D01*
X12293619Y-9988524D01*
X12255524Y-10064714D01*
X12217428Y-10102810D01*
X12141238Y-10140905D01*
X11912666Y-10140905D01*
X11836476Y-10102810D01*
X11798381Y-10064714D01*
X12560286Y-9340905D02*
X13055524Y-9340905D01*
X12788857Y-9645667D01*
X12903143Y-9645667D01*
X12979333Y-9683762D01*
X13017429Y-9721857D01*
X13055524Y-9798048D01*
X13055524Y-9988524D01*
X13017429Y-10064714D01*
X12979333Y-10102810D01*
X12903143Y-10140905D01*
X12674571Y-10140905D01*
X12598381Y-10102810D01*
X12560286Y-10064714D01*
X14103476Y-9417095D02*
X14141571Y-9379000D01*
X14217762Y-9340905D01*
X14408238Y-9340905D01*
X14484428Y-9379000D01*
X14522524Y-9417095D01*
X14560619Y-9493286D01*
X14560619Y-9569476D01*
X14522524Y-9683762D01*
X14065381Y-10140905D01*
X14560619Y-10140905D01*
X14903476Y-10140905D02*
X14903476Y-9340905D01*
X15360619Y-10140905D02*
X15017762Y-9683762D01*
X15360619Y-9340905D02*
X14903476Y-9798048D01*
X15665381Y-9417095D02*
X15703476Y-9379000D01*
X15779667Y-9340905D01*
X15970143Y-9340905D01*
X16046333Y-9379000D01*
X16084429Y-9417095D01*
X16122524Y-9493286D01*
X16122524Y-9569476D01*
X16084429Y-9683762D01*
X15627286Y-10140905D01*
X16122524Y-10140905D01*
X10820476Y-19754905D02*
X10820476Y-20402524D01*
X10858571Y-20478714D01*
X10896667Y-20516810D01*
X10972857Y-20554905D01*
X11125238Y-20554905D01*
X11201429Y-20516810D01*
X11239524Y-20478714D01*
X11277619Y-20402524D01*
X11277619Y-19754905D01*
X11620476Y-19831095D02*
X11658571Y-19793000D01*
X11734762Y-19754905D01*
X11925238Y-19754905D01*
X12001428Y-19793000D01*
X12039524Y-19831095D01*
X12077619Y-19907286D01*
X12077619Y-19983476D01*
X12039524Y-20097762D01*
X11582381Y-20554905D01*
X12077619Y-20554905D01*
X1568405Y-15722524D02*
X1568405Y-16179667D01*
X1568405Y-15951096D02*
X768405Y-15951096D01*
X882690Y-16027286D01*
X958881Y-16103477D01*
X996976Y-16179667D01*
X844595Y-15417762D02*
X806500Y-15379667D01*
X768405Y-15303476D01*
X768405Y-15113000D01*
X806500Y-15036810D01*
X844595Y-14998714D01*
X920786Y-14960619D01*
X996976Y-14960619D01*
X1111262Y-14998714D01*
X1568405Y-15455857D01*
X1568405Y-14960619D01*
X1568405Y-14617762D02*
X768405Y-14617762D01*
X1339833Y-14351095D01*
X768405Y-14084428D01*
X1568405Y-14084428D01*
M02*
