G04 #@! TF.FileFunction,Copper,L1,Top,Signal*
%FSLAX46Y46*%
G04 Gerber Fmt 4.6, Leading zero omitted, Abs format (unit mm)*
G04 Created by KiCad (PCBNEW (2014-12-10 BZR 5319)-product) date 2015年02月02日 11時42分02秒*
%MOMM*%
G01*
G04 APERTURE LIST*
%ADD10C,0.100000*%
%ADD11R,0.750000X1.200000*%
%ADD12R,1.600000X2.000000*%
%ADD13R,1.200000X0.750000*%
%ADD14R,1.600000X1.600000*%
%ADD15C,1.524000*%
%ADD16C,1.100000*%
%ADD17O,1.900000X3.200000*%
%ADD18R,0.900000X1.200000*%
%ADD19R,0.700000X1.100000*%
%ADD20R,0.280000X1.200000*%
%ADD21R,1.200000X0.280000*%
%ADD22R,1.501140X0.398780*%
%ADD23R,1.400000X1.200000*%
%ADD24C,1.620000*%
%ADD25C,3.000000*%
%ADD26C,0.889000*%
%ADD27C,0.200000*%
%ADD28C,0.152400*%
%ADD29C,0.400000*%
G04 APERTURE END LIST*
D10*
D11*
X7112000Y-26609000D03*
X7112000Y-28509000D03*
D12*
X19050000Y-10827000D03*
X19050000Y-14827000D03*
D11*
X7747000Y-13523000D03*
X7747000Y-11623000D03*
D13*
X2860000Y-18542000D03*
X4760000Y-18542000D03*
X4760000Y-11684000D03*
X2860000Y-11684000D03*
X2860000Y-26035000D03*
X4760000Y-26035000D03*
X4760000Y-21717000D03*
X2860000Y-21717000D03*
D14*
X17780000Y-25851000D03*
X17780000Y-28251000D03*
D15*
X12430000Y-31623000D03*
X10430000Y-31623000D03*
X7930000Y-31623000D03*
X14930000Y-31623000D03*
D16*
X9180000Y-34023000D03*
X13680000Y-34023000D03*
D17*
X5580000Y-34023000D03*
X17280000Y-34023000D03*
D18*
X20193000Y-28278000D03*
X20193000Y-26078000D03*
X10414000Y-11473000D03*
X10414000Y-13673000D03*
X12446000Y-11473000D03*
X12446000Y-13673000D03*
X15113000Y-11473000D03*
X15113000Y-13673000D03*
D19*
X17823000Y-22420000D03*
X17823000Y-18220000D03*
X20023000Y-18220000D03*
X20023000Y-22420000D03*
D20*
X9680000Y-23443000D03*
X10180000Y-23443000D03*
X10680000Y-23443000D03*
X11180000Y-23443000D03*
X11680000Y-23443000D03*
X12180000Y-23443000D03*
X12680000Y-23443000D03*
X13180000Y-23443000D03*
D21*
X14680000Y-21943000D03*
X14680000Y-21443000D03*
X14680000Y-20943000D03*
X14680000Y-20443000D03*
X14680000Y-19943000D03*
X14680000Y-19443000D03*
X14680000Y-18943000D03*
X14680000Y-18443000D03*
D20*
X13180000Y-16943000D03*
X12680000Y-16943000D03*
X12180000Y-16943000D03*
X11680000Y-16943000D03*
X11180000Y-16943000D03*
X10680000Y-16943000D03*
X10180000Y-16943000D03*
X9680000Y-16943000D03*
D21*
X8180000Y-18443000D03*
X8180000Y-18943000D03*
X8180000Y-19443000D03*
X8180000Y-19943000D03*
X8180000Y-20443000D03*
X8180000Y-20943000D03*
X8180000Y-21443000D03*
X8180000Y-21943000D03*
D22*
X2479040Y-23225760D03*
X2479040Y-23876000D03*
X2479040Y-24526240D03*
X5140960Y-24526240D03*
X5140960Y-23876000D03*
X5140960Y-23225760D03*
D23*
X2710000Y-15913000D03*
X4910000Y-15913000D03*
X2710000Y-14313000D03*
X4910000Y-14313000D03*
D24*
X7930000Y-7493000D03*
X10430000Y-7493000D03*
X12430000Y-7493000D03*
X14930000Y-7493000D03*
D25*
X4860000Y-4783000D03*
X18000000Y-4783000D03*
D26*
X13779500Y-25590500D03*
X13652500Y-30226000D03*
X17208500Y-14414500D03*
X13716000Y-14541500D03*
X9017000Y-13843000D03*
X11430000Y-9271000D03*
X11430000Y-14859000D03*
X15367000Y-9779000D03*
X7620000Y-23241000D03*
X16764000Y-20955000D03*
X16129000Y-20066000D03*
X15875000Y-15875000D03*
X13208000Y-20955000D03*
X13081000Y-18415000D03*
X12192000Y-19431000D03*
X13970000Y-10033000D03*
D27*
X12180000Y-16943000D02*
X12180000Y-16077500D01*
X12180000Y-16077500D02*
X13716000Y-14541500D01*
D28*
X11430000Y-9271000D02*
X11430000Y-12446000D01*
X11430000Y-12446000D02*
X11303000Y-12573000D01*
X7747000Y-11623000D02*
X8321000Y-11623000D01*
X11430000Y-12700000D02*
X11430000Y-14859000D01*
X11303000Y-12573000D02*
X11430000Y-12700000D01*
X9271000Y-12573000D02*
X11303000Y-12573000D01*
X8321000Y-11623000D02*
X9271000Y-12573000D01*
D27*
X7930000Y-31623000D02*
X7930000Y-31313000D01*
D29*
X14930000Y-7493000D02*
X14930000Y-7691000D01*
X14930000Y-7691000D02*
X15621000Y-8382000D01*
X17907000Y-8382000D02*
X19050000Y-9525000D01*
X15621000Y-8382000D02*
X17907000Y-8382000D01*
X19050000Y-10827000D02*
X19050000Y-9525000D01*
X19050000Y-10827000D02*
X19050000Y-10827000D01*
X20574000Y-30734000D02*
X15819000Y-30734000D01*
X20479000Y-10827000D02*
X21717000Y-12065000D01*
X21717000Y-29591000D02*
X21717000Y-12065000D01*
X20574000Y-30734000D02*
X21717000Y-29591000D01*
X15621000Y-30932000D02*
X14930000Y-31623000D01*
X15819000Y-30734000D02*
X15621000Y-30932000D01*
X19050000Y-10827000D02*
X20479000Y-10827000D01*
X14930000Y-31623000D02*
X14930000Y-31679000D01*
X3540760Y-23225760D02*
X3810000Y-23495000D01*
X3810000Y-23495000D02*
X3810000Y-24257000D01*
X3810000Y-24257000D02*
X3540760Y-24526240D01*
X3540760Y-24526240D02*
X2479040Y-24526240D01*
X2479040Y-23225760D02*
X3540760Y-23225760D01*
X3810000Y-25019000D02*
X3810000Y-24257000D01*
X2860000Y-25969000D02*
X3810000Y-25019000D01*
X2860000Y-26035000D02*
X2860000Y-25969000D01*
X7366000Y-34798000D02*
X7366000Y-33020000D01*
X2860000Y-26035000D02*
X2860000Y-28514000D01*
X2860000Y-28514000D02*
X7366000Y-33020000D01*
X14930000Y-31623000D02*
X14930000Y-32456000D01*
X14930000Y-32456000D02*
X15240000Y-32766000D01*
X15240000Y-32766000D02*
X15240000Y-34671000D01*
X15240000Y-34671000D02*
X14351000Y-35560000D01*
X14351000Y-35560000D02*
X8128000Y-35560000D01*
X8128000Y-35560000D02*
X7366000Y-34798000D01*
D27*
X15113000Y-11473000D02*
X15113000Y-10033000D01*
X15113000Y-10033000D02*
X15367000Y-9779000D01*
X7747000Y-14478000D02*
X7747000Y-13523000D01*
X8509000Y-15240000D02*
X7747000Y-14478000D01*
X9271000Y-15240000D02*
X8509000Y-15240000D01*
X10180000Y-16149000D02*
X9271000Y-15240000D01*
X10180000Y-16943000D02*
X10180000Y-16149000D01*
X7112000Y-26609000D02*
X7112000Y-25654000D01*
X7112000Y-25654000D02*
X7620000Y-25146000D01*
X7620000Y-25146000D02*
X7620000Y-24638000D01*
X7620000Y-23241000D02*
X7620000Y-24638000D01*
X7620000Y-24638000D02*
X7874000Y-24892000D01*
X10180000Y-23443000D02*
X10180000Y-24618000D01*
X9906000Y-24892000D02*
X7874000Y-24892000D01*
X10180000Y-24618000D02*
X9906000Y-24892000D01*
D29*
X7604760Y-23225760D02*
X7620000Y-23225760D01*
X7620000Y-23225760D02*
X6334760Y-23225760D01*
X7620000Y-23241000D02*
X7604760Y-23225760D01*
X6334760Y-23225760D02*
X5140960Y-23225760D01*
D27*
X10180000Y-22459000D02*
X10180000Y-22225000D01*
X10180000Y-23443000D02*
X10180000Y-22459000D01*
D29*
X6477000Y-22098000D02*
X6096000Y-21717000D01*
X6477000Y-22860000D02*
X6477000Y-22098000D01*
X6111240Y-23225760D02*
X6477000Y-22860000D01*
X6096000Y-21717000D02*
X4760000Y-21717000D01*
X5140960Y-23225760D02*
X6111240Y-23225760D01*
D27*
X10180000Y-17907000D02*
X10180000Y-16943000D01*
X10180000Y-22225000D02*
X10180000Y-17907000D01*
X17780000Y-25951000D02*
X17780000Y-24574500D01*
X16764000Y-23558500D02*
X16764000Y-20955000D01*
X17780000Y-24574500D02*
X16764000Y-23558500D01*
X17780000Y-28151000D02*
X20066000Y-28151000D01*
X20066000Y-28151000D02*
X20193000Y-28278000D01*
X10430000Y-7493000D02*
X10430000Y-11457000D01*
X10430000Y-11457000D02*
X10414000Y-11473000D01*
X12430000Y-7493000D02*
X12430000Y-11457000D01*
X12430000Y-11457000D02*
X12446000Y-11473000D01*
X17823000Y-20066000D02*
X16129000Y-20066000D01*
X17823000Y-18220000D02*
X17823000Y-20066000D01*
X17823000Y-20066000D02*
X17823000Y-22420000D01*
X15752000Y-20443000D02*
X16129000Y-20066000D01*
X14680000Y-20443000D02*
X15752000Y-20443000D01*
X14680000Y-19443000D02*
X15482000Y-19443000D01*
X15875000Y-19050000D02*
X15482000Y-19443000D01*
X15875000Y-15875000D02*
X15875000Y-19050000D01*
X13712000Y-19943000D02*
X13208000Y-20447000D01*
X13208000Y-20447000D02*
X13208000Y-20955000D01*
X14680000Y-19943000D02*
X13712000Y-19943000D01*
X13081000Y-18415000D02*
X13109000Y-18443000D01*
X13109000Y-18443000D02*
X14680000Y-18443000D01*
X13823000Y-18943000D02*
X13398500Y-19367500D01*
X14680000Y-18943000D02*
X13823000Y-18943000D01*
X12192000Y-19431000D02*
X12255500Y-19367500D01*
X12255500Y-19367500D02*
X13398500Y-19367500D01*
X2860000Y-16063000D02*
X2710000Y-15913000D01*
X2860000Y-16830000D02*
X2860000Y-16063000D01*
X2860000Y-18542000D02*
X2860000Y-16830000D01*
X8180000Y-18443000D02*
X7267000Y-18443000D01*
X2860000Y-19243000D02*
X3302000Y-19685000D01*
X3302000Y-19685000D02*
X6025000Y-19685000D01*
X6025000Y-19685000D02*
X7267000Y-18443000D01*
X2860000Y-18542000D02*
X2860000Y-19243000D01*
X9680000Y-16284000D02*
X9271000Y-15875000D01*
X9271000Y-15875000D02*
X7493000Y-15875000D01*
X7493000Y-15875000D02*
X6350000Y-14732000D01*
X6350000Y-14732000D02*
X6350000Y-14732000D01*
X6350000Y-14732000D02*
X5931000Y-14313000D01*
X5931000Y-14313000D02*
X4910000Y-14313000D01*
X9680000Y-16943000D02*
X9680000Y-16284000D01*
X4760000Y-14163000D02*
X4910000Y-14313000D01*
X4760000Y-11684000D02*
X4760000Y-14163000D01*
X10414000Y-13673000D02*
X10414000Y-15240000D01*
X11180000Y-16006000D02*
X11180000Y-16943000D01*
X10414000Y-15240000D02*
X11180000Y-16006000D01*
X11680000Y-16943000D02*
X11680000Y-15879000D01*
X12446000Y-15113000D02*
X12446000Y-13673000D01*
X11680000Y-15879000D02*
X12446000Y-15113000D01*
X15113000Y-13673000D02*
X14371500Y-13673000D01*
X13970000Y-13271500D02*
X13970000Y-10033000D01*
X14371500Y-13673000D02*
X13970000Y-13271500D01*
X15113000Y-13673000D02*
X15113000Y-14478000D01*
X12680000Y-16276000D02*
X12680000Y-16943000D01*
X13017500Y-15938500D02*
X12680000Y-16276000D01*
X13652500Y-15938500D02*
X13017500Y-15938500D01*
X15113000Y-14478000D02*
X13652500Y-15938500D01*
G36*
X22460000Y-30694603D02*
X22396202Y-31015334D01*
X22267000Y-31208697D01*
X22267000Y-29591000D01*
X22267000Y-12065000D01*
X22225134Y-11854524D01*
X22105909Y-11676091D01*
X22105905Y-11676088D01*
X20867909Y-10438091D01*
X20689476Y-10318866D01*
X20479000Y-10277000D01*
X20206857Y-10277000D01*
X20206857Y-9827000D01*
X20180964Y-9693546D01*
X20103914Y-9576253D01*
X19987597Y-9497737D01*
X19854545Y-9471054D01*
X19854545Y-4438647D01*
X19581598Y-3755155D01*
X19554856Y-3715134D01*
X19306768Y-3546943D01*
X19236057Y-3617654D01*
X19236057Y-3476232D01*
X19067866Y-3228144D01*
X18391563Y-2937845D01*
X17655647Y-2928455D01*
X16972155Y-3201402D01*
X16932134Y-3228144D01*
X16763943Y-3476232D01*
X18000000Y-4712289D01*
X19236057Y-3476232D01*
X19236057Y-3617654D01*
X18070711Y-4783000D01*
X19306768Y-6019057D01*
X19554856Y-5850866D01*
X19845155Y-5174563D01*
X19854545Y-4438647D01*
X19854545Y-9471054D01*
X19850000Y-9470143D01*
X19589088Y-9470143D01*
X19558134Y-9314524D01*
X19438909Y-9136091D01*
X19236057Y-8933239D01*
X19236057Y-6089768D01*
X18000000Y-4853711D01*
X17929289Y-4924422D01*
X17929289Y-4783000D01*
X16693232Y-3546943D01*
X16445144Y-3715134D01*
X16154845Y-4391437D01*
X16145455Y-5127353D01*
X16418402Y-5810845D01*
X16445144Y-5850866D01*
X16693232Y-6019057D01*
X17929289Y-4783000D01*
X17929289Y-4924422D01*
X16763943Y-6089768D01*
X16932134Y-6337856D01*
X17608437Y-6628155D01*
X18344353Y-6637545D01*
X19027845Y-6364598D01*
X19067866Y-6337856D01*
X19236057Y-6089768D01*
X19236057Y-8933239D01*
X18295909Y-7993091D01*
X18117476Y-7873866D01*
X17907000Y-7832000D01*
X16045264Y-7832000D01*
X16089798Y-7724751D01*
X16090201Y-7263274D01*
X15913974Y-6836771D01*
X15587945Y-6510173D01*
X15161751Y-6333202D01*
X14700274Y-6332799D01*
X14273771Y-6509026D01*
X13947173Y-6835055D01*
X13770202Y-7261249D01*
X13769799Y-7722726D01*
X13946026Y-8149229D01*
X14272055Y-8475827D01*
X14698249Y-8652798D01*
X15114344Y-8653161D01*
X15232088Y-8770905D01*
X15232091Y-8770909D01*
X15232092Y-8770909D01*
X15410524Y-8890134D01*
X15621000Y-8932001D01*
X15621000Y-8932000D01*
X15621005Y-8932000D01*
X17679182Y-8932000D01*
X18222634Y-9475452D01*
X18116546Y-9496036D01*
X17999253Y-9573086D01*
X17920737Y-9689403D01*
X17893143Y-9827000D01*
X17893143Y-11827000D01*
X17919036Y-11960454D01*
X17996086Y-12077747D01*
X18112403Y-12156263D01*
X18250000Y-12183857D01*
X19850000Y-12183857D01*
X19983454Y-12157964D01*
X20100747Y-12080914D01*
X20179263Y-11964597D01*
X20206857Y-11827000D01*
X20206857Y-11377000D01*
X20251182Y-11377000D01*
X21167000Y-12292817D01*
X21167000Y-29363182D01*
X20999857Y-29530325D01*
X20999857Y-28878000D01*
X20999857Y-27678000D01*
X20993000Y-27642658D01*
X20993000Y-26747619D01*
X20993000Y-26215500D01*
X20993000Y-25940500D01*
X20993000Y-25408381D01*
X20939716Y-25279741D01*
X20841259Y-25181285D01*
X20723000Y-25132299D01*
X20723000Y-23039619D01*
X20723000Y-22557500D01*
X20723000Y-22282500D01*
X20723000Y-21800381D01*
X20723000Y-18839619D01*
X20723000Y-18357500D01*
X20723000Y-18082500D01*
X20723000Y-17600381D01*
X20669716Y-17471741D01*
X20571259Y-17373285D01*
X20442620Y-17320000D01*
X20303381Y-17320000D01*
X20200000Y-17320000D01*
X20200000Y-15896619D01*
X20200000Y-14964500D01*
X20200000Y-14689500D01*
X20200000Y-13757381D01*
X20146716Y-13628741D01*
X20048259Y-13530285D01*
X19919620Y-13477000D01*
X19780381Y-13477000D01*
X19187500Y-13477000D01*
X19100000Y-13564500D01*
X19100000Y-14777000D01*
X20112500Y-14777000D01*
X20200000Y-14689500D01*
X20200000Y-14964500D01*
X20112500Y-14877000D01*
X19100000Y-14877000D01*
X19100000Y-16089500D01*
X19187500Y-16177000D01*
X19780381Y-16177000D01*
X19919620Y-16177000D01*
X20048259Y-16123715D01*
X20146716Y-16025259D01*
X20200000Y-15896619D01*
X20200000Y-17320000D01*
X20160500Y-17320000D01*
X20073000Y-17407500D01*
X20073000Y-18170000D01*
X20635500Y-18170000D01*
X20723000Y-18082500D01*
X20723000Y-18357500D01*
X20635500Y-18270000D01*
X20073000Y-18270000D01*
X20073000Y-19032500D01*
X20160500Y-19120000D01*
X20303381Y-19120000D01*
X20442620Y-19120000D01*
X20571259Y-19066715D01*
X20669716Y-18968259D01*
X20723000Y-18839619D01*
X20723000Y-21800381D01*
X20669716Y-21671741D01*
X20571259Y-21573285D01*
X20442620Y-21520000D01*
X20303381Y-21520000D01*
X20160500Y-21520000D01*
X20073000Y-21607500D01*
X20073000Y-22370000D01*
X20635500Y-22370000D01*
X20723000Y-22282500D01*
X20723000Y-22557500D01*
X20635500Y-22470000D01*
X20073000Y-22470000D01*
X20073000Y-23232500D01*
X20160500Y-23320000D01*
X20303381Y-23320000D01*
X20442620Y-23320000D01*
X20571259Y-23266715D01*
X20669716Y-23168259D01*
X20723000Y-23039619D01*
X20723000Y-25132299D01*
X20712620Y-25128000D01*
X20573381Y-25128000D01*
X20330500Y-25128000D01*
X20243000Y-25215500D01*
X20243000Y-26028000D01*
X20905500Y-26028000D01*
X20993000Y-25940500D01*
X20993000Y-26215500D01*
X20905500Y-26128000D01*
X20243000Y-26128000D01*
X20243000Y-26940500D01*
X20330500Y-27028000D01*
X20573381Y-27028000D01*
X20712620Y-27028000D01*
X20841259Y-26974715D01*
X20939716Y-26876259D01*
X20993000Y-26747619D01*
X20993000Y-27642658D01*
X20973964Y-27544546D01*
X20896914Y-27427253D01*
X20780597Y-27348737D01*
X20643000Y-27321143D01*
X20143000Y-27321143D01*
X20143000Y-26940500D01*
X20143000Y-26128000D01*
X20143000Y-26028000D01*
X20143000Y-25215500D01*
X20055500Y-25128000D01*
X19973000Y-25128000D01*
X19973000Y-23232500D01*
X19973000Y-22470000D01*
X19973000Y-22370000D01*
X19973000Y-21607500D01*
X19973000Y-19032500D01*
X19973000Y-18270000D01*
X19973000Y-18170000D01*
X19973000Y-17407500D01*
X19885500Y-17320000D01*
X19742619Y-17320000D01*
X19603380Y-17320000D01*
X19474741Y-17373285D01*
X19376284Y-17471741D01*
X19323000Y-17600381D01*
X19323000Y-18082500D01*
X19410500Y-18170000D01*
X19973000Y-18170000D01*
X19973000Y-18270000D01*
X19410500Y-18270000D01*
X19323000Y-18357500D01*
X19323000Y-18839619D01*
X19376284Y-18968259D01*
X19474741Y-19066715D01*
X19603380Y-19120000D01*
X19742619Y-19120000D01*
X19885500Y-19120000D01*
X19973000Y-19032500D01*
X19973000Y-21607500D01*
X19885500Y-21520000D01*
X19742619Y-21520000D01*
X19603380Y-21520000D01*
X19474741Y-21573285D01*
X19376284Y-21671741D01*
X19323000Y-21800381D01*
X19323000Y-22282500D01*
X19410500Y-22370000D01*
X19973000Y-22370000D01*
X19973000Y-22470000D01*
X19410500Y-22470000D01*
X19323000Y-22557500D01*
X19323000Y-23039619D01*
X19376284Y-23168259D01*
X19474741Y-23266715D01*
X19603380Y-23320000D01*
X19742619Y-23320000D01*
X19885500Y-23320000D01*
X19973000Y-23232500D01*
X19973000Y-25128000D01*
X19812619Y-25128000D01*
X19673380Y-25128000D01*
X19544741Y-25181285D01*
X19446284Y-25279741D01*
X19393000Y-25408381D01*
X19393000Y-25940500D01*
X19480500Y-26028000D01*
X20143000Y-26028000D01*
X20143000Y-26128000D01*
X19480500Y-26128000D01*
X19393000Y-26215500D01*
X19393000Y-26747619D01*
X19446284Y-26876259D01*
X19544741Y-26974715D01*
X19673380Y-27028000D01*
X19812619Y-27028000D01*
X20055500Y-27028000D01*
X20143000Y-26940500D01*
X20143000Y-27321143D01*
X19743000Y-27321143D01*
X19609546Y-27347036D01*
X19492253Y-27424086D01*
X19413737Y-27540403D01*
X19386143Y-27678000D01*
X19386143Y-27701000D01*
X19000000Y-27701000D01*
X19000000Y-16089500D01*
X19000000Y-14877000D01*
X19000000Y-14777000D01*
X19000000Y-13564500D01*
X18912500Y-13477000D01*
X18319619Y-13477000D01*
X18180380Y-13477000D01*
X18051741Y-13530285D01*
X17953284Y-13628741D01*
X17900000Y-13757381D01*
X17900000Y-14689500D01*
X17987500Y-14777000D01*
X19000000Y-14777000D01*
X19000000Y-14877000D01*
X17987500Y-14877000D01*
X17900000Y-14964500D01*
X17900000Y-15896619D01*
X17953284Y-16025259D01*
X18051741Y-16123715D01*
X18180380Y-16177000D01*
X18319619Y-16177000D01*
X18912500Y-16177000D01*
X19000000Y-16089500D01*
X19000000Y-27701000D01*
X18936857Y-27701000D01*
X18936857Y-27451000D01*
X18910964Y-27317546D01*
X18833914Y-27200253D01*
X18717597Y-27121737D01*
X18580000Y-27094143D01*
X16980000Y-27094143D01*
X16846546Y-27120036D01*
X16729253Y-27197086D01*
X16650737Y-27313403D01*
X16623143Y-27451000D01*
X16623143Y-29051000D01*
X16649036Y-29184454D01*
X16726086Y-29301747D01*
X16842403Y-29380263D01*
X16980000Y-29407857D01*
X18580000Y-29407857D01*
X18713454Y-29381964D01*
X18830747Y-29304914D01*
X18909263Y-29188597D01*
X18936857Y-29051000D01*
X18936857Y-28601000D01*
X19386143Y-28601000D01*
X19386143Y-28878000D01*
X19412036Y-29011454D01*
X19489086Y-29128747D01*
X19605403Y-29207263D01*
X19743000Y-29234857D01*
X20643000Y-29234857D01*
X20776454Y-29208964D01*
X20893747Y-29131914D01*
X20972263Y-29015597D01*
X20999857Y-28878000D01*
X20999857Y-29530325D01*
X20346182Y-30184000D01*
X15819000Y-30184000D01*
X15608524Y-30225866D01*
X15430091Y-30345091D01*
X15232091Y-30543091D01*
X15232088Y-30543094D01*
X15231178Y-30544004D01*
X15152161Y-30511194D01*
X14709780Y-30510808D01*
X14300926Y-30679743D01*
X13987842Y-30992280D01*
X13818194Y-31400839D01*
X13817808Y-31843220D01*
X13986743Y-32252074D01*
X14299280Y-32565158D01*
X14410934Y-32611521D01*
X14421866Y-32666476D01*
X14541091Y-32844909D01*
X14690000Y-32993818D01*
X14690000Y-34443182D01*
X14580156Y-34553026D01*
X14580156Y-33844764D01*
X14443428Y-33513857D01*
X14190475Y-33260462D01*
X13859806Y-33123157D01*
X13676857Y-33122997D01*
X13676857Y-24043000D01*
X13676857Y-22843000D01*
X13650964Y-22709546D01*
X13573914Y-22592253D01*
X13457597Y-22513737D01*
X13320000Y-22486143D01*
X13040000Y-22486143D01*
X12928182Y-22507838D01*
X12820000Y-22486143D01*
X12540000Y-22486143D01*
X12428182Y-22507838D01*
X12320000Y-22486143D01*
X12040000Y-22486143D01*
X11928182Y-22507838D01*
X11820000Y-22486143D01*
X11540000Y-22486143D01*
X11428182Y-22507838D01*
X11320000Y-22486143D01*
X11040000Y-22486143D01*
X10926315Y-22508200D01*
X10889620Y-22493000D01*
X10817500Y-22493000D01*
X10730000Y-22580500D01*
X10730000Y-22676865D01*
X10710737Y-22705403D01*
X10683143Y-22843000D01*
X10683143Y-24043000D01*
X10709036Y-24176454D01*
X10730000Y-24208367D01*
X10730000Y-24305500D01*
X10817500Y-24393000D01*
X10889620Y-24393000D01*
X10927521Y-24377300D01*
X11040000Y-24399857D01*
X11320000Y-24399857D01*
X11431817Y-24378161D01*
X11540000Y-24399857D01*
X11820000Y-24399857D01*
X11931817Y-24378161D01*
X12040000Y-24399857D01*
X12320000Y-24399857D01*
X12431817Y-24378161D01*
X12540000Y-24399857D01*
X12820000Y-24399857D01*
X12931817Y-24378161D01*
X13040000Y-24399857D01*
X13320000Y-24399857D01*
X13453454Y-24373964D01*
X13570747Y-24296914D01*
X13649263Y-24180597D01*
X13676857Y-24043000D01*
X13676857Y-33122997D01*
X13542192Y-33122879D01*
X13542192Y-31402780D01*
X13373257Y-30993926D01*
X13060720Y-30680842D01*
X12652161Y-30511194D01*
X12209780Y-30510808D01*
X11800926Y-30679743D01*
X11487842Y-30992280D01*
X11430067Y-31131417D01*
X11373257Y-30993926D01*
X11060720Y-30680842D01*
X10652161Y-30511194D01*
X10209780Y-30510808D01*
X9800926Y-30679743D01*
X9487842Y-30992280D01*
X9318194Y-31400839D01*
X9317808Y-31843220D01*
X9486743Y-32252074D01*
X9799280Y-32565158D01*
X10207839Y-32734806D01*
X10650220Y-32735192D01*
X11059074Y-32566257D01*
X11372158Y-32253720D01*
X11429932Y-32114582D01*
X11486743Y-32252074D01*
X11799280Y-32565158D01*
X12207839Y-32734806D01*
X12650220Y-32735192D01*
X13059074Y-32566257D01*
X13372158Y-32253720D01*
X13541806Y-31845161D01*
X13542192Y-31402780D01*
X13542192Y-33122879D01*
X13501764Y-33122844D01*
X13170857Y-33259572D01*
X12917462Y-33512525D01*
X12780157Y-33843194D01*
X12779844Y-34201236D01*
X12916572Y-34532143D01*
X13169525Y-34785538D01*
X13500194Y-34922843D01*
X13858236Y-34923156D01*
X14189143Y-34786428D01*
X14442538Y-34533475D01*
X14579843Y-34202806D01*
X14580156Y-33844764D01*
X14580156Y-34553026D01*
X14123182Y-35010000D01*
X10080156Y-35010000D01*
X10080156Y-33844764D01*
X9943428Y-33513857D01*
X9690475Y-33260462D01*
X9359806Y-33123157D01*
X9043058Y-33122880D01*
X9043058Y-31838801D01*
X9040915Y-31396425D01*
X8875748Y-30997677D01*
X8704346Y-30919365D01*
X8633635Y-30990076D01*
X8633635Y-30848654D01*
X8555323Y-30677252D01*
X8145801Y-30509942D01*
X7837000Y-30511437D01*
X7837000Y-29178619D01*
X7837000Y-28646500D01*
X7749500Y-28559000D01*
X7162000Y-28559000D01*
X7162000Y-29371500D01*
X7249500Y-29459000D01*
X7417381Y-29459000D01*
X7556620Y-29459000D01*
X7685259Y-29405715D01*
X7783716Y-29307259D01*
X7837000Y-29178619D01*
X7837000Y-30511437D01*
X7703425Y-30512085D01*
X7304677Y-30677252D01*
X7226365Y-30848654D01*
X7930000Y-31552289D01*
X8633635Y-30848654D01*
X8633635Y-30990076D01*
X8000711Y-31623000D01*
X8704346Y-32326635D01*
X8875748Y-32248323D01*
X9043058Y-31838801D01*
X9043058Y-33122880D01*
X9001764Y-33122844D01*
X8670857Y-33259572D01*
X8417462Y-33512525D01*
X8280157Y-33843194D01*
X8279844Y-34201236D01*
X8416572Y-34532143D01*
X8669525Y-34785538D01*
X9000194Y-34922843D01*
X9358236Y-34923156D01*
X9689143Y-34786428D01*
X9942538Y-34533475D01*
X10079843Y-34202806D01*
X10080156Y-33844764D01*
X10080156Y-35010000D01*
X8355818Y-35010000D01*
X7916000Y-34570182D01*
X7916000Y-33020000D01*
X7874134Y-32809524D01*
X7824688Y-32735522D01*
X8156575Y-32733915D01*
X8555323Y-32568748D01*
X8633635Y-32397346D01*
X7930000Y-31693711D01*
X7915857Y-31707852D01*
X7845146Y-31637141D01*
X7859289Y-31623000D01*
X7155654Y-30919365D01*
X7062000Y-30962154D01*
X7062000Y-29371500D01*
X7062000Y-28559000D01*
X6474500Y-28559000D01*
X6387000Y-28646500D01*
X6387000Y-29178619D01*
X6440284Y-29307259D01*
X6538741Y-29405715D01*
X6667380Y-29459000D01*
X6806619Y-29459000D01*
X6974500Y-29459000D01*
X7062000Y-29371500D01*
X7062000Y-30962154D01*
X6984252Y-30997677D01*
X6816942Y-31407199D01*
X6818333Y-31694515D01*
X5710000Y-30586182D01*
X5710000Y-26479620D01*
X5710000Y-26340381D01*
X5710000Y-26172500D01*
X5710000Y-25897500D01*
X5710000Y-25729619D01*
X5710000Y-25590380D01*
X5656715Y-25461741D01*
X5558259Y-25363284D01*
X5429619Y-25310000D01*
X4897500Y-25310000D01*
X4810000Y-25397500D01*
X4810000Y-25985000D01*
X5622500Y-25985000D01*
X5710000Y-25897500D01*
X5710000Y-26172500D01*
X5622500Y-26085000D01*
X4810000Y-26085000D01*
X4810000Y-26672500D01*
X4897500Y-26760000D01*
X5429619Y-26760000D01*
X5558259Y-26706716D01*
X5656715Y-26608259D01*
X5710000Y-26479620D01*
X5710000Y-30586182D01*
X3410000Y-28286182D01*
X3410000Y-26766857D01*
X3460000Y-26766857D01*
X3593454Y-26740964D01*
X3710747Y-26663914D01*
X3789263Y-26547597D01*
X3810000Y-26444192D01*
X3810000Y-26479620D01*
X3863285Y-26608259D01*
X3961741Y-26706716D01*
X4090381Y-26760000D01*
X4622500Y-26760000D01*
X4710000Y-26672500D01*
X4710000Y-26085000D01*
X4690000Y-26085000D01*
X4690000Y-25985000D01*
X4710000Y-25985000D01*
X4710000Y-25397500D01*
X4622500Y-25310000D01*
X4264329Y-25310000D01*
X4318134Y-25229476D01*
X4349021Y-25074190D01*
X4390390Y-25082487D01*
X5891530Y-25082487D01*
X6024984Y-25056594D01*
X6142277Y-24979544D01*
X6220793Y-24863227D01*
X6248387Y-24725630D01*
X6248387Y-24326850D01*
X6223589Y-24199042D01*
X6248387Y-24075390D01*
X6248387Y-23775760D01*
X6334760Y-23775760D01*
X7031214Y-23775760D01*
X7169364Y-23914151D01*
X7170000Y-23914415D01*
X7170000Y-24638000D01*
X7170000Y-24959604D01*
X6793802Y-25335802D01*
X6696254Y-25481792D01*
X6662000Y-25654000D01*
X6662000Y-25666694D01*
X6603546Y-25678036D01*
X6486253Y-25755086D01*
X6407737Y-25871403D01*
X6380143Y-26009000D01*
X6380143Y-27209000D01*
X6406036Y-27342454D01*
X6483086Y-27459747D01*
X6599403Y-27538263D01*
X6702807Y-27559000D01*
X6667380Y-27559000D01*
X6538741Y-27612285D01*
X6440284Y-27710741D01*
X6387000Y-27839381D01*
X6387000Y-28371500D01*
X6474500Y-28459000D01*
X7062000Y-28459000D01*
X7062000Y-28439000D01*
X7162000Y-28439000D01*
X7162000Y-28459000D01*
X7749500Y-28459000D01*
X7837000Y-28371500D01*
X7837000Y-27839381D01*
X7783716Y-27710741D01*
X7685259Y-27612285D01*
X7556620Y-27559000D01*
X7522341Y-27559000D01*
X7620454Y-27539964D01*
X7737747Y-27462914D01*
X7816263Y-27346597D01*
X7843857Y-27209000D01*
X7843857Y-26009000D01*
X7817964Y-25875546D01*
X7740914Y-25758253D01*
X7683140Y-25719255D01*
X7938198Y-25464198D01*
X8019848Y-25342000D01*
X9906000Y-25342000D01*
X10078207Y-25307746D01*
X10078208Y-25307746D01*
X10224198Y-25210198D01*
X10498198Y-24936198D01*
X10595746Y-24790208D01*
X10595747Y-24790207D01*
X10630000Y-24618000D01*
X10630000Y-24305500D01*
X10630000Y-24209134D01*
X10649263Y-24180597D01*
X10676857Y-24043000D01*
X10676857Y-22843000D01*
X10650964Y-22709546D01*
X10630000Y-22677632D01*
X10630000Y-22580500D01*
X10630000Y-22459000D01*
X10630000Y-22225000D01*
X10630000Y-17907000D01*
X10630000Y-17899857D01*
X10820000Y-17899857D01*
X10931817Y-17878161D01*
X11040000Y-17899857D01*
X11320000Y-17899857D01*
X11431817Y-17878161D01*
X11540000Y-17899857D01*
X11820000Y-17899857D01*
X11933684Y-17877799D01*
X11970380Y-17893000D01*
X12042500Y-17893000D01*
X12130000Y-17805500D01*
X12130000Y-17709134D01*
X12149263Y-17680597D01*
X12176857Y-17543000D01*
X12176857Y-16873000D01*
X12183143Y-16873000D01*
X12183143Y-17543000D01*
X12209036Y-17676454D01*
X12230000Y-17708367D01*
X12230000Y-17805500D01*
X12317500Y-17893000D01*
X12389620Y-17893000D01*
X12427521Y-17877300D01*
X12483765Y-17888579D01*
X12407849Y-17964364D01*
X12286638Y-18256271D01*
X12286363Y-18572342D01*
X12312915Y-18636605D01*
X12034658Y-18636363D01*
X11742540Y-18757063D01*
X11518849Y-18980364D01*
X11397638Y-19272271D01*
X11397363Y-19588342D01*
X11518063Y-19880460D01*
X11741364Y-20104151D01*
X12033271Y-20225362D01*
X12349342Y-20225637D01*
X12641460Y-20104937D01*
X12865151Y-19881636D01*
X12891782Y-19817500D01*
X13201104Y-19817500D01*
X12889802Y-20128802D01*
X12799324Y-20264211D01*
X12799323Y-20264211D01*
X12758540Y-20281063D01*
X12534849Y-20504364D01*
X12413638Y-20796271D01*
X12413363Y-21112342D01*
X12534063Y-21404460D01*
X12757364Y-21628151D01*
X13049271Y-21749362D01*
X13365342Y-21749637D01*
X13657460Y-21628937D01*
X13723143Y-21563368D01*
X13723143Y-21583000D01*
X13744838Y-21694817D01*
X13723143Y-21803000D01*
X13723143Y-22083000D01*
X13749036Y-22216454D01*
X13826086Y-22333747D01*
X13942403Y-22412263D01*
X14080000Y-22439857D01*
X15280000Y-22439857D01*
X15413454Y-22413964D01*
X15530747Y-22336914D01*
X15609263Y-22220597D01*
X15636857Y-22083000D01*
X15636857Y-21803000D01*
X15615161Y-21691182D01*
X15636857Y-21583000D01*
X15636857Y-21303000D01*
X15615161Y-21191182D01*
X15636857Y-21083000D01*
X15636857Y-20893000D01*
X15752000Y-20893000D01*
X15924207Y-20858746D01*
X15924208Y-20858746D01*
X15940370Y-20847946D01*
X15969582Y-20860076D01*
X15969363Y-21112342D01*
X16090063Y-21404460D01*
X16313364Y-21628151D01*
X16314000Y-21628415D01*
X16314000Y-23558500D01*
X16348254Y-23730708D01*
X16445802Y-23876698D01*
X17263247Y-24694143D01*
X16980000Y-24694143D01*
X16846546Y-24720036D01*
X16729253Y-24797086D01*
X16650737Y-24913403D01*
X16623143Y-25051000D01*
X16623143Y-26651000D01*
X16649036Y-26784454D01*
X16726086Y-26901747D01*
X16842403Y-26980263D01*
X16980000Y-27007857D01*
X18580000Y-27007857D01*
X18713454Y-26981964D01*
X18830747Y-26904914D01*
X18909263Y-26788597D01*
X18936857Y-26651000D01*
X18936857Y-25051000D01*
X18910964Y-24917546D01*
X18833914Y-24800253D01*
X18717597Y-24721737D01*
X18580000Y-24694143D01*
X18230000Y-24694143D01*
X18230000Y-24574500D01*
X18195746Y-24402293D01*
X18195746Y-24402292D01*
X18098198Y-24256302D01*
X17214000Y-23372104D01*
X17214000Y-23213004D01*
X17219086Y-23220747D01*
X17335403Y-23299263D01*
X17473000Y-23326857D01*
X18173000Y-23326857D01*
X18306454Y-23300964D01*
X18423747Y-23223914D01*
X18502263Y-23107597D01*
X18529857Y-22970000D01*
X18529857Y-21870000D01*
X18503964Y-21736546D01*
X18426914Y-21619253D01*
X18310597Y-21540737D01*
X18273000Y-21533197D01*
X18273000Y-20066000D01*
X18273000Y-19107454D01*
X18306454Y-19100964D01*
X18423747Y-19023914D01*
X18502263Y-18907597D01*
X18529857Y-18770000D01*
X18529857Y-17670000D01*
X18503964Y-17536546D01*
X18426914Y-17419253D01*
X18310597Y-17340737D01*
X18173000Y-17313143D01*
X17473000Y-17313143D01*
X17339546Y-17339036D01*
X17222253Y-17416086D01*
X17143737Y-17532403D01*
X17116143Y-17670000D01*
X17116143Y-18770000D01*
X17142036Y-18903454D01*
X17219086Y-19020747D01*
X17335403Y-19099263D01*
X17373000Y-19106802D01*
X17373000Y-19616000D01*
X16802397Y-19616000D01*
X16579636Y-19392849D01*
X16287729Y-19271638D01*
X16257735Y-19271611D01*
X16290746Y-19222208D01*
X16290746Y-19222207D01*
X16325000Y-19050000D01*
X16325000Y-16548397D01*
X16548151Y-16325636D01*
X16669362Y-16033729D01*
X16669637Y-15717658D01*
X16548937Y-15425540D01*
X16325636Y-15201849D01*
X16033729Y-15080638D01*
X15717658Y-15080363D01*
X15425540Y-15201063D01*
X15201849Y-15424364D01*
X15080638Y-15716271D01*
X15080363Y-16032342D01*
X15201063Y-16324460D01*
X15424364Y-16548151D01*
X15425000Y-16548415D01*
X15425000Y-17978734D01*
X15417597Y-17973737D01*
X15280000Y-17946143D01*
X14080000Y-17946143D01*
X13946546Y-17972036D01*
X13914632Y-17993000D01*
X13766283Y-17993000D01*
X13754937Y-17965540D01*
X13577144Y-17787436D01*
X13649263Y-17680597D01*
X13676857Y-17543000D01*
X13676857Y-16383655D01*
X13824707Y-16354246D01*
X13824708Y-16354246D01*
X13970698Y-16256698D01*
X15431198Y-14796198D01*
X15528746Y-14650208D01*
X15528746Y-14650207D01*
X15532793Y-14629857D01*
X15532794Y-14629857D01*
X15563000Y-14629857D01*
X15696454Y-14603964D01*
X15813747Y-14526914D01*
X15892263Y-14410597D01*
X15919857Y-14273000D01*
X15919857Y-13073000D01*
X15893964Y-12939546D01*
X15816914Y-12822253D01*
X15700597Y-12743737D01*
X15563000Y-12716143D01*
X14663000Y-12716143D01*
X14529546Y-12742036D01*
X14420000Y-12813996D01*
X14420000Y-12331114D01*
X14525403Y-12402263D01*
X14663000Y-12429857D01*
X15563000Y-12429857D01*
X15696454Y-12403964D01*
X15813747Y-12326914D01*
X15892263Y-12210597D01*
X15919857Y-12073000D01*
X15919857Y-10873000D01*
X15893964Y-10739546D01*
X15816914Y-10622253D01*
X15700597Y-10543737D01*
X15630653Y-10529710D01*
X15816460Y-10452937D01*
X16040151Y-10229636D01*
X16161362Y-9937729D01*
X16161637Y-9621658D01*
X16040937Y-9329540D01*
X15817636Y-9105849D01*
X15525729Y-8984638D01*
X15209658Y-8984363D01*
X14917540Y-9105063D01*
X14693849Y-9328364D01*
X14604354Y-9543888D01*
X14420636Y-9359849D01*
X14128729Y-9238638D01*
X13812658Y-9238363D01*
X13590201Y-9330279D01*
X13590201Y-7263274D01*
X13413974Y-6836771D01*
X13087945Y-6510173D01*
X12661751Y-6333202D01*
X12200274Y-6332799D01*
X11773771Y-6509026D01*
X11447173Y-6835055D01*
X11430177Y-6875985D01*
X11413974Y-6836771D01*
X11087945Y-6510173D01*
X10661751Y-6333202D01*
X10200274Y-6332799D01*
X9773771Y-6509026D01*
X9447173Y-6835055D01*
X9270202Y-7261249D01*
X9269799Y-7722726D01*
X9446026Y-8149229D01*
X9772055Y-8475827D01*
X9980000Y-8562173D01*
X9980000Y-10516143D01*
X9964000Y-10516143D01*
X9830546Y-10542036D01*
X9713253Y-10619086D01*
X9634737Y-10735403D01*
X9607143Y-10873000D01*
X9607143Y-12073000D01*
X9633036Y-12206454D01*
X9710086Y-12323747D01*
X9826403Y-12402263D01*
X9964000Y-12429857D01*
X10864000Y-12429857D01*
X10997454Y-12403964D01*
X11114747Y-12326914D01*
X11193263Y-12210597D01*
X11220857Y-12073000D01*
X11220857Y-10873000D01*
X11194964Y-10739546D01*
X11117914Y-10622253D01*
X11001597Y-10543737D01*
X10880000Y-10519351D01*
X10880000Y-8562185D01*
X11086229Y-8476974D01*
X11412827Y-8150945D01*
X11429822Y-8110014D01*
X11446026Y-8149229D01*
X11772055Y-8475827D01*
X11980000Y-8562173D01*
X11980000Y-10519247D01*
X11862546Y-10542036D01*
X11745253Y-10619086D01*
X11666737Y-10735403D01*
X11639143Y-10873000D01*
X11639143Y-12073000D01*
X11665036Y-12206454D01*
X11742086Y-12323747D01*
X11858403Y-12402263D01*
X11996000Y-12429857D01*
X12896000Y-12429857D01*
X13029454Y-12403964D01*
X13146747Y-12326914D01*
X13225263Y-12210597D01*
X13252857Y-12073000D01*
X13252857Y-10873000D01*
X13226964Y-10739546D01*
X13149914Y-10622253D01*
X13033597Y-10543737D01*
X12896000Y-10516143D01*
X12880000Y-10516143D01*
X12880000Y-8562185D01*
X13086229Y-8476974D01*
X13412827Y-8150945D01*
X13589798Y-7724751D01*
X13590201Y-7263274D01*
X13590201Y-9330279D01*
X13520540Y-9359063D01*
X13296849Y-9582364D01*
X13175638Y-9874271D01*
X13175363Y-10190342D01*
X13296063Y-10482460D01*
X13519364Y-10706151D01*
X13520000Y-10706415D01*
X13520000Y-13271500D01*
X13554254Y-13443708D01*
X13651802Y-13589698D01*
X14053302Y-13991198D01*
X14199292Y-14088746D01*
X14199293Y-14088746D01*
X14306143Y-14109999D01*
X14306143Y-14273000D01*
X14332036Y-14406454D01*
X14409086Y-14523747D01*
X14422083Y-14532520D01*
X13466104Y-15488500D01*
X13017500Y-15488500D01*
X12845292Y-15522754D01*
X12699302Y-15620302D01*
X12361802Y-15957802D01*
X12338283Y-15993000D01*
X12317500Y-15993000D01*
X12230002Y-16080498D01*
X12230002Y-15993000D01*
X12202396Y-15993000D01*
X12764198Y-15431198D01*
X12861746Y-15285208D01*
X12861747Y-15285207D01*
X12896000Y-15113000D01*
X12896000Y-14629857D01*
X13029454Y-14603964D01*
X13146747Y-14526914D01*
X13225263Y-14410597D01*
X13252857Y-14273000D01*
X13252857Y-13073000D01*
X13226964Y-12939546D01*
X13149914Y-12822253D01*
X13033597Y-12743737D01*
X12896000Y-12716143D01*
X11996000Y-12716143D01*
X11862546Y-12742036D01*
X11745253Y-12819086D01*
X11666737Y-12935403D01*
X11639143Y-13073000D01*
X11639143Y-14273000D01*
X11665036Y-14406454D01*
X11742086Y-14523747D01*
X11858403Y-14602263D01*
X11996000Y-14629857D01*
X11996000Y-14926604D01*
X11366500Y-15556104D01*
X10864000Y-15053604D01*
X10864000Y-14629857D01*
X10997454Y-14603964D01*
X11114747Y-14526914D01*
X11193263Y-14410597D01*
X11220857Y-14273000D01*
X11220857Y-13073000D01*
X11194964Y-12939546D01*
X11117914Y-12822253D01*
X11001597Y-12743737D01*
X10864000Y-12716143D01*
X9964000Y-12716143D01*
X9830546Y-12742036D01*
X9713253Y-12819086D01*
X9634737Y-12935403D01*
X9607143Y-13073000D01*
X9607143Y-14273000D01*
X9633036Y-14406454D01*
X9710086Y-14523747D01*
X9826403Y-14602263D01*
X9964000Y-14629857D01*
X9964000Y-15240000D01*
X9978054Y-15310658D01*
X9589198Y-14921802D01*
X9443208Y-14824254D01*
X9271000Y-14790000D01*
X9090692Y-14790000D01*
X9090692Y-7720237D01*
X9089299Y-7258762D01*
X8915379Y-6838883D01*
X8738990Y-6754721D01*
X8668279Y-6825432D01*
X8668279Y-6684010D01*
X8584117Y-6507621D01*
X8157237Y-6332308D01*
X7695762Y-6333701D01*
X7275883Y-6507621D01*
X7191721Y-6684010D01*
X7930000Y-7422289D01*
X8668279Y-6684010D01*
X8668279Y-6825432D01*
X8000711Y-7493000D01*
X8738990Y-8231279D01*
X8915379Y-8147117D01*
X9090692Y-7720237D01*
X9090692Y-14790000D01*
X8695396Y-14790000D01*
X8668279Y-14762883D01*
X8668279Y-8301990D01*
X7930000Y-7563711D01*
X7859289Y-7634422D01*
X7859289Y-7493000D01*
X7121010Y-6754721D01*
X6944621Y-6838883D01*
X6769308Y-7265763D01*
X6770701Y-7727238D01*
X6944621Y-8147117D01*
X7121010Y-8231279D01*
X7859289Y-7493000D01*
X7859289Y-7634422D01*
X7191721Y-8301990D01*
X7275883Y-8478379D01*
X7702763Y-8653692D01*
X8164238Y-8652299D01*
X8584117Y-8478379D01*
X8668279Y-8301990D01*
X8668279Y-14762883D01*
X8318165Y-14412769D01*
X8372747Y-14376914D01*
X8451263Y-14260597D01*
X8478857Y-14123000D01*
X8478857Y-12923000D01*
X8452964Y-12789546D01*
X8375914Y-12672253D01*
X8259597Y-12593737D01*
X8156192Y-12573000D01*
X8191620Y-12573000D01*
X8320259Y-12519715D01*
X8418716Y-12421259D01*
X8472000Y-12292619D01*
X8472000Y-11760500D01*
X8472000Y-11485500D01*
X8472000Y-10953381D01*
X8418716Y-10824741D01*
X8320259Y-10726285D01*
X8191620Y-10673000D01*
X8052381Y-10673000D01*
X7884500Y-10673000D01*
X7797000Y-10760500D01*
X7797000Y-11573000D01*
X8384500Y-11573000D01*
X8472000Y-11485500D01*
X8472000Y-11760500D01*
X8384500Y-11673000D01*
X7797000Y-11673000D01*
X7797000Y-11693000D01*
X7697000Y-11693000D01*
X7697000Y-11673000D01*
X7697000Y-11573000D01*
X7697000Y-10760500D01*
X7609500Y-10673000D01*
X7441619Y-10673000D01*
X7302380Y-10673000D01*
X7173741Y-10726285D01*
X7075284Y-10824741D01*
X7022000Y-10953381D01*
X7022000Y-11485500D01*
X7109500Y-11573000D01*
X7697000Y-11573000D01*
X7697000Y-11673000D01*
X7109500Y-11673000D01*
X7022000Y-11760500D01*
X7022000Y-12292619D01*
X7075284Y-12421259D01*
X7173741Y-12519715D01*
X7302380Y-12573000D01*
X7336658Y-12573000D01*
X7238546Y-12592036D01*
X7121253Y-12669086D01*
X7042737Y-12785403D01*
X7015143Y-12923000D01*
X7015143Y-14123000D01*
X7041036Y-14256454D01*
X7118086Y-14373747D01*
X7234403Y-14452263D01*
X7297000Y-14464816D01*
X7297000Y-14478000D01*
X7331254Y-14650208D01*
X7428802Y-14796198D01*
X8057604Y-15425000D01*
X7679396Y-15425000D01*
X6714545Y-14460149D01*
X6714545Y-4438647D01*
X6441598Y-3755155D01*
X6414856Y-3715134D01*
X6166768Y-3546943D01*
X6096057Y-3617654D01*
X6096057Y-3476232D01*
X5927866Y-3228144D01*
X5251563Y-2937845D01*
X4515647Y-2928455D01*
X3832155Y-3201402D01*
X3792134Y-3228144D01*
X3623943Y-3476232D01*
X4860000Y-4712289D01*
X6096057Y-3476232D01*
X6096057Y-3617654D01*
X4930711Y-4783000D01*
X6166768Y-6019057D01*
X6414856Y-5850866D01*
X6705155Y-5174563D01*
X6714545Y-4438647D01*
X6714545Y-14460149D01*
X6668198Y-14413802D01*
X6249198Y-13994802D01*
X6103208Y-13897254D01*
X6096057Y-13895831D01*
X6096057Y-6089768D01*
X4860000Y-4853711D01*
X4789289Y-4924422D01*
X4789289Y-4783000D01*
X3553232Y-3546943D01*
X3305144Y-3715134D01*
X3014845Y-4391437D01*
X3005455Y-5127353D01*
X3278402Y-5810845D01*
X3305144Y-5850866D01*
X3553232Y-6019057D01*
X4789289Y-4783000D01*
X4789289Y-4924422D01*
X3623943Y-6089768D01*
X3792134Y-6337856D01*
X4468437Y-6628155D01*
X5204353Y-6637545D01*
X5887845Y-6364598D01*
X5927866Y-6337856D01*
X6096057Y-6089768D01*
X6096057Y-13895831D01*
X5966857Y-13870132D01*
X5966857Y-13713000D01*
X5940964Y-13579546D01*
X5863914Y-13462253D01*
X5747597Y-13383737D01*
X5610000Y-13356143D01*
X5210000Y-13356143D01*
X5210000Y-12415857D01*
X5360000Y-12415857D01*
X5493454Y-12389964D01*
X5610747Y-12312914D01*
X5689263Y-12196597D01*
X5716857Y-12059000D01*
X5716857Y-11309000D01*
X5690964Y-11175546D01*
X5613914Y-11058253D01*
X5497597Y-10979737D01*
X5360000Y-10952143D01*
X4160000Y-10952143D01*
X4026546Y-10978036D01*
X3909253Y-11055086D01*
X3830737Y-11171403D01*
X3810000Y-11274807D01*
X3810000Y-11239380D01*
X3756715Y-11110741D01*
X3658259Y-11012284D01*
X3529619Y-10959000D01*
X2997500Y-10959000D01*
X2910000Y-11046500D01*
X2910000Y-11634000D01*
X2930000Y-11634000D01*
X2930000Y-11734000D01*
X2910000Y-11734000D01*
X2910000Y-12321500D01*
X2997500Y-12409000D01*
X3529619Y-12409000D01*
X3658259Y-12355716D01*
X3756715Y-12257259D01*
X3810000Y-12128620D01*
X3810000Y-12094341D01*
X3829036Y-12192454D01*
X3906086Y-12309747D01*
X4022403Y-12388263D01*
X4160000Y-12415857D01*
X4310000Y-12415857D01*
X4310000Y-13356143D01*
X4210000Y-13356143D01*
X4076546Y-13382036D01*
X3959253Y-13459086D01*
X3880737Y-13575403D01*
X3853143Y-13713000D01*
X3853143Y-14913000D01*
X3879036Y-15046454D01*
X3919687Y-15108338D01*
X3913285Y-15114741D01*
X3860000Y-15243380D01*
X3860000Y-15382619D01*
X3860000Y-15775500D01*
X3947500Y-15863000D01*
X4860000Y-15863000D01*
X4860000Y-15843000D01*
X4960000Y-15843000D01*
X4960000Y-15863000D01*
X5872500Y-15863000D01*
X5960000Y-15775500D01*
X5960000Y-15382619D01*
X5960000Y-15243380D01*
X5906715Y-15114741D01*
X5900296Y-15108322D01*
X5939263Y-15050597D01*
X5954787Y-14973183D01*
X6031802Y-15050198D01*
X7174802Y-16193198D01*
X7320792Y-16290746D01*
X7320793Y-16290746D01*
X7493000Y-16325000D01*
X9084604Y-16325000D01*
X9183143Y-16423539D01*
X9183143Y-17543000D01*
X9209036Y-17676454D01*
X9286086Y-17793747D01*
X9402403Y-17872263D01*
X9540000Y-17899857D01*
X9730000Y-17899857D01*
X9730000Y-17907000D01*
X9730000Y-22225000D01*
X9730000Y-22459000D01*
X9730000Y-22486143D01*
X9540000Y-22486143D01*
X9406546Y-22512036D01*
X9289253Y-22589086D01*
X9210737Y-22705403D01*
X9183143Y-22843000D01*
X9183143Y-24043000D01*
X9209036Y-24176454D01*
X9286086Y-24293747D01*
X9402403Y-24372263D01*
X9540000Y-24399857D01*
X9730000Y-24399857D01*
X9730000Y-24431604D01*
X9719604Y-24442000D01*
X9136857Y-24442000D01*
X9136857Y-22083000D01*
X9136857Y-21803000D01*
X9115161Y-21691182D01*
X9136857Y-21583000D01*
X9136857Y-21303000D01*
X9115161Y-21191182D01*
X9136857Y-21083000D01*
X9136857Y-20803000D01*
X9115161Y-20691182D01*
X9136857Y-20583000D01*
X9136857Y-20303000D01*
X9115161Y-20191182D01*
X9136857Y-20083000D01*
X9136857Y-19803000D01*
X9115161Y-19691182D01*
X9136857Y-19583000D01*
X9136857Y-19303000D01*
X9115161Y-19191182D01*
X9136857Y-19083000D01*
X9136857Y-18803000D01*
X9115161Y-18691182D01*
X9136857Y-18583000D01*
X9136857Y-18303000D01*
X9110964Y-18169546D01*
X9033914Y-18052253D01*
X8917597Y-17973737D01*
X8780000Y-17946143D01*
X7580000Y-17946143D01*
X7446546Y-17972036D01*
X7414632Y-17993000D01*
X7267000Y-17993000D01*
X7094792Y-18027254D01*
X6948802Y-18124802D01*
X5960000Y-19113604D01*
X5960000Y-16582620D01*
X5960000Y-16443381D01*
X5960000Y-16050500D01*
X5872500Y-15963000D01*
X4960000Y-15963000D01*
X4960000Y-16775500D01*
X5047500Y-16863000D01*
X5679619Y-16863000D01*
X5808259Y-16809716D01*
X5906715Y-16711259D01*
X5960000Y-16582620D01*
X5960000Y-19113604D01*
X5838604Y-19235000D01*
X5506874Y-19235000D01*
X5558259Y-19213716D01*
X5656715Y-19115259D01*
X5710000Y-18986620D01*
X5710000Y-18847381D01*
X5710000Y-18679500D01*
X5710000Y-18404500D01*
X5710000Y-18236619D01*
X5710000Y-18097380D01*
X5656715Y-17968741D01*
X5558259Y-17870284D01*
X5429619Y-17817000D01*
X4897500Y-17817000D01*
X4860000Y-17854500D01*
X4860000Y-16775500D01*
X4860000Y-15963000D01*
X3947500Y-15963000D01*
X3860000Y-16050500D01*
X3860000Y-16443381D01*
X3860000Y-16582620D01*
X3913285Y-16711259D01*
X4011741Y-16809716D01*
X4140381Y-16863000D01*
X4772500Y-16863000D01*
X4860000Y-16775500D01*
X4860000Y-17854500D01*
X4810000Y-17904500D01*
X4810000Y-18492000D01*
X5622500Y-18492000D01*
X5710000Y-18404500D01*
X5710000Y-18679500D01*
X5622500Y-18592000D01*
X4810000Y-18592000D01*
X4810000Y-18612000D01*
X4710000Y-18612000D01*
X4710000Y-18592000D01*
X4690000Y-18592000D01*
X4690000Y-18492000D01*
X4710000Y-18492000D01*
X4710000Y-17904500D01*
X4622500Y-17817000D01*
X4090381Y-17817000D01*
X3961741Y-17870284D01*
X3863285Y-17968741D01*
X3810000Y-18097380D01*
X3810000Y-18131658D01*
X3790964Y-18033546D01*
X3713914Y-17916253D01*
X3597597Y-17837737D01*
X3460000Y-17810143D01*
X3310000Y-17810143D01*
X3310000Y-16869857D01*
X3410000Y-16869857D01*
X3543454Y-16843964D01*
X3660747Y-16766914D01*
X3739263Y-16650597D01*
X3766857Y-16513000D01*
X3766857Y-15313000D01*
X3740964Y-15179546D01*
X3700312Y-15117661D01*
X3706715Y-15111259D01*
X3760000Y-14982620D01*
X3760000Y-14843381D01*
X3760000Y-14450500D01*
X3760000Y-14175500D01*
X3760000Y-13782619D01*
X3760000Y-13643380D01*
X3706715Y-13514741D01*
X3608259Y-13416284D01*
X3479619Y-13363000D01*
X2847500Y-13363000D01*
X2810000Y-13400500D01*
X2810000Y-12321500D01*
X2810000Y-11734000D01*
X2810000Y-11634000D01*
X2810000Y-11046500D01*
X2722500Y-10959000D01*
X2190381Y-10959000D01*
X2061741Y-11012284D01*
X1963285Y-11110741D01*
X1910000Y-11239380D01*
X1910000Y-11378619D01*
X1910000Y-11546500D01*
X1997500Y-11634000D01*
X2810000Y-11634000D01*
X2810000Y-11734000D01*
X1997500Y-11734000D01*
X1910000Y-11821500D01*
X1910000Y-11989381D01*
X1910000Y-12128620D01*
X1963285Y-12257259D01*
X2061741Y-12355716D01*
X2190381Y-12409000D01*
X2722500Y-12409000D01*
X2810000Y-12321500D01*
X2810000Y-13400500D01*
X2760000Y-13450500D01*
X2760000Y-14263000D01*
X3672500Y-14263000D01*
X3760000Y-14175500D01*
X3760000Y-14450500D01*
X3672500Y-14363000D01*
X2760000Y-14363000D01*
X2760000Y-14383000D01*
X2660000Y-14383000D01*
X2660000Y-14363000D01*
X2660000Y-14263000D01*
X2660000Y-13450500D01*
X2572500Y-13363000D01*
X1940381Y-13363000D01*
X1811741Y-13416284D01*
X1713285Y-13514741D01*
X1660000Y-13643380D01*
X1660000Y-13782619D01*
X1660000Y-14175500D01*
X1747500Y-14263000D01*
X2660000Y-14263000D01*
X2660000Y-14363000D01*
X1747500Y-14363000D01*
X1660000Y-14450500D01*
X1660000Y-14843381D01*
X1660000Y-14982620D01*
X1713285Y-15111259D01*
X1719703Y-15117677D01*
X1680737Y-15175403D01*
X1653143Y-15313000D01*
X1653143Y-16513000D01*
X1679036Y-16646454D01*
X1756086Y-16763747D01*
X1872403Y-16842263D01*
X2010000Y-16869857D01*
X2410000Y-16869857D01*
X2410000Y-17810143D01*
X2260000Y-17810143D01*
X2126546Y-17836036D01*
X2009253Y-17913086D01*
X1930737Y-18029403D01*
X1903143Y-18167000D01*
X1903143Y-18917000D01*
X1929036Y-19050454D01*
X2006086Y-19167747D01*
X2122403Y-19246263D01*
X2260000Y-19273857D01*
X2416137Y-19273857D01*
X2444254Y-19415208D01*
X2541802Y-19561198D01*
X2983802Y-20003198D01*
X3129792Y-20100746D01*
X3302000Y-20135000D01*
X6025000Y-20135000D01*
X6197207Y-20100746D01*
X6197208Y-20100746D01*
X6343198Y-20003198D01*
X7229683Y-19116712D01*
X7244838Y-19194817D01*
X7223143Y-19303000D01*
X7223143Y-19583000D01*
X7244838Y-19694817D01*
X7223143Y-19803000D01*
X7223143Y-20083000D01*
X7244838Y-20194817D01*
X7223143Y-20303000D01*
X7223143Y-20583000D01*
X7244838Y-20694817D01*
X7223143Y-20803000D01*
X7223143Y-21083000D01*
X7244838Y-21194817D01*
X7223143Y-21303000D01*
X7223143Y-21583000D01*
X7244838Y-21694817D01*
X7223143Y-21803000D01*
X7223143Y-22083000D01*
X7249036Y-22216454D01*
X7326086Y-22333747D01*
X7442403Y-22412263D01*
X7580000Y-22439857D01*
X8780000Y-22439857D01*
X8913454Y-22413964D01*
X9030747Y-22336914D01*
X9109263Y-22220597D01*
X9136857Y-22083000D01*
X9136857Y-24442000D01*
X8070000Y-24442000D01*
X8070000Y-23914397D01*
X8293151Y-23691636D01*
X8414362Y-23399729D01*
X8414637Y-23083658D01*
X8293937Y-22791540D01*
X8070636Y-22567849D01*
X7778729Y-22446638D01*
X7462658Y-22446363D01*
X7170540Y-22567063D01*
X7061653Y-22675760D01*
X7027000Y-22675760D01*
X7027000Y-22098000D01*
X6985134Y-21887524D01*
X6865909Y-21709091D01*
X6865905Y-21709088D01*
X6484909Y-21328091D01*
X6306476Y-21208866D01*
X6096000Y-21167000D01*
X5663672Y-21167000D01*
X5613914Y-21091253D01*
X5497597Y-21012737D01*
X5360000Y-20985143D01*
X4160000Y-20985143D01*
X4026546Y-21011036D01*
X3909253Y-21088086D01*
X3830737Y-21204403D01*
X3810000Y-21307807D01*
X3810000Y-21272380D01*
X3756715Y-21143741D01*
X3658259Y-21045284D01*
X3529619Y-20992000D01*
X2997500Y-20992000D01*
X2910000Y-21079500D01*
X2910000Y-21667000D01*
X2930000Y-21667000D01*
X2930000Y-21767000D01*
X2910000Y-21767000D01*
X2910000Y-22354500D01*
X2997500Y-22442000D01*
X3529619Y-22442000D01*
X3658259Y-22388716D01*
X3756715Y-22290259D01*
X3810000Y-22161620D01*
X3810000Y-22127341D01*
X3829036Y-22225454D01*
X3906086Y-22342747D01*
X4022403Y-22421263D01*
X4160000Y-22448857D01*
X5360000Y-22448857D01*
X5493454Y-22422964D01*
X5610747Y-22345914D01*
X5664015Y-22267000D01*
X5868182Y-22267000D01*
X5927000Y-22325817D01*
X5927000Y-22632182D01*
X5889669Y-22669513D01*
X4390390Y-22669513D01*
X4256936Y-22695406D01*
X4139643Y-22772456D01*
X4061127Y-22888773D01*
X4047841Y-22955023D01*
X3929669Y-22836851D01*
X3751236Y-22717626D01*
X3540760Y-22675760D01*
X3260760Y-22675760D01*
X3229610Y-22669513D01*
X2810000Y-22669513D01*
X2810000Y-22354500D01*
X2810000Y-21767000D01*
X2810000Y-21667000D01*
X2810000Y-21079500D01*
X2722500Y-20992000D01*
X2190381Y-20992000D01*
X2061741Y-21045284D01*
X1963285Y-21143741D01*
X1910000Y-21272380D01*
X1910000Y-21411619D01*
X1910000Y-21579500D01*
X1997500Y-21667000D01*
X2810000Y-21667000D01*
X2810000Y-21767000D01*
X1997500Y-21767000D01*
X1910000Y-21854500D01*
X1910000Y-22022381D01*
X1910000Y-22161620D01*
X1963285Y-22290259D01*
X2061741Y-22388716D01*
X2190381Y-22442000D01*
X2722500Y-22442000D01*
X2810000Y-22354500D01*
X2810000Y-22669513D01*
X1728470Y-22669513D01*
X1595016Y-22695406D01*
X1477723Y-22772456D01*
X1399207Y-22888773D01*
X1371613Y-23026370D01*
X1371613Y-23425150D01*
X1397506Y-23558604D01*
X1398123Y-23559543D01*
X1378470Y-23606991D01*
X1378470Y-23738500D01*
X1465970Y-23826000D01*
X2429040Y-23826000D01*
X2429040Y-23806000D01*
X2529040Y-23806000D01*
X2529040Y-23826000D01*
X2549040Y-23826000D01*
X2549040Y-23926000D01*
X2529040Y-23926000D01*
X2529040Y-23946000D01*
X2429040Y-23946000D01*
X2429040Y-23926000D01*
X1465970Y-23926000D01*
X1378470Y-24013500D01*
X1378470Y-24145009D01*
X1398420Y-24193174D01*
X1371613Y-24326850D01*
X1371613Y-24725630D01*
X1397506Y-24859084D01*
X1474556Y-24976377D01*
X1590873Y-25054893D01*
X1728470Y-25082487D01*
X2968695Y-25082487D01*
X2748039Y-25303143D01*
X2260000Y-25303143D01*
X2126546Y-25329036D01*
X2009253Y-25406086D01*
X1930737Y-25522403D01*
X1903143Y-25660000D01*
X1903143Y-26410000D01*
X1929036Y-26543454D01*
X2006086Y-26660747D01*
X2122403Y-26739263D01*
X2260000Y-26766857D01*
X2310000Y-26766857D01*
X2310000Y-28514000D01*
X2351866Y-28724476D01*
X2471091Y-28902909D01*
X5705845Y-32137663D01*
X5630000Y-32161531D01*
X5630000Y-33973000D01*
X5650000Y-33973000D01*
X5650000Y-34073000D01*
X5630000Y-34073000D01*
X5630000Y-35884469D01*
X5832599Y-35948223D01*
X6031294Y-35893177D01*
X6463883Y-35627594D01*
X6761909Y-35216682D01*
X6836911Y-34903131D01*
X6857866Y-35008476D01*
X6977091Y-35186909D01*
X7739091Y-35948909D01*
X7917524Y-36068134D01*
X8128000Y-36110001D01*
X8128000Y-36110000D01*
X8128005Y-36110000D01*
X14351000Y-36110000D01*
X14561476Y-36068134D01*
X14739909Y-35948909D01*
X15628909Y-35059909D01*
X15748134Y-34881476D01*
X15790000Y-34671000D01*
X15790000Y-32766000D01*
X15748134Y-32555524D01*
X15676788Y-32448748D01*
X15872158Y-32253720D01*
X16041806Y-31845161D01*
X16042192Y-31402780D01*
X16008815Y-31322001D01*
X16009905Y-31320911D01*
X16009909Y-31320909D01*
X16009909Y-31320908D01*
X16046818Y-31284000D01*
X20574000Y-31284000D01*
X20784476Y-31242134D01*
X20962909Y-31122909D01*
X22105909Y-29979909D01*
X22225134Y-29801476D01*
X22267000Y-29591000D01*
X22267000Y-31208697D01*
X22236838Y-31253838D01*
X21998334Y-31413202D01*
X21677603Y-31477000D01*
X19685000Y-31477000D01*
X19646359Y-31484686D01*
X19606965Y-31484686D01*
X19412561Y-31523354D01*
X19412560Y-31523355D01*
X19310600Y-31565588D01*
X19268370Y-31583081D01*
X19268369Y-31583081D01*
X19268368Y-31583082D01*
X19103563Y-31693201D01*
X19103562Y-31693202D01*
X19103561Y-31693203D01*
X18993203Y-31803561D01*
X18993202Y-31803562D01*
X18993201Y-31803563D01*
X18883082Y-31968368D01*
X18883081Y-31968369D01*
X18848094Y-32052834D01*
X18823355Y-32112560D01*
X18823354Y-32112561D01*
X18784686Y-32306964D01*
X18784686Y-32346359D01*
X18777000Y-32385000D01*
X18777000Y-35393604D01*
X18703535Y-35762936D01*
X18580000Y-35947819D01*
X18580000Y-34723000D01*
X18580000Y-34073000D01*
X18580000Y-33973000D01*
X18580000Y-33323000D01*
X18461909Y-32829318D01*
X18163883Y-32418406D01*
X17731294Y-32152823D01*
X17532599Y-32097777D01*
X17330000Y-32161531D01*
X17330000Y-33973000D01*
X18580000Y-33973000D01*
X18580000Y-34073000D01*
X17330000Y-34073000D01*
X17330000Y-35884469D01*
X17532599Y-35948223D01*
X17731294Y-35893177D01*
X18163883Y-35627594D01*
X18461909Y-35216682D01*
X18580000Y-34723000D01*
X18580000Y-35947819D01*
X18516642Y-36042641D01*
X18236935Y-36229535D01*
X17867604Y-36303000D01*
X17230000Y-36303000D01*
X17230000Y-35884469D01*
X17230000Y-34073000D01*
X17230000Y-33973000D01*
X17230000Y-32161531D01*
X17027401Y-32097777D01*
X16828706Y-32152823D01*
X16396117Y-32418406D01*
X16098091Y-32829318D01*
X15980000Y-33323000D01*
X15980000Y-33973000D01*
X17230000Y-33973000D01*
X17230000Y-34073000D01*
X15980000Y-34073000D01*
X15980000Y-34723000D01*
X16098091Y-35216682D01*
X16396117Y-35627594D01*
X16828706Y-35893177D01*
X17027401Y-35948223D01*
X17230000Y-35884469D01*
X17230000Y-36303000D01*
X5530000Y-36303000D01*
X5530000Y-35884469D01*
X5530000Y-34073000D01*
X5530000Y-33973000D01*
X5530000Y-32161531D01*
X5327401Y-32097777D01*
X5128706Y-32152823D01*
X4696117Y-32418406D01*
X4398091Y-32829318D01*
X4280000Y-33323000D01*
X4280000Y-33973000D01*
X5530000Y-33973000D01*
X5530000Y-34073000D01*
X4280000Y-34073000D01*
X4280000Y-34723000D01*
X4398091Y-35216682D01*
X4696117Y-35627594D01*
X5128706Y-35893177D01*
X5327401Y-35948223D01*
X5530000Y-35884469D01*
X5530000Y-36303000D01*
X4865396Y-36303000D01*
X4544665Y-36239202D01*
X4306161Y-36079838D01*
X4146797Y-35841334D01*
X4083000Y-35520603D01*
X4083000Y-32385000D01*
X4075314Y-32346359D01*
X4075314Y-32306965D01*
X4036645Y-32112561D01*
X4036645Y-32112560D01*
X3994411Y-32010600D01*
X3976919Y-31968370D01*
X3976918Y-31968369D01*
X3976918Y-31968368D01*
X3866798Y-31803563D01*
X3866798Y-31803562D01*
X3866797Y-31803561D01*
X3756439Y-31693203D01*
X3756438Y-31693202D01*
X3756436Y-31693201D01*
X3591632Y-31583082D01*
X3591631Y-31583081D01*
X3507166Y-31548094D01*
X3447440Y-31523355D01*
X3447438Y-31523354D01*
X3253036Y-31484686D01*
X3213640Y-31484686D01*
X3175000Y-31477000D01*
X1182396Y-31477000D01*
X861665Y-31413202D01*
X623161Y-31253838D01*
X463797Y-31015334D01*
X400000Y-30694603D01*
X400000Y-4865395D01*
X744148Y-3135242D01*
X1701886Y-1701886D01*
X3135242Y-744148D01*
X4865395Y-400000D01*
X17994604Y-400000D01*
X19724757Y-744148D01*
X21158113Y-1701886D01*
X22115851Y-3135242D01*
X22460000Y-4865395D01*
X22460000Y-30694603D01*
X22460000Y-30694603D01*
G37*
X22460000Y-30694603D02*
X22396202Y-31015334D01*
X22267000Y-31208697D01*
X22267000Y-29591000D01*
X22267000Y-12065000D01*
X22225134Y-11854524D01*
X22105909Y-11676091D01*
X22105905Y-11676088D01*
X20867909Y-10438091D01*
X20689476Y-10318866D01*
X20479000Y-10277000D01*
X20206857Y-10277000D01*
X20206857Y-9827000D01*
X20180964Y-9693546D01*
X20103914Y-9576253D01*
X19987597Y-9497737D01*
X19854545Y-9471054D01*
X19854545Y-4438647D01*
X19581598Y-3755155D01*
X19554856Y-3715134D01*
X19306768Y-3546943D01*
X19236057Y-3617654D01*
X19236057Y-3476232D01*
X19067866Y-3228144D01*
X18391563Y-2937845D01*
X17655647Y-2928455D01*
X16972155Y-3201402D01*
X16932134Y-3228144D01*
X16763943Y-3476232D01*
X18000000Y-4712289D01*
X19236057Y-3476232D01*
X19236057Y-3617654D01*
X18070711Y-4783000D01*
X19306768Y-6019057D01*
X19554856Y-5850866D01*
X19845155Y-5174563D01*
X19854545Y-4438647D01*
X19854545Y-9471054D01*
X19850000Y-9470143D01*
X19589088Y-9470143D01*
X19558134Y-9314524D01*
X19438909Y-9136091D01*
X19236057Y-8933239D01*
X19236057Y-6089768D01*
X18000000Y-4853711D01*
X17929289Y-4924422D01*
X17929289Y-4783000D01*
X16693232Y-3546943D01*
X16445144Y-3715134D01*
X16154845Y-4391437D01*
X16145455Y-5127353D01*
X16418402Y-5810845D01*
X16445144Y-5850866D01*
X16693232Y-6019057D01*
X17929289Y-4783000D01*
X17929289Y-4924422D01*
X16763943Y-6089768D01*
X16932134Y-6337856D01*
X17608437Y-6628155D01*
X18344353Y-6637545D01*
X19027845Y-6364598D01*
X19067866Y-6337856D01*
X19236057Y-6089768D01*
X19236057Y-8933239D01*
X18295909Y-7993091D01*
X18117476Y-7873866D01*
X17907000Y-7832000D01*
X16045264Y-7832000D01*
X16089798Y-7724751D01*
X16090201Y-7263274D01*
X15913974Y-6836771D01*
X15587945Y-6510173D01*
X15161751Y-6333202D01*
X14700274Y-6332799D01*
X14273771Y-6509026D01*
X13947173Y-6835055D01*
X13770202Y-7261249D01*
X13769799Y-7722726D01*
X13946026Y-8149229D01*
X14272055Y-8475827D01*
X14698249Y-8652798D01*
X15114344Y-8653161D01*
X15232088Y-8770905D01*
X15232091Y-8770909D01*
X15232092Y-8770909D01*
X15410524Y-8890134D01*
X15621000Y-8932001D01*
X15621000Y-8932000D01*
X15621005Y-8932000D01*
X17679182Y-8932000D01*
X18222634Y-9475452D01*
X18116546Y-9496036D01*
X17999253Y-9573086D01*
X17920737Y-9689403D01*
X17893143Y-9827000D01*
X17893143Y-11827000D01*
X17919036Y-11960454D01*
X17996086Y-12077747D01*
X18112403Y-12156263D01*
X18250000Y-12183857D01*
X19850000Y-12183857D01*
X19983454Y-12157964D01*
X20100747Y-12080914D01*
X20179263Y-11964597D01*
X20206857Y-11827000D01*
X20206857Y-11377000D01*
X20251182Y-11377000D01*
X21167000Y-12292817D01*
X21167000Y-29363182D01*
X20999857Y-29530325D01*
X20999857Y-28878000D01*
X20999857Y-27678000D01*
X20993000Y-27642658D01*
X20993000Y-26747619D01*
X20993000Y-26215500D01*
X20993000Y-25940500D01*
X20993000Y-25408381D01*
X20939716Y-25279741D01*
X20841259Y-25181285D01*
X20723000Y-25132299D01*
X20723000Y-23039619D01*
X20723000Y-22557500D01*
X20723000Y-22282500D01*
X20723000Y-21800381D01*
X20723000Y-18839619D01*
X20723000Y-18357500D01*
X20723000Y-18082500D01*
X20723000Y-17600381D01*
X20669716Y-17471741D01*
X20571259Y-17373285D01*
X20442620Y-17320000D01*
X20303381Y-17320000D01*
X20200000Y-17320000D01*
X20200000Y-15896619D01*
X20200000Y-14964500D01*
X20200000Y-14689500D01*
X20200000Y-13757381D01*
X20146716Y-13628741D01*
X20048259Y-13530285D01*
X19919620Y-13477000D01*
X19780381Y-13477000D01*
X19187500Y-13477000D01*
X19100000Y-13564500D01*
X19100000Y-14777000D01*
X20112500Y-14777000D01*
X20200000Y-14689500D01*
X20200000Y-14964500D01*
X20112500Y-14877000D01*
X19100000Y-14877000D01*
X19100000Y-16089500D01*
X19187500Y-16177000D01*
X19780381Y-16177000D01*
X19919620Y-16177000D01*
X20048259Y-16123715D01*
X20146716Y-16025259D01*
X20200000Y-15896619D01*
X20200000Y-17320000D01*
X20160500Y-17320000D01*
X20073000Y-17407500D01*
X20073000Y-18170000D01*
X20635500Y-18170000D01*
X20723000Y-18082500D01*
X20723000Y-18357500D01*
X20635500Y-18270000D01*
X20073000Y-18270000D01*
X20073000Y-19032500D01*
X20160500Y-19120000D01*
X20303381Y-19120000D01*
X20442620Y-19120000D01*
X20571259Y-19066715D01*
X20669716Y-18968259D01*
X20723000Y-18839619D01*
X20723000Y-21800381D01*
X20669716Y-21671741D01*
X20571259Y-21573285D01*
X20442620Y-21520000D01*
X20303381Y-21520000D01*
X20160500Y-21520000D01*
X20073000Y-21607500D01*
X20073000Y-22370000D01*
X20635500Y-22370000D01*
X20723000Y-22282500D01*
X20723000Y-22557500D01*
X20635500Y-22470000D01*
X20073000Y-22470000D01*
X20073000Y-23232500D01*
X20160500Y-23320000D01*
X20303381Y-23320000D01*
X20442620Y-23320000D01*
X20571259Y-23266715D01*
X20669716Y-23168259D01*
X20723000Y-23039619D01*
X20723000Y-25132299D01*
X20712620Y-25128000D01*
X20573381Y-25128000D01*
X20330500Y-25128000D01*
X20243000Y-25215500D01*
X20243000Y-26028000D01*
X20905500Y-26028000D01*
X20993000Y-25940500D01*
X20993000Y-26215500D01*
X20905500Y-26128000D01*
X20243000Y-26128000D01*
X20243000Y-26940500D01*
X20330500Y-27028000D01*
X20573381Y-27028000D01*
X20712620Y-27028000D01*
X20841259Y-26974715D01*
X20939716Y-26876259D01*
X20993000Y-26747619D01*
X20993000Y-27642658D01*
X20973964Y-27544546D01*
X20896914Y-27427253D01*
X20780597Y-27348737D01*
X20643000Y-27321143D01*
X20143000Y-27321143D01*
X20143000Y-26940500D01*
X20143000Y-26128000D01*
X20143000Y-26028000D01*
X20143000Y-25215500D01*
X20055500Y-25128000D01*
X19973000Y-25128000D01*
X19973000Y-23232500D01*
X19973000Y-22470000D01*
X19973000Y-22370000D01*
X19973000Y-21607500D01*
X19973000Y-19032500D01*
X19973000Y-18270000D01*
X19973000Y-18170000D01*
X19973000Y-17407500D01*
X19885500Y-17320000D01*
X19742619Y-17320000D01*
X19603380Y-17320000D01*
X19474741Y-17373285D01*
X19376284Y-17471741D01*
X19323000Y-17600381D01*
X19323000Y-18082500D01*
X19410500Y-18170000D01*
X19973000Y-18170000D01*
X19973000Y-18270000D01*
X19410500Y-18270000D01*
X19323000Y-18357500D01*
X19323000Y-18839619D01*
X19376284Y-18968259D01*
X19474741Y-19066715D01*
X19603380Y-19120000D01*
X19742619Y-19120000D01*
X19885500Y-19120000D01*
X19973000Y-19032500D01*
X19973000Y-21607500D01*
X19885500Y-21520000D01*
X19742619Y-21520000D01*
X19603380Y-21520000D01*
X19474741Y-21573285D01*
X19376284Y-21671741D01*
X19323000Y-21800381D01*
X19323000Y-22282500D01*
X19410500Y-22370000D01*
X19973000Y-22370000D01*
X19973000Y-22470000D01*
X19410500Y-22470000D01*
X19323000Y-22557500D01*
X19323000Y-23039619D01*
X19376284Y-23168259D01*
X19474741Y-23266715D01*
X19603380Y-23320000D01*
X19742619Y-23320000D01*
X19885500Y-23320000D01*
X19973000Y-23232500D01*
X19973000Y-25128000D01*
X19812619Y-25128000D01*
X19673380Y-25128000D01*
X19544741Y-25181285D01*
X19446284Y-25279741D01*
X19393000Y-25408381D01*
X19393000Y-25940500D01*
X19480500Y-26028000D01*
X20143000Y-26028000D01*
X20143000Y-26128000D01*
X19480500Y-26128000D01*
X19393000Y-26215500D01*
X19393000Y-26747619D01*
X19446284Y-26876259D01*
X19544741Y-26974715D01*
X19673380Y-27028000D01*
X19812619Y-27028000D01*
X20055500Y-27028000D01*
X20143000Y-26940500D01*
X20143000Y-27321143D01*
X19743000Y-27321143D01*
X19609546Y-27347036D01*
X19492253Y-27424086D01*
X19413737Y-27540403D01*
X19386143Y-27678000D01*
X19386143Y-27701000D01*
X19000000Y-27701000D01*
X19000000Y-16089500D01*
X19000000Y-14877000D01*
X19000000Y-14777000D01*
X19000000Y-13564500D01*
X18912500Y-13477000D01*
X18319619Y-13477000D01*
X18180380Y-13477000D01*
X18051741Y-13530285D01*
X17953284Y-13628741D01*
X17900000Y-13757381D01*
X17900000Y-14689500D01*
X17987500Y-14777000D01*
X19000000Y-14777000D01*
X19000000Y-14877000D01*
X17987500Y-14877000D01*
X17900000Y-14964500D01*
X17900000Y-15896619D01*
X17953284Y-16025259D01*
X18051741Y-16123715D01*
X18180380Y-16177000D01*
X18319619Y-16177000D01*
X18912500Y-16177000D01*
X19000000Y-16089500D01*
X19000000Y-27701000D01*
X18936857Y-27701000D01*
X18936857Y-27451000D01*
X18910964Y-27317546D01*
X18833914Y-27200253D01*
X18717597Y-27121737D01*
X18580000Y-27094143D01*
X16980000Y-27094143D01*
X16846546Y-27120036D01*
X16729253Y-27197086D01*
X16650737Y-27313403D01*
X16623143Y-27451000D01*
X16623143Y-29051000D01*
X16649036Y-29184454D01*
X16726086Y-29301747D01*
X16842403Y-29380263D01*
X16980000Y-29407857D01*
X18580000Y-29407857D01*
X18713454Y-29381964D01*
X18830747Y-29304914D01*
X18909263Y-29188597D01*
X18936857Y-29051000D01*
X18936857Y-28601000D01*
X19386143Y-28601000D01*
X19386143Y-28878000D01*
X19412036Y-29011454D01*
X19489086Y-29128747D01*
X19605403Y-29207263D01*
X19743000Y-29234857D01*
X20643000Y-29234857D01*
X20776454Y-29208964D01*
X20893747Y-29131914D01*
X20972263Y-29015597D01*
X20999857Y-28878000D01*
X20999857Y-29530325D01*
X20346182Y-30184000D01*
X15819000Y-30184000D01*
X15608524Y-30225866D01*
X15430091Y-30345091D01*
X15232091Y-30543091D01*
X15232088Y-30543094D01*
X15231178Y-30544004D01*
X15152161Y-30511194D01*
X14709780Y-30510808D01*
X14300926Y-30679743D01*
X13987842Y-30992280D01*
X13818194Y-31400839D01*
X13817808Y-31843220D01*
X13986743Y-32252074D01*
X14299280Y-32565158D01*
X14410934Y-32611521D01*
X14421866Y-32666476D01*
X14541091Y-32844909D01*
X14690000Y-32993818D01*
X14690000Y-34443182D01*
X14580156Y-34553026D01*
X14580156Y-33844764D01*
X14443428Y-33513857D01*
X14190475Y-33260462D01*
X13859806Y-33123157D01*
X13676857Y-33122997D01*
X13676857Y-24043000D01*
X13676857Y-22843000D01*
X13650964Y-22709546D01*
X13573914Y-22592253D01*
X13457597Y-22513737D01*
X13320000Y-22486143D01*
X13040000Y-22486143D01*
X12928182Y-22507838D01*
X12820000Y-22486143D01*
X12540000Y-22486143D01*
X12428182Y-22507838D01*
X12320000Y-22486143D01*
X12040000Y-22486143D01*
X11928182Y-22507838D01*
X11820000Y-22486143D01*
X11540000Y-22486143D01*
X11428182Y-22507838D01*
X11320000Y-22486143D01*
X11040000Y-22486143D01*
X10926315Y-22508200D01*
X10889620Y-22493000D01*
X10817500Y-22493000D01*
X10730000Y-22580500D01*
X10730000Y-22676865D01*
X10710737Y-22705403D01*
X10683143Y-22843000D01*
X10683143Y-24043000D01*
X10709036Y-24176454D01*
X10730000Y-24208367D01*
X10730000Y-24305500D01*
X10817500Y-24393000D01*
X10889620Y-24393000D01*
X10927521Y-24377300D01*
X11040000Y-24399857D01*
X11320000Y-24399857D01*
X11431817Y-24378161D01*
X11540000Y-24399857D01*
X11820000Y-24399857D01*
X11931817Y-24378161D01*
X12040000Y-24399857D01*
X12320000Y-24399857D01*
X12431817Y-24378161D01*
X12540000Y-24399857D01*
X12820000Y-24399857D01*
X12931817Y-24378161D01*
X13040000Y-24399857D01*
X13320000Y-24399857D01*
X13453454Y-24373964D01*
X13570747Y-24296914D01*
X13649263Y-24180597D01*
X13676857Y-24043000D01*
X13676857Y-33122997D01*
X13542192Y-33122879D01*
X13542192Y-31402780D01*
X13373257Y-30993926D01*
X13060720Y-30680842D01*
X12652161Y-30511194D01*
X12209780Y-30510808D01*
X11800926Y-30679743D01*
X11487842Y-30992280D01*
X11430067Y-31131417D01*
X11373257Y-30993926D01*
X11060720Y-30680842D01*
X10652161Y-30511194D01*
X10209780Y-30510808D01*
X9800926Y-30679743D01*
X9487842Y-30992280D01*
X9318194Y-31400839D01*
X9317808Y-31843220D01*
X9486743Y-32252074D01*
X9799280Y-32565158D01*
X10207839Y-32734806D01*
X10650220Y-32735192D01*
X11059074Y-32566257D01*
X11372158Y-32253720D01*
X11429932Y-32114582D01*
X11486743Y-32252074D01*
X11799280Y-32565158D01*
X12207839Y-32734806D01*
X12650220Y-32735192D01*
X13059074Y-32566257D01*
X13372158Y-32253720D01*
X13541806Y-31845161D01*
X13542192Y-31402780D01*
X13542192Y-33122879D01*
X13501764Y-33122844D01*
X13170857Y-33259572D01*
X12917462Y-33512525D01*
X12780157Y-33843194D01*
X12779844Y-34201236D01*
X12916572Y-34532143D01*
X13169525Y-34785538D01*
X13500194Y-34922843D01*
X13858236Y-34923156D01*
X14189143Y-34786428D01*
X14442538Y-34533475D01*
X14579843Y-34202806D01*
X14580156Y-33844764D01*
X14580156Y-34553026D01*
X14123182Y-35010000D01*
X10080156Y-35010000D01*
X10080156Y-33844764D01*
X9943428Y-33513857D01*
X9690475Y-33260462D01*
X9359806Y-33123157D01*
X9043058Y-33122880D01*
X9043058Y-31838801D01*
X9040915Y-31396425D01*
X8875748Y-30997677D01*
X8704346Y-30919365D01*
X8633635Y-30990076D01*
X8633635Y-30848654D01*
X8555323Y-30677252D01*
X8145801Y-30509942D01*
X7837000Y-30511437D01*
X7837000Y-29178619D01*
X7837000Y-28646500D01*
X7749500Y-28559000D01*
X7162000Y-28559000D01*
X7162000Y-29371500D01*
X7249500Y-29459000D01*
X7417381Y-29459000D01*
X7556620Y-29459000D01*
X7685259Y-29405715D01*
X7783716Y-29307259D01*
X7837000Y-29178619D01*
X7837000Y-30511437D01*
X7703425Y-30512085D01*
X7304677Y-30677252D01*
X7226365Y-30848654D01*
X7930000Y-31552289D01*
X8633635Y-30848654D01*
X8633635Y-30990076D01*
X8000711Y-31623000D01*
X8704346Y-32326635D01*
X8875748Y-32248323D01*
X9043058Y-31838801D01*
X9043058Y-33122880D01*
X9001764Y-33122844D01*
X8670857Y-33259572D01*
X8417462Y-33512525D01*
X8280157Y-33843194D01*
X8279844Y-34201236D01*
X8416572Y-34532143D01*
X8669525Y-34785538D01*
X9000194Y-34922843D01*
X9358236Y-34923156D01*
X9689143Y-34786428D01*
X9942538Y-34533475D01*
X10079843Y-34202806D01*
X10080156Y-33844764D01*
X10080156Y-35010000D01*
X8355818Y-35010000D01*
X7916000Y-34570182D01*
X7916000Y-33020000D01*
X7874134Y-32809524D01*
X7824688Y-32735522D01*
X8156575Y-32733915D01*
X8555323Y-32568748D01*
X8633635Y-32397346D01*
X7930000Y-31693711D01*
X7915857Y-31707852D01*
X7845146Y-31637141D01*
X7859289Y-31623000D01*
X7155654Y-30919365D01*
X7062000Y-30962154D01*
X7062000Y-29371500D01*
X7062000Y-28559000D01*
X6474500Y-28559000D01*
X6387000Y-28646500D01*
X6387000Y-29178619D01*
X6440284Y-29307259D01*
X6538741Y-29405715D01*
X6667380Y-29459000D01*
X6806619Y-29459000D01*
X6974500Y-29459000D01*
X7062000Y-29371500D01*
X7062000Y-30962154D01*
X6984252Y-30997677D01*
X6816942Y-31407199D01*
X6818333Y-31694515D01*
X5710000Y-30586182D01*
X5710000Y-26479620D01*
X5710000Y-26340381D01*
X5710000Y-26172500D01*
X5710000Y-25897500D01*
X5710000Y-25729619D01*
X5710000Y-25590380D01*
X5656715Y-25461741D01*
X5558259Y-25363284D01*
X5429619Y-25310000D01*
X4897500Y-25310000D01*
X4810000Y-25397500D01*
X4810000Y-25985000D01*
X5622500Y-25985000D01*
X5710000Y-25897500D01*
X5710000Y-26172500D01*
X5622500Y-26085000D01*
X4810000Y-26085000D01*
X4810000Y-26672500D01*
X4897500Y-26760000D01*
X5429619Y-26760000D01*
X5558259Y-26706716D01*
X5656715Y-26608259D01*
X5710000Y-26479620D01*
X5710000Y-30586182D01*
X3410000Y-28286182D01*
X3410000Y-26766857D01*
X3460000Y-26766857D01*
X3593454Y-26740964D01*
X3710747Y-26663914D01*
X3789263Y-26547597D01*
X3810000Y-26444192D01*
X3810000Y-26479620D01*
X3863285Y-26608259D01*
X3961741Y-26706716D01*
X4090381Y-26760000D01*
X4622500Y-26760000D01*
X4710000Y-26672500D01*
X4710000Y-26085000D01*
X4690000Y-26085000D01*
X4690000Y-25985000D01*
X4710000Y-25985000D01*
X4710000Y-25397500D01*
X4622500Y-25310000D01*
X4264329Y-25310000D01*
X4318134Y-25229476D01*
X4349021Y-25074190D01*
X4390390Y-25082487D01*
X5891530Y-25082487D01*
X6024984Y-25056594D01*
X6142277Y-24979544D01*
X6220793Y-24863227D01*
X6248387Y-24725630D01*
X6248387Y-24326850D01*
X6223589Y-24199042D01*
X6248387Y-24075390D01*
X6248387Y-23775760D01*
X6334760Y-23775760D01*
X7031214Y-23775760D01*
X7169364Y-23914151D01*
X7170000Y-23914415D01*
X7170000Y-24638000D01*
X7170000Y-24959604D01*
X6793802Y-25335802D01*
X6696254Y-25481792D01*
X6662000Y-25654000D01*
X6662000Y-25666694D01*
X6603546Y-25678036D01*
X6486253Y-25755086D01*
X6407737Y-25871403D01*
X6380143Y-26009000D01*
X6380143Y-27209000D01*
X6406036Y-27342454D01*
X6483086Y-27459747D01*
X6599403Y-27538263D01*
X6702807Y-27559000D01*
X6667380Y-27559000D01*
X6538741Y-27612285D01*
X6440284Y-27710741D01*
X6387000Y-27839381D01*
X6387000Y-28371500D01*
X6474500Y-28459000D01*
X7062000Y-28459000D01*
X7062000Y-28439000D01*
X7162000Y-28439000D01*
X7162000Y-28459000D01*
X7749500Y-28459000D01*
X7837000Y-28371500D01*
X7837000Y-27839381D01*
X7783716Y-27710741D01*
X7685259Y-27612285D01*
X7556620Y-27559000D01*
X7522341Y-27559000D01*
X7620454Y-27539964D01*
X7737747Y-27462914D01*
X7816263Y-27346597D01*
X7843857Y-27209000D01*
X7843857Y-26009000D01*
X7817964Y-25875546D01*
X7740914Y-25758253D01*
X7683140Y-25719255D01*
X7938198Y-25464198D01*
X8019848Y-25342000D01*
X9906000Y-25342000D01*
X10078207Y-25307746D01*
X10078208Y-25307746D01*
X10224198Y-25210198D01*
X10498198Y-24936198D01*
X10595746Y-24790208D01*
X10595747Y-24790207D01*
X10630000Y-24618000D01*
X10630000Y-24305500D01*
X10630000Y-24209134D01*
X10649263Y-24180597D01*
X10676857Y-24043000D01*
X10676857Y-22843000D01*
X10650964Y-22709546D01*
X10630000Y-22677632D01*
X10630000Y-22580500D01*
X10630000Y-22459000D01*
X10630000Y-22225000D01*
X10630000Y-17907000D01*
X10630000Y-17899857D01*
X10820000Y-17899857D01*
X10931817Y-17878161D01*
X11040000Y-17899857D01*
X11320000Y-17899857D01*
X11431817Y-17878161D01*
X11540000Y-17899857D01*
X11820000Y-17899857D01*
X11933684Y-17877799D01*
X11970380Y-17893000D01*
X12042500Y-17893000D01*
X12130000Y-17805500D01*
X12130000Y-17709134D01*
X12149263Y-17680597D01*
X12176857Y-17543000D01*
X12176857Y-16873000D01*
X12183143Y-16873000D01*
X12183143Y-17543000D01*
X12209036Y-17676454D01*
X12230000Y-17708367D01*
X12230000Y-17805500D01*
X12317500Y-17893000D01*
X12389620Y-17893000D01*
X12427521Y-17877300D01*
X12483765Y-17888579D01*
X12407849Y-17964364D01*
X12286638Y-18256271D01*
X12286363Y-18572342D01*
X12312915Y-18636605D01*
X12034658Y-18636363D01*
X11742540Y-18757063D01*
X11518849Y-18980364D01*
X11397638Y-19272271D01*
X11397363Y-19588342D01*
X11518063Y-19880460D01*
X11741364Y-20104151D01*
X12033271Y-20225362D01*
X12349342Y-20225637D01*
X12641460Y-20104937D01*
X12865151Y-19881636D01*
X12891782Y-19817500D01*
X13201104Y-19817500D01*
X12889802Y-20128802D01*
X12799324Y-20264211D01*
X12799323Y-20264211D01*
X12758540Y-20281063D01*
X12534849Y-20504364D01*
X12413638Y-20796271D01*
X12413363Y-21112342D01*
X12534063Y-21404460D01*
X12757364Y-21628151D01*
X13049271Y-21749362D01*
X13365342Y-21749637D01*
X13657460Y-21628937D01*
X13723143Y-21563368D01*
X13723143Y-21583000D01*
X13744838Y-21694817D01*
X13723143Y-21803000D01*
X13723143Y-22083000D01*
X13749036Y-22216454D01*
X13826086Y-22333747D01*
X13942403Y-22412263D01*
X14080000Y-22439857D01*
X15280000Y-22439857D01*
X15413454Y-22413964D01*
X15530747Y-22336914D01*
X15609263Y-22220597D01*
X15636857Y-22083000D01*
X15636857Y-21803000D01*
X15615161Y-21691182D01*
X15636857Y-21583000D01*
X15636857Y-21303000D01*
X15615161Y-21191182D01*
X15636857Y-21083000D01*
X15636857Y-20893000D01*
X15752000Y-20893000D01*
X15924207Y-20858746D01*
X15924208Y-20858746D01*
X15940370Y-20847946D01*
X15969582Y-20860076D01*
X15969363Y-21112342D01*
X16090063Y-21404460D01*
X16313364Y-21628151D01*
X16314000Y-21628415D01*
X16314000Y-23558500D01*
X16348254Y-23730708D01*
X16445802Y-23876698D01*
X17263247Y-24694143D01*
X16980000Y-24694143D01*
X16846546Y-24720036D01*
X16729253Y-24797086D01*
X16650737Y-24913403D01*
X16623143Y-25051000D01*
X16623143Y-26651000D01*
X16649036Y-26784454D01*
X16726086Y-26901747D01*
X16842403Y-26980263D01*
X16980000Y-27007857D01*
X18580000Y-27007857D01*
X18713454Y-26981964D01*
X18830747Y-26904914D01*
X18909263Y-26788597D01*
X18936857Y-26651000D01*
X18936857Y-25051000D01*
X18910964Y-24917546D01*
X18833914Y-24800253D01*
X18717597Y-24721737D01*
X18580000Y-24694143D01*
X18230000Y-24694143D01*
X18230000Y-24574500D01*
X18195746Y-24402293D01*
X18195746Y-24402292D01*
X18098198Y-24256302D01*
X17214000Y-23372104D01*
X17214000Y-23213004D01*
X17219086Y-23220747D01*
X17335403Y-23299263D01*
X17473000Y-23326857D01*
X18173000Y-23326857D01*
X18306454Y-23300964D01*
X18423747Y-23223914D01*
X18502263Y-23107597D01*
X18529857Y-22970000D01*
X18529857Y-21870000D01*
X18503964Y-21736546D01*
X18426914Y-21619253D01*
X18310597Y-21540737D01*
X18273000Y-21533197D01*
X18273000Y-20066000D01*
X18273000Y-19107454D01*
X18306454Y-19100964D01*
X18423747Y-19023914D01*
X18502263Y-18907597D01*
X18529857Y-18770000D01*
X18529857Y-17670000D01*
X18503964Y-17536546D01*
X18426914Y-17419253D01*
X18310597Y-17340737D01*
X18173000Y-17313143D01*
X17473000Y-17313143D01*
X17339546Y-17339036D01*
X17222253Y-17416086D01*
X17143737Y-17532403D01*
X17116143Y-17670000D01*
X17116143Y-18770000D01*
X17142036Y-18903454D01*
X17219086Y-19020747D01*
X17335403Y-19099263D01*
X17373000Y-19106802D01*
X17373000Y-19616000D01*
X16802397Y-19616000D01*
X16579636Y-19392849D01*
X16287729Y-19271638D01*
X16257735Y-19271611D01*
X16290746Y-19222208D01*
X16290746Y-19222207D01*
X16325000Y-19050000D01*
X16325000Y-16548397D01*
X16548151Y-16325636D01*
X16669362Y-16033729D01*
X16669637Y-15717658D01*
X16548937Y-15425540D01*
X16325636Y-15201849D01*
X16033729Y-15080638D01*
X15717658Y-15080363D01*
X15425540Y-15201063D01*
X15201849Y-15424364D01*
X15080638Y-15716271D01*
X15080363Y-16032342D01*
X15201063Y-16324460D01*
X15424364Y-16548151D01*
X15425000Y-16548415D01*
X15425000Y-17978734D01*
X15417597Y-17973737D01*
X15280000Y-17946143D01*
X14080000Y-17946143D01*
X13946546Y-17972036D01*
X13914632Y-17993000D01*
X13766283Y-17993000D01*
X13754937Y-17965540D01*
X13577144Y-17787436D01*
X13649263Y-17680597D01*
X13676857Y-17543000D01*
X13676857Y-16383655D01*
X13824707Y-16354246D01*
X13824708Y-16354246D01*
X13970698Y-16256698D01*
X15431198Y-14796198D01*
X15528746Y-14650208D01*
X15528746Y-14650207D01*
X15532793Y-14629857D01*
X15532794Y-14629857D01*
X15563000Y-14629857D01*
X15696454Y-14603964D01*
X15813747Y-14526914D01*
X15892263Y-14410597D01*
X15919857Y-14273000D01*
X15919857Y-13073000D01*
X15893964Y-12939546D01*
X15816914Y-12822253D01*
X15700597Y-12743737D01*
X15563000Y-12716143D01*
X14663000Y-12716143D01*
X14529546Y-12742036D01*
X14420000Y-12813996D01*
X14420000Y-12331114D01*
X14525403Y-12402263D01*
X14663000Y-12429857D01*
X15563000Y-12429857D01*
X15696454Y-12403964D01*
X15813747Y-12326914D01*
X15892263Y-12210597D01*
X15919857Y-12073000D01*
X15919857Y-10873000D01*
X15893964Y-10739546D01*
X15816914Y-10622253D01*
X15700597Y-10543737D01*
X15630653Y-10529710D01*
X15816460Y-10452937D01*
X16040151Y-10229636D01*
X16161362Y-9937729D01*
X16161637Y-9621658D01*
X16040937Y-9329540D01*
X15817636Y-9105849D01*
X15525729Y-8984638D01*
X15209658Y-8984363D01*
X14917540Y-9105063D01*
X14693849Y-9328364D01*
X14604354Y-9543888D01*
X14420636Y-9359849D01*
X14128729Y-9238638D01*
X13812658Y-9238363D01*
X13590201Y-9330279D01*
X13590201Y-7263274D01*
X13413974Y-6836771D01*
X13087945Y-6510173D01*
X12661751Y-6333202D01*
X12200274Y-6332799D01*
X11773771Y-6509026D01*
X11447173Y-6835055D01*
X11430177Y-6875985D01*
X11413974Y-6836771D01*
X11087945Y-6510173D01*
X10661751Y-6333202D01*
X10200274Y-6332799D01*
X9773771Y-6509026D01*
X9447173Y-6835055D01*
X9270202Y-7261249D01*
X9269799Y-7722726D01*
X9446026Y-8149229D01*
X9772055Y-8475827D01*
X9980000Y-8562173D01*
X9980000Y-10516143D01*
X9964000Y-10516143D01*
X9830546Y-10542036D01*
X9713253Y-10619086D01*
X9634737Y-10735403D01*
X9607143Y-10873000D01*
X9607143Y-12073000D01*
X9633036Y-12206454D01*
X9710086Y-12323747D01*
X9826403Y-12402263D01*
X9964000Y-12429857D01*
X10864000Y-12429857D01*
X10997454Y-12403964D01*
X11114747Y-12326914D01*
X11193263Y-12210597D01*
X11220857Y-12073000D01*
X11220857Y-10873000D01*
X11194964Y-10739546D01*
X11117914Y-10622253D01*
X11001597Y-10543737D01*
X10880000Y-10519351D01*
X10880000Y-8562185D01*
X11086229Y-8476974D01*
X11412827Y-8150945D01*
X11429822Y-8110014D01*
X11446026Y-8149229D01*
X11772055Y-8475827D01*
X11980000Y-8562173D01*
X11980000Y-10519247D01*
X11862546Y-10542036D01*
X11745253Y-10619086D01*
X11666737Y-10735403D01*
X11639143Y-10873000D01*
X11639143Y-12073000D01*
X11665036Y-12206454D01*
X11742086Y-12323747D01*
X11858403Y-12402263D01*
X11996000Y-12429857D01*
X12896000Y-12429857D01*
X13029454Y-12403964D01*
X13146747Y-12326914D01*
X13225263Y-12210597D01*
X13252857Y-12073000D01*
X13252857Y-10873000D01*
X13226964Y-10739546D01*
X13149914Y-10622253D01*
X13033597Y-10543737D01*
X12896000Y-10516143D01*
X12880000Y-10516143D01*
X12880000Y-8562185D01*
X13086229Y-8476974D01*
X13412827Y-8150945D01*
X13589798Y-7724751D01*
X13590201Y-7263274D01*
X13590201Y-9330279D01*
X13520540Y-9359063D01*
X13296849Y-9582364D01*
X13175638Y-9874271D01*
X13175363Y-10190342D01*
X13296063Y-10482460D01*
X13519364Y-10706151D01*
X13520000Y-10706415D01*
X13520000Y-13271500D01*
X13554254Y-13443708D01*
X13651802Y-13589698D01*
X14053302Y-13991198D01*
X14199292Y-14088746D01*
X14199293Y-14088746D01*
X14306143Y-14109999D01*
X14306143Y-14273000D01*
X14332036Y-14406454D01*
X14409086Y-14523747D01*
X14422083Y-14532520D01*
X13466104Y-15488500D01*
X13017500Y-15488500D01*
X12845292Y-15522754D01*
X12699302Y-15620302D01*
X12361802Y-15957802D01*
X12338283Y-15993000D01*
X12317500Y-15993000D01*
X12230002Y-16080498D01*
X12230002Y-15993000D01*
X12202396Y-15993000D01*
X12764198Y-15431198D01*
X12861746Y-15285208D01*
X12861747Y-15285207D01*
X12896000Y-15113000D01*
X12896000Y-14629857D01*
X13029454Y-14603964D01*
X13146747Y-14526914D01*
X13225263Y-14410597D01*
X13252857Y-14273000D01*
X13252857Y-13073000D01*
X13226964Y-12939546D01*
X13149914Y-12822253D01*
X13033597Y-12743737D01*
X12896000Y-12716143D01*
X11996000Y-12716143D01*
X11862546Y-12742036D01*
X11745253Y-12819086D01*
X11666737Y-12935403D01*
X11639143Y-13073000D01*
X11639143Y-14273000D01*
X11665036Y-14406454D01*
X11742086Y-14523747D01*
X11858403Y-14602263D01*
X11996000Y-14629857D01*
X11996000Y-14926604D01*
X11366500Y-15556104D01*
X10864000Y-15053604D01*
X10864000Y-14629857D01*
X10997454Y-14603964D01*
X11114747Y-14526914D01*
X11193263Y-14410597D01*
X11220857Y-14273000D01*
X11220857Y-13073000D01*
X11194964Y-12939546D01*
X11117914Y-12822253D01*
X11001597Y-12743737D01*
X10864000Y-12716143D01*
X9964000Y-12716143D01*
X9830546Y-12742036D01*
X9713253Y-12819086D01*
X9634737Y-12935403D01*
X9607143Y-13073000D01*
X9607143Y-14273000D01*
X9633036Y-14406454D01*
X9710086Y-14523747D01*
X9826403Y-14602263D01*
X9964000Y-14629857D01*
X9964000Y-15240000D01*
X9978054Y-15310658D01*
X9589198Y-14921802D01*
X9443208Y-14824254D01*
X9271000Y-14790000D01*
X9090692Y-14790000D01*
X9090692Y-7720237D01*
X9089299Y-7258762D01*
X8915379Y-6838883D01*
X8738990Y-6754721D01*
X8668279Y-6825432D01*
X8668279Y-6684010D01*
X8584117Y-6507621D01*
X8157237Y-6332308D01*
X7695762Y-6333701D01*
X7275883Y-6507621D01*
X7191721Y-6684010D01*
X7930000Y-7422289D01*
X8668279Y-6684010D01*
X8668279Y-6825432D01*
X8000711Y-7493000D01*
X8738990Y-8231279D01*
X8915379Y-8147117D01*
X9090692Y-7720237D01*
X9090692Y-14790000D01*
X8695396Y-14790000D01*
X8668279Y-14762883D01*
X8668279Y-8301990D01*
X7930000Y-7563711D01*
X7859289Y-7634422D01*
X7859289Y-7493000D01*
X7121010Y-6754721D01*
X6944621Y-6838883D01*
X6769308Y-7265763D01*
X6770701Y-7727238D01*
X6944621Y-8147117D01*
X7121010Y-8231279D01*
X7859289Y-7493000D01*
X7859289Y-7634422D01*
X7191721Y-8301990D01*
X7275883Y-8478379D01*
X7702763Y-8653692D01*
X8164238Y-8652299D01*
X8584117Y-8478379D01*
X8668279Y-8301990D01*
X8668279Y-14762883D01*
X8318165Y-14412769D01*
X8372747Y-14376914D01*
X8451263Y-14260597D01*
X8478857Y-14123000D01*
X8478857Y-12923000D01*
X8452964Y-12789546D01*
X8375914Y-12672253D01*
X8259597Y-12593737D01*
X8156192Y-12573000D01*
X8191620Y-12573000D01*
X8320259Y-12519715D01*
X8418716Y-12421259D01*
X8472000Y-12292619D01*
X8472000Y-11760500D01*
X8472000Y-11485500D01*
X8472000Y-10953381D01*
X8418716Y-10824741D01*
X8320259Y-10726285D01*
X8191620Y-10673000D01*
X8052381Y-10673000D01*
X7884500Y-10673000D01*
X7797000Y-10760500D01*
X7797000Y-11573000D01*
X8384500Y-11573000D01*
X8472000Y-11485500D01*
X8472000Y-11760500D01*
X8384500Y-11673000D01*
X7797000Y-11673000D01*
X7797000Y-11693000D01*
X7697000Y-11693000D01*
X7697000Y-11673000D01*
X7697000Y-11573000D01*
X7697000Y-10760500D01*
X7609500Y-10673000D01*
X7441619Y-10673000D01*
X7302380Y-10673000D01*
X7173741Y-10726285D01*
X7075284Y-10824741D01*
X7022000Y-10953381D01*
X7022000Y-11485500D01*
X7109500Y-11573000D01*
X7697000Y-11573000D01*
X7697000Y-11673000D01*
X7109500Y-11673000D01*
X7022000Y-11760500D01*
X7022000Y-12292619D01*
X7075284Y-12421259D01*
X7173741Y-12519715D01*
X7302380Y-12573000D01*
X7336658Y-12573000D01*
X7238546Y-12592036D01*
X7121253Y-12669086D01*
X7042737Y-12785403D01*
X7015143Y-12923000D01*
X7015143Y-14123000D01*
X7041036Y-14256454D01*
X7118086Y-14373747D01*
X7234403Y-14452263D01*
X7297000Y-14464816D01*
X7297000Y-14478000D01*
X7331254Y-14650208D01*
X7428802Y-14796198D01*
X8057604Y-15425000D01*
X7679396Y-15425000D01*
X6714545Y-14460149D01*
X6714545Y-4438647D01*
X6441598Y-3755155D01*
X6414856Y-3715134D01*
X6166768Y-3546943D01*
X6096057Y-3617654D01*
X6096057Y-3476232D01*
X5927866Y-3228144D01*
X5251563Y-2937845D01*
X4515647Y-2928455D01*
X3832155Y-3201402D01*
X3792134Y-3228144D01*
X3623943Y-3476232D01*
X4860000Y-4712289D01*
X6096057Y-3476232D01*
X6096057Y-3617654D01*
X4930711Y-4783000D01*
X6166768Y-6019057D01*
X6414856Y-5850866D01*
X6705155Y-5174563D01*
X6714545Y-4438647D01*
X6714545Y-14460149D01*
X6668198Y-14413802D01*
X6249198Y-13994802D01*
X6103208Y-13897254D01*
X6096057Y-13895831D01*
X6096057Y-6089768D01*
X4860000Y-4853711D01*
X4789289Y-4924422D01*
X4789289Y-4783000D01*
X3553232Y-3546943D01*
X3305144Y-3715134D01*
X3014845Y-4391437D01*
X3005455Y-5127353D01*
X3278402Y-5810845D01*
X3305144Y-5850866D01*
X3553232Y-6019057D01*
X4789289Y-4783000D01*
X4789289Y-4924422D01*
X3623943Y-6089768D01*
X3792134Y-6337856D01*
X4468437Y-6628155D01*
X5204353Y-6637545D01*
X5887845Y-6364598D01*
X5927866Y-6337856D01*
X6096057Y-6089768D01*
X6096057Y-13895831D01*
X5966857Y-13870132D01*
X5966857Y-13713000D01*
X5940964Y-13579546D01*
X5863914Y-13462253D01*
X5747597Y-13383737D01*
X5610000Y-13356143D01*
X5210000Y-13356143D01*
X5210000Y-12415857D01*
X5360000Y-12415857D01*
X5493454Y-12389964D01*
X5610747Y-12312914D01*
X5689263Y-12196597D01*
X5716857Y-12059000D01*
X5716857Y-11309000D01*
X5690964Y-11175546D01*
X5613914Y-11058253D01*
X5497597Y-10979737D01*
X5360000Y-10952143D01*
X4160000Y-10952143D01*
X4026546Y-10978036D01*
X3909253Y-11055086D01*
X3830737Y-11171403D01*
X3810000Y-11274807D01*
X3810000Y-11239380D01*
X3756715Y-11110741D01*
X3658259Y-11012284D01*
X3529619Y-10959000D01*
X2997500Y-10959000D01*
X2910000Y-11046500D01*
X2910000Y-11634000D01*
X2930000Y-11634000D01*
X2930000Y-11734000D01*
X2910000Y-11734000D01*
X2910000Y-12321500D01*
X2997500Y-12409000D01*
X3529619Y-12409000D01*
X3658259Y-12355716D01*
X3756715Y-12257259D01*
X3810000Y-12128620D01*
X3810000Y-12094341D01*
X3829036Y-12192454D01*
X3906086Y-12309747D01*
X4022403Y-12388263D01*
X4160000Y-12415857D01*
X4310000Y-12415857D01*
X4310000Y-13356143D01*
X4210000Y-13356143D01*
X4076546Y-13382036D01*
X3959253Y-13459086D01*
X3880737Y-13575403D01*
X3853143Y-13713000D01*
X3853143Y-14913000D01*
X3879036Y-15046454D01*
X3919687Y-15108338D01*
X3913285Y-15114741D01*
X3860000Y-15243380D01*
X3860000Y-15382619D01*
X3860000Y-15775500D01*
X3947500Y-15863000D01*
X4860000Y-15863000D01*
X4860000Y-15843000D01*
X4960000Y-15843000D01*
X4960000Y-15863000D01*
X5872500Y-15863000D01*
X5960000Y-15775500D01*
X5960000Y-15382619D01*
X5960000Y-15243380D01*
X5906715Y-15114741D01*
X5900296Y-15108322D01*
X5939263Y-15050597D01*
X5954787Y-14973183D01*
X6031802Y-15050198D01*
X7174802Y-16193198D01*
X7320792Y-16290746D01*
X7320793Y-16290746D01*
X7493000Y-16325000D01*
X9084604Y-16325000D01*
X9183143Y-16423539D01*
X9183143Y-17543000D01*
X9209036Y-17676454D01*
X9286086Y-17793747D01*
X9402403Y-17872263D01*
X9540000Y-17899857D01*
X9730000Y-17899857D01*
X9730000Y-17907000D01*
X9730000Y-22225000D01*
X9730000Y-22459000D01*
X9730000Y-22486143D01*
X9540000Y-22486143D01*
X9406546Y-22512036D01*
X9289253Y-22589086D01*
X9210737Y-22705403D01*
X9183143Y-22843000D01*
X9183143Y-24043000D01*
X9209036Y-24176454D01*
X9286086Y-24293747D01*
X9402403Y-24372263D01*
X9540000Y-24399857D01*
X9730000Y-24399857D01*
X9730000Y-24431604D01*
X9719604Y-24442000D01*
X9136857Y-24442000D01*
X9136857Y-22083000D01*
X9136857Y-21803000D01*
X9115161Y-21691182D01*
X9136857Y-21583000D01*
X9136857Y-21303000D01*
X9115161Y-21191182D01*
X9136857Y-21083000D01*
X9136857Y-20803000D01*
X9115161Y-20691182D01*
X9136857Y-20583000D01*
X9136857Y-20303000D01*
X9115161Y-20191182D01*
X9136857Y-20083000D01*
X9136857Y-19803000D01*
X9115161Y-19691182D01*
X9136857Y-19583000D01*
X9136857Y-19303000D01*
X9115161Y-19191182D01*
X9136857Y-19083000D01*
X9136857Y-18803000D01*
X9115161Y-18691182D01*
X9136857Y-18583000D01*
X9136857Y-18303000D01*
X9110964Y-18169546D01*
X9033914Y-18052253D01*
X8917597Y-17973737D01*
X8780000Y-17946143D01*
X7580000Y-17946143D01*
X7446546Y-17972036D01*
X7414632Y-17993000D01*
X7267000Y-17993000D01*
X7094792Y-18027254D01*
X6948802Y-18124802D01*
X5960000Y-19113604D01*
X5960000Y-16582620D01*
X5960000Y-16443381D01*
X5960000Y-16050500D01*
X5872500Y-15963000D01*
X4960000Y-15963000D01*
X4960000Y-16775500D01*
X5047500Y-16863000D01*
X5679619Y-16863000D01*
X5808259Y-16809716D01*
X5906715Y-16711259D01*
X5960000Y-16582620D01*
X5960000Y-19113604D01*
X5838604Y-19235000D01*
X5506874Y-19235000D01*
X5558259Y-19213716D01*
X5656715Y-19115259D01*
X5710000Y-18986620D01*
X5710000Y-18847381D01*
X5710000Y-18679500D01*
X5710000Y-18404500D01*
X5710000Y-18236619D01*
X5710000Y-18097380D01*
X5656715Y-17968741D01*
X5558259Y-17870284D01*
X5429619Y-17817000D01*
X4897500Y-17817000D01*
X4860000Y-17854500D01*
X4860000Y-16775500D01*
X4860000Y-15963000D01*
X3947500Y-15963000D01*
X3860000Y-16050500D01*
X3860000Y-16443381D01*
X3860000Y-16582620D01*
X3913285Y-16711259D01*
X4011741Y-16809716D01*
X4140381Y-16863000D01*
X4772500Y-16863000D01*
X4860000Y-16775500D01*
X4860000Y-17854500D01*
X4810000Y-17904500D01*
X4810000Y-18492000D01*
X5622500Y-18492000D01*
X5710000Y-18404500D01*
X5710000Y-18679500D01*
X5622500Y-18592000D01*
X4810000Y-18592000D01*
X4810000Y-18612000D01*
X4710000Y-18612000D01*
X4710000Y-18592000D01*
X4690000Y-18592000D01*
X4690000Y-18492000D01*
X4710000Y-18492000D01*
X4710000Y-17904500D01*
X4622500Y-17817000D01*
X4090381Y-17817000D01*
X3961741Y-17870284D01*
X3863285Y-17968741D01*
X3810000Y-18097380D01*
X3810000Y-18131658D01*
X3790964Y-18033546D01*
X3713914Y-17916253D01*
X3597597Y-17837737D01*
X3460000Y-17810143D01*
X3310000Y-17810143D01*
X3310000Y-16869857D01*
X3410000Y-16869857D01*
X3543454Y-16843964D01*
X3660747Y-16766914D01*
X3739263Y-16650597D01*
X3766857Y-16513000D01*
X3766857Y-15313000D01*
X3740964Y-15179546D01*
X3700312Y-15117661D01*
X3706715Y-15111259D01*
X3760000Y-14982620D01*
X3760000Y-14843381D01*
X3760000Y-14450500D01*
X3760000Y-14175500D01*
X3760000Y-13782619D01*
X3760000Y-13643380D01*
X3706715Y-13514741D01*
X3608259Y-13416284D01*
X3479619Y-13363000D01*
X2847500Y-13363000D01*
X2810000Y-13400500D01*
X2810000Y-12321500D01*
X2810000Y-11734000D01*
X2810000Y-11634000D01*
X2810000Y-11046500D01*
X2722500Y-10959000D01*
X2190381Y-10959000D01*
X2061741Y-11012284D01*
X1963285Y-11110741D01*
X1910000Y-11239380D01*
X1910000Y-11378619D01*
X1910000Y-11546500D01*
X1997500Y-11634000D01*
X2810000Y-11634000D01*
X2810000Y-11734000D01*
X1997500Y-11734000D01*
X1910000Y-11821500D01*
X1910000Y-11989381D01*
X1910000Y-12128620D01*
X1963285Y-12257259D01*
X2061741Y-12355716D01*
X2190381Y-12409000D01*
X2722500Y-12409000D01*
X2810000Y-12321500D01*
X2810000Y-13400500D01*
X2760000Y-13450500D01*
X2760000Y-14263000D01*
X3672500Y-14263000D01*
X3760000Y-14175500D01*
X3760000Y-14450500D01*
X3672500Y-14363000D01*
X2760000Y-14363000D01*
X2760000Y-14383000D01*
X2660000Y-14383000D01*
X2660000Y-14363000D01*
X2660000Y-14263000D01*
X2660000Y-13450500D01*
X2572500Y-13363000D01*
X1940381Y-13363000D01*
X1811741Y-13416284D01*
X1713285Y-13514741D01*
X1660000Y-13643380D01*
X1660000Y-13782619D01*
X1660000Y-14175500D01*
X1747500Y-14263000D01*
X2660000Y-14263000D01*
X2660000Y-14363000D01*
X1747500Y-14363000D01*
X1660000Y-14450500D01*
X1660000Y-14843381D01*
X1660000Y-14982620D01*
X1713285Y-15111259D01*
X1719703Y-15117677D01*
X1680737Y-15175403D01*
X1653143Y-15313000D01*
X1653143Y-16513000D01*
X1679036Y-16646454D01*
X1756086Y-16763747D01*
X1872403Y-16842263D01*
X2010000Y-16869857D01*
X2410000Y-16869857D01*
X2410000Y-17810143D01*
X2260000Y-17810143D01*
X2126546Y-17836036D01*
X2009253Y-17913086D01*
X1930737Y-18029403D01*
X1903143Y-18167000D01*
X1903143Y-18917000D01*
X1929036Y-19050454D01*
X2006086Y-19167747D01*
X2122403Y-19246263D01*
X2260000Y-19273857D01*
X2416137Y-19273857D01*
X2444254Y-19415208D01*
X2541802Y-19561198D01*
X2983802Y-20003198D01*
X3129792Y-20100746D01*
X3302000Y-20135000D01*
X6025000Y-20135000D01*
X6197207Y-20100746D01*
X6197208Y-20100746D01*
X6343198Y-20003198D01*
X7229683Y-19116712D01*
X7244838Y-19194817D01*
X7223143Y-19303000D01*
X7223143Y-19583000D01*
X7244838Y-19694817D01*
X7223143Y-19803000D01*
X7223143Y-20083000D01*
X7244838Y-20194817D01*
X7223143Y-20303000D01*
X7223143Y-20583000D01*
X7244838Y-20694817D01*
X7223143Y-20803000D01*
X7223143Y-21083000D01*
X7244838Y-21194817D01*
X7223143Y-21303000D01*
X7223143Y-21583000D01*
X7244838Y-21694817D01*
X7223143Y-21803000D01*
X7223143Y-22083000D01*
X7249036Y-22216454D01*
X7326086Y-22333747D01*
X7442403Y-22412263D01*
X7580000Y-22439857D01*
X8780000Y-22439857D01*
X8913454Y-22413964D01*
X9030747Y-22336914D01*
X9109263Y-22220597D01*
X9136857Y-22083000D01*
X9136857Y-24442000D01*
X8070000Y-24442000D01*
X8070000Y-23914397D01*
X8293151Y-23691636D01*
X8414362Y-23399729D01*
X8414637Y-23083658D01*
X8293937Y-22791540D01*
X8070636Y-22567849D01*
X7778729Y-22446638D01*
X7462658Y-22446363D01*
X7170540Y-22567063D01*
X7061653Y-22675760D01*
X7027000Y-22675760D01*
X7027000Y-22098000D01*
X6985134Y-21887524D01*
X6865909Y-21709091D01*
X6865905Y-21709088D01*
X6484909Y-21328091D01*
X6306476Y-21208866D01*
X6096000Y-21167000D01*
X5663672Y-21167000D01*
X5613914Y-21091253D01*
X5497597Y-21012737D01*
X5360000Y-20985143D01*
X4160000Y-20985143D01*
X4026546Y-21011036D01*
X3909253Y-21088086D01*
X3830737Y-21204403D01*
X3810000Y-21307807D01*
X3810000Y-21272380D01*
X3756715Y-21143741D01*
X3658259Y-21045284D01*
X3529619Y-20992000D01*
X2997500Y-20992000D01*
X2910000Y-21079500D01*
X2910000Y-21667000D01*
X2930000Y-21667000D01*
X2930000Y-21767000D01*
X2910000Y-21767000D01*
X2910000Y-22354500D01*
X2997500Y-22442000D01*
X3529619Y-22442000D01*
X3658259Y-22388716D01*
X3756715Y-22290259D01*
X3810000Y-22161620D01*
X3810000Y-22127341D01*
X3829036Y-22225454D01*
X3906086Y-22342747D01*
X4022403Y-22421263D01*
X4160000Y-22448857D01*
X5360000Y-22448857D01*
X5493454Y-22422964D01*
X5610747Y-22345914D01*
X5664015Y-22267000D01*
X5868182Y-22267000D01*
X5927000Y-22325817D01*
X5927000Y-22632182D01*
X5889669Y-22669513D01*
X4390390Y-22669513D01*
X4256936Y-22695406D01*
X4139643Y-22772456D01*
X4061127Y-22888773D01*
X4047841Y-22955023D01*
X3929669Y-22836851D01*
X3751236Y-22717626D01*
X3540760Y-22675760D01*
X3260760Y-22675760D01*
X3229610Y-22669513D01*
X2810000Y-22669513D01*
X2810000Y-22354500D01*
X2810000Y-21767000D01*
X2810000Y-21667000D01*
X2810000Y-21079500D01*
X2722500Y-20992000D01*
X2190381Y-20992000D01*
X2061741Y-21045284D01*
X1963285Y-21143741D01*
X1910000Y-21272380D01*
X1910000Y-21411619D01*
X1910000Y-21579500D01*
X1997500Y-21667000D01*
X2810000Y-21667000D01*
X2810000Y-21767000D01*
X1997500Y-21767000D01*
X1910000Y-21854500D01*
X1910000Y-22022381D01*
X1910000Y-22161620D01*
X1963285Y-22290259D01*
X2061741Y-22388716D01*
X2190381Y-22442000D01*
X2722500Y-22442000D01*
X2810000Y-22354500D01*
X2810000Y-22669513D01*
X1728470Y-22669513D01*
X1595016Y-22695406D01*
X1477723Y-22772456D01*
X1399207Y-22888773D01*
X1371613Y-23026370D01*
X1371613Y-23425150D01*
X1397506Y-23558604D01*
X1398123Y-23559543D01*
X1378470Y-23606991D01*
X1378470Y-23738500D01*
X1465970Y-23826000D01*
X2429040Y-23826000D01*
X2429040Y-23806000D01*
X2529040Y-23806000D01*
X2529040Y-23826000D01*
X2549040Y-23826000D01*
X2549040Y-23926000D01*
X2529040Y-23926000D01*
X2529040Y-23946000D01*
X2429040Y-23946000D01*
X2429040Y-23926000D01*
X1465970Y-23926000D01*
X1378470Y-24013500D01*
X1378470Y-24145009D01*
X1398420Y-24193174D01*
X1371613Y-24326850D01*
X1371613Y-24725630D01*
X1397506Y-24859084D01*
X1474556Y-24976377D01*
X1590873Y-25054893D01*
X1728470Y-25082487D01*
X2968695Y-25082487D01*
X2748039Y-25303143D01*
X2260000Y-25303143D01*
X2126546Y-25329036D01*
X2009253Y-25406086D01*
X1930737Y-25522403D01*
X1903143Y-25660000D01*
X1903143Y-26410000D01*
X1929036Y-26543454D01*
X2006086Y-26660747D01*
X2122403Y-26739263D01*
X2260000Y-26766857D01*
X2310000Y-26766857D01*
X2310000Y-28514000D01*
X2351866Y-28724476D01*
X2471091Y-28902909D01*
X5705845Y-32137663D01*
X5630000Y-32161531D01*
X5630000Y-33973000D01*
X5650000Y-33973000D01*
X5650000Y-34073000D01*
X5630000Y-34073000D01*
X5630000Y-35884469D01*
X5832599Y-35948223D01*
X6031294Y-35893177D01*
X6463883Y-35627594D01*
X6761909Y-35216682D01*
X6836911Y-34903131D01*
X6857866Y-35008476D01*
X6977091Y-35186909D01*
X7739091Y-35948909D01*
X7917524Y-36068134D01*
X8128000Y-36110001D01*
X8128000Y-36110000D01*
X8128005Y-36110000D01*
X14351000Y-36110000D01*
X14561476Y-36068134D01*
X14739909Y-35948909D01*
X15628909Y-35059909D01*
X15748134Y-34881476D01*
X15790000Y-34671000D01*
X15790000Y-32766000D01*
X15748134Y-32555524D01*
X15676788Y-32448748D01*
X15872158Y-32253720D01*
X16041806Y-31845161D01*
X16042192Y-31402780D01*
X16008815Y-31322001D01*
X16009905Y-31320911D01*
X16009909Y-31320909D01*
X16009909Y-31320908D01*
X16046818Y-31284000D01*
X20574000Y-31284000D01*
X20784476Y-31242134D01*
X20962909Y-31122909D01*
X22105909Y-29979909D01*
X22225134Y-29801476D01*
X22267000Y-29591000D01*
X22267000Y-31208697D01*
X22236838Y-31253838D01*
X21998334Y-31413202D01*
X21677603Y-31477000D01*
X19685000Y-31477000D01*
X19646359Y-31484686D01*
X19606965Y-31484686D01*
X19412561Y-31523354D01*
X19412560Y-31523355D01*
X19310600Y-31565588D01*
X19268370Y-31583081D01*
X19268369Y-31583081D01*
X19268368Y-31583082D01*
X19103563Y-31693201D01*
X19103562Y-31693202D01*
X19103561Y-31693203D01*
X18993203Y-31803561D01*
X18993202Y-31803562D01*
X18993201Y-31803563D01*
X18883082Y-31968368D01*
X18883081Y-31968369D01*
X18848094Y-32052834D01*
X18823355Y-32112560D01*
X18823354Y-32112561D01*
X18784686Y-32306964D01*
X18784686Y-32346359D01*
X18777000Y-32385000D01*
X18777000Y-35393604D01*
X18703535Y-35762936D01*
X18580000Y-35947819D01*
X18580000Y-34723000D01*
X18580000Y-34073000D01*
X18580000Y-33973000D01*
X18580000Y-33323000D01*
X18461909Y-32829318D01*
X18163883Y-32418406D01*
X17731294Y-32152823D01*
X17532599Y-32097777D01*
X17330000Y-32161531D01*
X17330000Y-33973000D01*
X18580000Y-33973000D01*
X18580000Y-34073000D01*
X17330000Y-34073000D01*
X17330000Y-35884469D01*
X17532599Y-35948223D01*
X17731294Y-35893177D01*
X18163883Y-35627594D01*
X18461909Y-35216682D01*
X18580000Y-34723000D01*
X18580000Y-35947819D01*
X18516642Y-36042641D01*
X18236935Y-36229535D01*
X17867604Y-36303000D01*
X17230000Y-36303000D01*
X17230000Y-35884469D01*
X17230000Y-34073000D01*
X17230000Y-33973000D01*
X17230000Y-32161531D01*
X17027401Y-32097777D01*
X16828706Y-32152823D01*
X16396117Y-32418406D01*
X16098091Y-32829318D01*
X15980000Y-33323000D01*
X15980000Y-33973000D01*
X17230000Y-33973000D01*
X17230000Y-34073000D01*
X15980000Y-34073000D01*
X15980000Y-34723000D01*
X16098091Y-35216682D01*
X16396117Y-35627594D01*
X16828706Y-35893177D01*
X17027401Y-35948223D01*
X17230000Y-35884469D01*
X17230000Y-36303000D01*
X5530000Y-36303000D01*
X5530000Y-35884469D01*
X5530000Y-34073000D01*
X5530000Y-33973000D01*
X5530000Y-32161531D01*
X5327401Y-32097777D01*
X5128706Y-32152823D01*
X4696117Y-32418406D01*
X4398091Y-32829318D01*
X4280000Y-33323000D01*
X4280000Y-33973000D01*
X5530000Y-33973000D01*
X5530000Y-34073000D01*
X4280000Y-34073000D01*
X4280000Y-34723000D01*
X4398091Y-35216682D01*
X4696117Y-35627594D01*
X5128706Y-35893177D01*
X5327401Y-35948223D01*
X5530000Y-35884469D01*
X5530000Y-36303000D01*
X4865396Y-36303000D01*
X4544665Y-36239202D01*
X4306161Y-36079838D01*
X4146797Y-35841334D01*
X4083000Y-35520603D01*
X4083000Y-32385000D01*
X4075314Y-32346359D01*
X4075314Y-32306965D01*
X4036645Y-32112561D01*
X4036645Y-32112560D01*
X3994411Y-32010600D01*
X3976919Y-31968370D01*
X3976918Y-31968369D01*
X3976918Y-31968368D01*
X3866798Y-31803563D01*
X3866798Y-31803562D01*
X3866797Y-31803561D01*
X3756439Y-31693203D01*
X3756438Y-31693202D01*
X3756436Y-31693201D01*
X3591632Y-31583082D01*
X3591631Y-31583081D01*
X3507166Y-31548094D01*
X3447440Y-31523355D01*
X3447438Y-31523354D01*
X3253036Y-31484686D01*
X3213640Y-31484686D01*
X3175000Y-31477000D01*
X1182396Y-31477000D01*
X861665Y-31413202D01*
X623161Y-31253838D01*
X463797Y-31015334D01*
X400000Y-30694603D01*
X400000Y-4865395D01*
X744148Y-3135242D01*
X1701886Y-1701886D01*
X3135242Y-744148D01*
X4865395Y-400000D01*
X17994604Y-400000D01*
X19724757Y-744148D01*
X21158113Y-1701886D01*
X22115851Y-3135242D01*
X22460000Y-4865395D01*
X22460000Y-30694603D01*
M02*
