G04 #@! TF.FileFunction,Copper,L2,Bot,Signal*
%FSLAX46Y46*%
G04 Gerber Fmt 4.6, Leading zero omitted, Abs format (unit mm)*
G04 Created by KiCad (PCBNEW (2014-12-10 BZR 5319)-product) date 2015年02月02日 11時42分02秒*
%MOMM*%
G01*
G04 APERTURE LIST*
%ADD10C,0.100000*%
%ADD11R,0.750000X1.200000*%
%ADD12R,1.200000X0.750000*%
%ADD13C,1.524000*%
%ADD14C,1.100000*%
%ADD15O,1.900000X3.200000*%
%ADD16R,1.200000X0.900000*%
%ADD17R,0.560000X1.600000*%
%ADD18R,1.600000X0.560000*%
%ADD19R,1.200000X1.400000*%
%ADD20C,1.620000*%
%ADD21C,3.000000*%
%ADD22C,0.889000*%
%ADD23C,0.152400*%
%ADD24C,0.200000*%
%ADD25C,0.400000*%
G04 APERTURE END LIST*
D10*
D11*
X18034000Y-26926500D03*
X18034000Y-28826500D03*
X8382000Y-26926500D03*
X8382000Y-28826500D03*
D12*
X3998000Y-23114000D03*
X2098000Y-23114000D03*
X3998000Y-21082000D03*
X2098000Y-21082000D03*
X3998000Y-13462000D03*
X2098000Y-13462000D03*
X21016000Y-9398000D03*
X19116000Y-9398000D03*
D13*
X12430000Y-31623000D03*
X10430000Y-31623000D03*
X7930000Y-31623000D03*
X14930000Y-31623000D03*
D14*
X9180000Y-34023000D03*
X13680000Y-34023000D03*
D15*
X5580000Y-34023000D03*
X17280000Y-34023000D03*
D16*
X13927000Y-27051000D03*
X11727000Y-27051000D03*
X11727000Y-28702000D03*
X13927000Y-28702000D03*
D17*
X17208000Y-23503000D03*
X16408000Y-23503000D03*
X15608000Y-23503000D03*
X14808000Y-23503000D03*
X14008000Y-23503000D03*
X13208000Y-23503000D03*
X12408000Y-23503000D03*
X11608000Y-23503000D03*
X10808000Y-23503000D03*
X10008000Y-23503000D03*
X9208000Y-23503000D03*
D18*
X7358000Y-21653000D03*
X7358000Y-20853000D03*
X7358000Y-20053000D03*
X7358000Y-19253000D03*
X7358000Y-18453000D03*
X7358000Y-17653000D03*
X7358000Y-16853000D03*
X7358000Y-16053000D03*
X7358000Y-15253000D03*
X7358000Y-14453000D03*
X7358000Y-13653000D03*
D17*
X9208000Y-11803000D03*
X10008000Y-11803000D03*
X10808000Y-11803000D03*
X11608000Y-11803000D03*
X12408000Y-11803000D03*
X13208000Y-11803000D03*
X14008000Y-11803000D03*
X14808000Y-11803000D03*
X15608000Y-11803000D03*
X16408000Y-11803000D03*
X17208000Y-11803000D03*
D18*
X19058000Y-13653000D03*
X19058000Y-14453000D03*
X19058000Y-15253000D03*
X19058000Y-16053000D03*
X19058000Y-16853000D03*
X19058000Y-17653000D03*
X19058000Y-18453000D03*
X19058000Y-19253000D03*
X19058000Y-20053000D03*
X19058000Y-20853000D03*
X19058000Y-21653000D03*
D19*
X2248000Y-18372000D03*
X2248000Y-16172000D03*
X3848000Y-18372000D03*
X3848000Y-16172000D03*
D20*
X7930000Y-7493000D03*
X10430000Y-7493000D03*
X12430000Y-7493000D03*
X14930000Y-7493000D03*
D21*
X4860000Y-4783000D03*
X18000000Y-4783000D03*
D22*
X13779500Y-25590500D03*
X13652500Y-30226000D03*
X17208500Y-14414500D03*
X13716000Y-14541500D03*
X9017000Y-13843000D03*
X11430000Y-9271000D03*
X11430000Y-14859000D03*
X15367000Y-9779000D03*
X7620000Y-23241000D03*
X16764000Y-20955000D03*
X16129000Y-20066000D03*
X15875000Y-15875000D03*
X13208000Y-20955000D03*
X13081000Y-18415000D03*
X12192000Y-19431000D03*
X13970000Y-10033000D03*
D23*
X14008000Y-23503000D02*
X14008000Y-25362000D01*
X14008000Y-25362000D02*
X13779500Y-25590500D01*
X7930000Y-31623000D02*
X7937500Y-31623000D01*
X7937500Y-31623000D02*
X9271000Y-32956500D01*
X13716000Y-30289500D02*
X13652500Y-30226000D01*
X13716000Y-32448500D02*
X13716000Y-30289500D01*
X13208000Y-32956500D02*
X13716000Y-32448500D01*
X9271000Y-32956500D02*
X13208000Y-32956500D01*
D24*
X19058000Y-14453000D02*
X17247000Y-14453000D01*
X17247000Y-14453000D02*
X17208500Y-14414500D01*
D23*
X9208000Y-11803000D02*
X9208000Y-13652000D01*
X9208000Y-13652000D02*
X9017000Y-13843000D01*
D24*
X8382000Y-26926500D02*
X8382000Y-26289000D01*
X8382000Y-26289000D02*
X8890000Y-25781000D01*
X13208000Y-24765000D02*
X12192000Y-25781000D01*
X12192000Y-25781000D02*
X8890000Y-25781000D01*
X13208000Y-23503000D02*
X13208000Y-24765000D01*
D25*
X18034000Y-26926500D02*
X17274500Y-26926500D01*
X17274500Y-26926500D02*
X16408000Y-26060000D01*
X16408000Y-23503000D02*
X16408000Y-26060000D01*
X16408000Y-26060000D02*
X16408000Y-30145000D01*
X16408000Y-30145000D02*
X14930000Y-31623000D01*
D24*
X12408000Y-23503000D02*
X12408000Y-22644000D01*
X16408000Y-22631000D02*
X16408000Y-23503000D01*
X16002000Y-22225000D02*
X16408000Y-22631000D01*
X12827000Y-22225000D02*
X16002000Y-22225000D01*
X12408000Y-22644000D02*
X12827000Y-22225000D01*
X12408000Y-23503000D02*
X12408000Y-22771000D01*
X13271500Y-9207500D02*
X14795500Y-9207500D01*
X14795500Y-9207500D02*
X14859000Y-9271000D01*
X12192000Y-10287000D02*
X13271500Y-9207500D01*
X12192000Y-10287000D02*
X10287000Y-10287000D01*
X18034000Y-7874000D02*
X20066000Y-7874000D01*
X20066000Y-7874000D02*
X21016000Y-8824000D01*
X21016000Y-9398000D02*
X21016000Y-8824000D01*
X15367000Y-9779000D02*
X16129000Y-9779000D01*
X16129000Y-9779000D02*
X18034000Y-7874000D01*
X15367000Y-9779000D02*
X14859000Y-9271000D01*
X10008000Y-10566000D02*
X10008000Y-11803000D01*
X10008000Y-10566000D02*
X10287000Y-10287000D01*
D25*
X3998000Y-23114000D02*
X7493000Y-23114000D01*
X7493000Y-23114000D02*
X7620000Y-23241000D01*
D24*
X8141000Y-20053000D02*
X7358000Y-20053000D01*
X10008000Y-11803000D02*
X10008000Y-18186000D01*
X5982000Y-20053000D02*
X7358000Y-20053000D01*
X5334000Y-20701000D02*
X5982000Y-20053000D01*
X5334000Y-22352000D02*
X5334000Y-20701000D01*
X4572000Y-23114000D02*
X5334000Y-22352000D01*
X3998000Y-23114000D02*
X4572000Y-23114000D01*
X21082000Y-14224000D02*
X21082000Y-21082000D01*
X20511000Y-13653000D02*
X21082000Y-14224000D01*
X19058000Y-13653000D02*
X20511000Y-13653000D01*
X20511000Y-21653000D02*
X19058000Y-21653000D01*
X21082000Y-21082000D02*
X20511000Y-21653000D01*
X9284000Y-20053000D02*
X10008000Y-19329000D01*
X10008000Y-19329000D02*
X10008000Y-18186000D01*
X7358000Y-20053000D02*
X9284000Y-20053000D01*
X21016000Y-10607000D02*
X19058000Y-12565000D01*
X19058000Y-12565000D02*
X19058000Y-13653000D01*
X21016000Y-9398000D02*
X21016000Y-10607000D01*
X16764000Y-19431000D02*
X17018000Y-19685000D01*
X16764000Y-20701000D02*
X17018000Y-20447000D01*
X16764000Y-20955000D02*
X16764000Y-20701000D01*
X16764000Y-18923000D02*
X16764000Y-19431000D01*
X14859000Y-17018000D02*
X16764000Y-18923000D01*
X17018000Y-20447000D02*
X17018000Y-19685000D01*
X11608000Y-11803000D02*
X11608000Y-13005000D01*
X12573000Y-13970000D02*
X12573000Y-16256000D01*
X11608000Y-13005000D02*
X12573000Y-13970000D01*
X14859000Y-17018000D02*
X14859000Y-17018000D01*
X13335000Y-17018000D02*
X13081000Y-16764000D01*
X13081000Y-16764000D02*
X12573000Y-16256000D01*
X14859000Y-17018000D02*
X13335000Y-17018000D01*
X10668000Y-28702000D02*
X10414000Y-28956000D01*
X10414000Y-28956000D02*
X10414000Y-29607000D01*
X10414000Y-29607000D02*
X12430000Y-31623000D01*
X11727000Y-28702000D02*
X10668000Y-28702000D01*
X10430000Y-30369000D02*
X9779000Y-29718000D01*
X9779000Y-29718000D02*
X9779000Y-27559000D01*
X9779000Y-27559000D02*
X10287000Y-27051000D01*
X10287000Y-27051000D02*
X11727000Y-27051000D01*
X10430000Y-31623000D02*
X10430000Y-30369000D01*
X7358000Y-20853000D02*
X9881000Y-20853000D01*
X11049000Y-19685000D02*
X11049000Y-19304000D01*
X9881000Y-20853000D02*
X11049000Y-19685000D01*
X16129000Y-20066000D02*
X16129000Y-18923000D01*
X16129000Y-18923000D02*
X14859000Y-17653000D01*
X14859000Y-17653000D02*
X12700000Y-17653000D01*
X12700000Y-17653000D02*
X11049000Y-19304000D01*
X14808000Y-12903000D02*
X15875000Y-13970000D01*
X15875000Y-13970000D02*
X15875000Y-15875000D01*
X14808000Y-11803000D02*
X14808000Y-12903000D01*
X10808000Y-22339000D02*
X11176000Y-21971000D01*
X10808000Y-23503000D02*
X10808000Y-22339000D01*
X12700000Y-20955000D02*
X11684000Y-21971000D01*
X11684000Y-21971000D02*
X11176000Y-21971000D01*
X13208000Y-20955000D02*
X12700000Y-20955000D01*
X10008000Y-22377000D02*
X10922000Y-21463000D01*
X10922000Y-21463000D02*
X11430000Y-21463000D01*
X11430000Y-21463000D02*
X13081000Y-19812000D01*
X13081000Y-19812000D02*
X13081000Y-18415000D01*
X10008000Y-23503000D02*
X10008000Y-22377000D01*
X9208000Y-22415000D02*
X10668000Y-20955000D01*
X9208000Y-23503000D02*
X9208000Y-22415000D01*
X12192000Y-19431000D02*
X10668000Y-20955000D01*
X3998000Y-21082000D02*
X3998000Y-21016000D01*
X5931000Y-18453000D02*
X7358000Y-18453000D01*
X4826000Y-19558000D02*
X5931000Y-18453000D01*
X3302000Y-19558000D02*
X4826000Y-19558000D01*
X2248000Y-18372000D02*
X2248000Y-18631000D01*
X2667000Y-19558000D02*
X3175000Y-19558000D01*
X2248000Y-19139000D02*
X2667000Y-19558000D01*
X3175000Y-19558000D02*
X3302000Y-19558000D01*
X2248000Y-18372000D02*
X2248000Y-19139000D01*
X3998000Y-20254000D02*
X3302000Y-19558000D01*
X3998000Y-21082000D02*
X3998000Y-20254000D01*
X5842000Y-17653000D02*
X4953000Y-16764000D01*
X7358000Y-17653000D02*
X5842000Y-17653000D01*
X3848000Y-13612000D02*
X3998000Y-13462000D01*
X3848000Y-16172000D02*
X3848000Y-13612000D01*
X4361000Y-16172000D02*
X4953000Y-16764000D01*
X3848000Y-16172000D02*
X4361000Y-16172000D01*
X14808000Y-26848000D02*
X14605000Y-27051000D01*
X14605000Y-27051000D02*
X13927000Y-27051000D01*
X14808000Y-23503000D02*
X14808000Y-26848000D01*
X14986000Y-28702000D02*
X15608000Y-28080000D01*
X15608000Y-28080000D02*
X15608000Y-23503000D01*
X13927000Y-28702000D02*
X14986000Y-28702000D01*
X14008000Y-10071000D02*
X14008000Y-11803000D01*
X13970000Y-10033000D02*
X14008000Y-10071000D01*
G36*
X12883604Y-17203000D02*
X12700000Y-17203000D01*
X12527793Y-17237253D01*
X12381802Y-17334802D01*
X10730802Y-18985802D01*
X10633254Y-19131792D01*
X10599000Y-19304000D01*
X10599000Y-19498604D01*
X9694604Y-20403000D01*
X9554603Y-20403000D01*
X9602198Y-20371198D01*
X10326198Y-19647198D01*
X10423746Y-19501208D01*
X10423747Y-19501207D01*
X10458000Y-19329000D01*
X10458000Y-18186000D01*
X10458000Y-12945819D01*
X10528000Y-12959857D01*
X11088000Y-12959857D01*
X11158000Y-12946275D01*
X11158000Y-13005000D01*
X11192254Y-13177208D01*
X11289802Y-13323198D01*
X12123000Y-14156396D01*
X12123000Y-16256000D01*
X12157254Y-16428208D01*
X12254802Y-16574198D01*
X12762802Y-17082198D01*
X12883604Y-17203000D01*
X12883604Y-17203000D01*
G37*
X12883604Y-17203000D02*
X12700000Y-17203000D01*
X12527793Y-17237253D01*
X12381802Y-17334802D01*
X10730802Y-18985802D01*
X10633254Y-19131792D01*
X10599000Y-19304000D01*
X10599000Y-19498604D01*
X9694604Y-20403000D01*
X9554603Y-20403000D01*
X9602198Y-20371198D01*
X10326198Y-19647198D01*
X10423746Y-19501208D01*
X10423747Y-19501207D01*
X10458000Y-19329000D01*
X10458000Y-18186000D01*
X10458000Y-12945819D01*
X10528000Y-12959857D01*
X11088000Y-12959857D01*
X11158000Y-12946275D01*
X11158000Y-13005000D01*
X11192254Y-13177208D01*
X11289802Y-13323198D01*
X12123000Y-14156396D01*
X12123000Y-16256000D01*
X12157254Y-16428208D01*
X12254802Y-16574198D01*
X12762802Y-17082198D01*
X12883604Y-17203000D01*
G36*
X22460000Y-30694603D02*
X22396202Y-31015334D01*
X22236838Y-31253838D01*
X21998334Y-31413202D01*
X21972857Y-31418269D01*
X21972857Y-9773000D01*
X21972857Y-9023000D01*
X21946964Y-8889546D01*
X21869914Y-8772253D01*
X21753597Y-8693737D01*
X21616000Y-8666143D01*
X21434600Y-8666143D01*
X21431746Y-8651793D01*
X21431746Y-8651792D01*
X21334198Y-8505802D01*
X20384198Y-7555802D01*
X20238208Y-7458254D01*
X20066000Y-7424000D01*
X19909304Y-7424000D01*
X19909304Y-4455285D01*
X19638556Y-3749572D01*
X19581811Y-3664648D01*
X19316670Y-3501685D01*
X19281315Y-3537040D01*
X19281315Y-3466330D01*
X19118352Y-3201189D01*
X18427889Y-2893623D01*
X17672285Y-2873696D01*
X16966572Y-3144444D01*
X16881648Y-3201189D01*
X16718685Y-3466330D01*
X18000000Y-4747645D01*
X19281315Y-3466330D01*
X19281315Y-3537040D01*
X18035355Y-4783000D01*
X19316670Y-6064315D01*
X19581811Y-5901352D01*
X19889377Y-5210889D01*
X19909304Y-4455285D01*
X19909304Y-7424000D01*
X19281315Y-7424000D01*
X19281315Y-6099670D01*
X18000000Y-4818355D01*
X17964645Y-4853710D01*
X17964645Y-4783000D01*
X16683330Y-3501685D01*
X16418189Y-3664648D01*
X16110623Y-4355111D01*
X16090696Y-5110715D01*
X16361444Y-5816428D01*
X16418189Y-5901352D01*
X16683330Y-6064315D01*
X17964645Y-4783000D01*
X17964645Y-4853710D01*
X16718685Y-6099670D01*
X16881648Y-6364811D01*
X17572111Y-6672377D01*
X18327715Y-6692304D01*
X19033428Y-6421556D01*
X19118352Y-6364811D01*
X19281315Y-6099670D01*
X19281315Y-7424000D01*
X18034000Y-7424000D01*
X17861792Y-7458254D01*
X17715802Y-7555802D01*
X16090201Y-9181402D01*
X16090201Y-7263274D01*
X15913974Y-6836771D01*
X15587945Y-6510173D01*
X15161751Y-6333202D01*
X14700274Y-6332799D01*
X14273771Y-6509026D01*
X13947173Y-6835055D01*
X13770202Y-7261249D01*
X13769799Y-7722726D01*
X13946026Y-8149229D01*
X14272055Y-8475827D01*
X14698249Y-8652798D01*
X15159726Y-8653201D01*
X15586229Y-8476974D01*
X15912827Y-8150945D01*
X16089798Y-7724751D01*
X16090201Y-7263274D01*
X16090201Y-9181402D01*
X15991543Y-9280060D01*
X15817636Y-9105849D01*
X15525729Y-8984638D01*
X15209658Y-8984363D01*
X15209021Y-8984625D01*
X15177198Y-8952802D01*
X15113698Y-8889302D01*
X14967708Y-8791754D01*
X14795500Y-8757500D01*
X13590201Y-8757500D01*
X13590201Y-7263274D01*
X13413974Y-6836771D01*
X13087945Y-6510173D01*
X12661751Y-6333202D01*
X12200274Y-6332799D01*
X11773771Y-6509026D01*
X11447173Y-6835055D01*
X11430177Y-6875985D01*
X11413974Y-6836771D01*
X11087945Y-6510173D01*
X10661751Y-6333202D01*
X10200274Y-6332799D01*
X9773771Y-6509026D01*
X9447173Y-6835055D01*
X9270202Y-7261249D01*
X9269799Y-7722726D01*
X9446026Y-8149229D01*
X9772055Y-8475827D01*
X10198249Y-8652798D01*
X10659726Y-8653201D01*
X11086229Y-8476974D01*
X11412827Y-8150945D01*
X11429822Y-8110014D01*
X11446026Y-8149229D01*
X11772055Y-8475827D01*
X12198249Y-8652798D01*
X12659726Y-8653201D01*
X13086229Y-8476974D01*
X13412827Y-8150945D01*
X13589798Y-7724751D01*
X13590201Y-7263274D01*
X13590201Y-8757500D01*
X13271500Y-8757500D01*
X13099293Y-8791753D01*
X12953302Y-8889302D01*
X12005604Y-9837000D01*
X10287000Y-9837000D01*
X10114793Y-9871253D01*
X9968802Y-9968802D01*
X9689802Y-10247802D01*
X9592254Y-10393792D01*
X9558000Y-10566000D01*
X9558000Y-10603000D01*
X9408435Y-10603000D01*
X9333000Y-10603000D01*
X9233000Y-10703000D01*
X9233000Y-11778000D01*
X9253000Y-11778000D01*
X9253000Y-11828000D01*
X9233000Y-11828000D01*
X9233000Y-12903000D01*
X9333000Y-13003000D01*
X9408435Y-13003000D01*
X9558000Y-13003000D01*
X9558000Y-18186000D01*
X9558000Y-19142604D01*
X9183000Y-19517604D01*
X9183000Y-12903000D01*
X9183000Y-11828000D01*
X9183000Y-11778000D01*
X9183000Y-10703000D01*
X9144355Y-10664355D01*
X9144355Y-7275353D01*
X8968627Y-6827207D01*
X8942578Y-6788221D01*
X8749133Y-6709222D01*
X8713778Y-6744577D01*
X8713778Y-6673867D01*
X8634779Y-6480422D01*
X8193634Y-6287792D01*
X7712353Y-6278645D01*
X7264207Y-6454373D01*
X7225221Y-6480422D01*
X7146222Y-6673867D01*
X7930000Y-7457645D01*
X8713778Y-6673867D01*
X8713778Y-6744577D01*
X7965355Y-7493000D01*
X8749133Y-8276778D01*
X8942578Y-8197779D01*
X9135208Y-7756634D01*
X9144355Y-7275353D01*
X9144355Y-10664355D01*
X9083000Y-10603000D01*
X9007565Y-10603000D01*
X8848435Y-10603000D01*
X8713778Y-10658776D01*
X8713778Y-8312133D01*
X7930000Y-7528355D01*
X7894645Y-7563710D01*
X7894645Y-7493000D01*
X7110867Y-6709222D01*
X6917422Y-6788221D01*
X6769304Y-7127428D01*
X6769304Y-4455285D01*
X6498556Y-3749572D01*
X6441811Y-3664648D01*
X6176670Y-3501685D01*
X6141315Y-3537040D01*
X6141315Y-3466330D01*
X5978352Y-3201189D01*
X5287889Y-2893623D01*
X4532285Y-2873696D01*
X3826572Y-3144444D01*
X3741648Y-3201189D01*
X3578685Y-3466330D01*
X4860000Y-4747645D01*
X6141315Y-3466330D01*
X6141315Y-3537040D01*
X4895355Y-4783000D01*
X6176670Y-6064315D01*
X6441811Y-5901352D01*
X6749377Y-5210889D01*
X6769304Y-4455285D01*
X6769304Y-7127428D01*
X6724792Y-7229366D01*
X6715645Y-7710647D01*
X6891373Y-8158793D01*
X6917422Y-8197779D01*
X7110867Y-8276778D01*
X7894645Y-7493000D01*
X7894645Y-7563710D01*
X7146222Y-8312133D01*
X7225221Y-8505578D01*
X7666366Y-8698208D01*
X8147647Y-8707355D01*
X8595793Y-8531627D01*
X8634779Y-8505578D01*
X8713778Y-8312133D01*
X8713778Y-10658776D01*
X8701418Y-10663896D01*
X8588896Y-10776418D01*
X8528000Y-10923435D01*
X8528000Y-11678000D01*
X8628000Y-11778000D01*
X9183000Y-11778000D01*
X9183000Y-11828000D01*
X8628000Y-11828000D01*
X8528000Y-11928000D01*
X8528000Y-12682565D01*
X8588896Y-12829582D01*
X8701418Y-12942104D01*
X8848435Y-13003000D01*
X9007565Y-13003000D01*
X9083000Y-13003000D01*
X9183000Y-12903000D01*
X9183000Y-19517604D01*
X9097604Y-19603000D01*
X8558000Y-19603000D01*
X8558000Y-19453435D01*
X8558000Y-19378000D01*
X8458000Y-19278000D01*
X7383000Y-19278000D01*
X7383000Y-19298000D01*
X7333000Y-19298000D01*
X7333000Y-19278000D01*
X6258000Y-19278000D01*
X6158000Y-19378000D01*
X6158000Y-19453435D01*
X6158000Y-19603000D01*
X5982000Y-19603000D01*
X5809792Y-19637254D01*
X5663802Y-19734802D01*
X5015802Y-20382802D01*
X4918254Y-20528792D01*
X4913910Y-20550629D01*
X4851914Y-20456253D01*
X4735597Y-20377737D01*
X4598000Y-20350143D01*
X4448000Y-20350143D01*
X4448000Y-20254000D01*
X4413747Y-20081793D01*
X4413746Y-20081792D01*
X4364439Y-20008000D01*
X4826000Y-20008000D01*
X4998207Y-19973746D01*
X4998208Y-19973746D01*
X5144198Y-19876198D01*
X6117396Y-18903000D01*
X6158000Y-18903000D01*
X6158000Y-19052565D01*
X6158000Y-19128000D01*
X6258000Y-19228000D01*
X7333000Y-19228000D01*
X7333000Y-19208000D01*
X7383000Y-19208000D01*
X7383000Y-19228000D01*
X8458000Y-19228000D01*
X8558000Y-19128000D01*
X8558000Y-19052565D01*
X8558000Y-18893435D01*
X8507252Y-18770919D01*
X8514857Y-18733000D01*
X8514857Y-18173000D01*
X8491189Y-18051016D01*
X8514857Y-17933000D01*
X8514857Y-17373000D01*
X8491189Y-17251016D01*
X8514857Y-17133000D01*
X8514857Y-16573000D01*
X8491189Y-16451016D01*
X8514857Y-16333000D01*
X8514857Y-15773000D01*
X8491189Y-15651016D01*
X8514857Y-15533000D01*
X8514857Y-14973000D01*
X8491189Y-14851016D01*
X8514857Y-14733000D01*
X8514857Y-14173000D01*
X8491189Y-14051016D01*
X8514857Y-13933000D01*
X8514857Y-13373000D01*
X8488964Y-13239546D01*
X8411914Y-13122253D01*
X8295597Y-13043737D01*
X8158000Y-13016143D01*
X6558000Y-13016143D01*
X6424546Y-13042036D01*
X6307253Y-13119086D01*
X6228737Y-13235403D01*
X6201143Y-13373000D01*
X6201143Y-13933000D01*
X6224810Y-14054983D01*
X6201143Y-14173000D01*
X6201143Y-14733000D01*
X6224810Y-14854983D01*
X6201143Y-14973000D01*
X6201143Y-15533000D01*
X6224810Y-15654983D01*
X6201143Y-15773000D01*
X6201143Y-16333000D01*
X6224810Y-16454983D01*
X6201143Y-16573000D01*
X6201143Y-17133000D01*
X6214724Y-17203000D01*
X6141315Y-17203000D01*
X6141315Y-6099670D01*
X4860000Y-4818355D01*
X4824645Y-4853710D01*
X4824645Y-4783000D01*
X3543330Y-3501685D01*
X3278189Y-3664648D01*
X2970623Y-4355111D01*
X2950696Y-5110715D01*
X3221444Y-5816428D01*
X3278189Y-5901352D01*
X3543330Y-6064315D01*
X4824645Y-4783000D01*
X4824645Y-4853710D01*
X3578685Y-6099670D01*
X3741648Y-6364811D01*
X4432111Y-6672377D01*
X5187715Y-6692304D01*
X5893428Y-6421556D01*
X5978352Y-6364811D01*
X6141315Y-6099670D01*
X6141315Y-17203000D01*
X6028396Y-17203000D01*
X5271198Y-16445802D01*
X4804857Y-15979461D01*
X4804857Y-15472000D01*
X4778964Y-15338546D01*
X4701914Y-15221253D01*
X4585597Y-15142737D01*
X4448000Y-15115143D01*
X4298000Y-15115143D01*
X4298000Y-14193857D01*
X4598000Y-14193857D01*
X4731454Y-14167964D01*
X4848747Y-14090914D01*
X4927263Y-13974597D01*
X4954857Y-13837000D01*
X4954857Y-13087000D01*
X4928964Y-12953546D01*
X4851914Y-12836253D01*
X4735597Y-12757737D01*
X4598000Y-12730143D01*
X3398000Y-12730143D01*
X3264546Y-12756036D01*
X3147253Y-12833086D01*
X3071975Y-12944605D01*
X3037104Y-12860418D01*
X2924582Y-12747896D01*
X2777565Y-12687000D01*
X2223000Y-12687000D01*
X2123000Y-12787000D01*
X2123000Y-13437000D01*
X2143000Y-13437000D01*
X2143000Y-13487000D01*
X2123000Y-13487000D01*
X2123000Y-14137000D01*
X2223000Y-14237000D01*
X2777565Y-14237000D01*
X2924582Y-14176104D01*
X3037104Y-14063582D01*
X3072336Y-13978522D01*
X3144086Y-14087747D01*
X3260403Y-14166263D01*
X3398000Y-14193857D01*
X3398000Y-15115143D01*
X3248000Y-15115143D01*
X3114546Y-15141036D01*
X3047917Y-15184804D01*
X2985597Y-15142737D01*
X2848000Y-15115143D01*
X2073000Y-15115143D01*
X2073000Y-14137000D01*
X2073000Y-13487000D01*
X2073000Y-13437000D01*
X2073000Y-12787000D01*
X1973000Y-12687000D01*
X1418435Y-12687000D01*
X1271418Y-12747896D01*
X1158896Y-12860418D01*
X1098000Y-13007435D01*
X1098000Y-13166565D01*
X1098000Y-13337000D01*
X1198000Y-13437000D01*
X2073000Y-13437000D01*
X2073000Y-13487000D01*
X1198000Y-13487000D01*
X1098000Y-13587000D01*
X1098000Y-13757435D01*
X1098000Y-13916565D01*
X1158896Y-14063582D01*
X1271418Y-14176104D01*
X1418435Y-14237000D01*
X1973000Y-14237000D01*
X2073000Y-14137000D01*
X2073000Y-15115143D01*
X1648000Y-15115143D01*
X1514546Y-15141036D01*
X1397253Y-15218086D01*
X1318737Y-15334403D01*
X1291143Y-15472000D01*
X1291143Y-16872000D01*
X1317036Y-17005454D01*
X1394086Y-17122747D01*
X1510403Y-17201263D01*
X1648000Y-17228857D01*
X2848000Y-17228857D01*
X2981454Y-17202964D01*
X3048082Y-17159195D01*
X3110403Y-17201263D01*
X3248000Y-17228857D01*
X4448000Y-17228857D01*
X4581454Y-17202964D01*
X4686538Y-17133934D01*
X5523802Y-17971198D01*
X5669792Y-18068746D01*
X5669793Y-18068746D01*
X5702056Y-18075163D01*
X5612802Y-18134802D01*
X4804857Y-18942747D01*
X4804857Y-17672000D01*
X4778964Y-17538546D01*
X4701914Y-17421253D01*
X4585597Y-17342737D01*
X4448000Y-17315143D01*
X3248000Y-17315143D01*
X3114546Y-17341036D01*
X3047917Y-17384804D01*
X2985597Y-17342737D01*
X2848000Y-17315143D01*
X1648000Y-17315143D01*
X1514546Y-17341036D01*
X1397253Y-17418086D01*
X1318737Y-17534403D01*
X1291143Y-17672000D01*
X1291143Y-19072000D01*
X1317036Y-19205454D01*
X1394086Y-19322747D01*
X1510403Y-19401263D01*
X1648000Y-19428857D01*
X1910865Y-19428857D01*
X1929802Y-19457198D01*
X2348802Y-19876198D01*
X2494792Y-19973746D01*
X2667000Y-20008000D01*
X3115604Y-20008000D01*
X3457747Y-20350143D01*
X3398000Y-20350143D01*
X3264546Y-20376036D01*
X3147253Y-20453086D01*
X3071975Y-20564605D01*
X3037104Y-20480418D01*
X2924582Y-20367896D01*
X2777565Y-20307000D01*
X2223000Y-20307000D01*
X2123000Y-20407000D01*
X2123000Y-21057000D01*
X2143000Y-21057000D01*
X2143000Y-21107000D01*
X2123000Y-21107000D01*
X2123000Y-21757000D01*
X2223000Y-21857000D01*
X2777565Y-21857000D01*
X2924582Y-21796104D01*
X3037104Y-21683582D01*
X3072336Y-21598522D01*
X3144086Y-21707747D01*
X3260403Y-21786263D01*
X3398000Y-21813857D01*
X4598000Y-21813857D01*
X4731454Y-21787964D01*
X4848747Y-21710914D01*
X4884000Y-21658688D01*
X4884000Y-22165604D01*
X4655858Y-22393745D01*
X4598000Y-22382143D01*
X3398000Y-22382143D01*
X3264546Y-22408036D01*
X3147253Y-22485086D01*
X3071975Y-22596605D01*
X3037104Y-22512418D01*
X2924582Y-22399896D01*
X2777565Y-22339000D01*
X2223000Y-22339000D01*
X2123000Y-22439000D01*
X2123000Y-23089000D01*
X2143000Y-23089000D01*
X2143000Y-23139000D01*
X2123000Y-23139000D01*
X2123000Y-23789000D01*
X2223000Y-23889000D01*
X2777565Y-23889000D01*
X2924582Y-23828104D01*
X3037104Y-23715582D01*
X3072336Y-23630522D01*
X3144086Y-23739747D01*
X3260403Y-23818263D01*
X3398000Y-23845857D01*
X4598000Y-23845857D01*
X4731454Y-23819964D01*
X4848747Y-23742914D01*
X4902015Y-23664000D01*
X6935130Y-23664000D01*
X6946063Y-23690460D01*
X7169364Y-23914151D01*
X7461271Y-24035362D01*
X7777342Y-24035637D01*
X8069460Y-23914937D01*
X8293151Y-23691636D01*
X8414362Y-23399729D01*
X8414637Y-23083658D01*
X8293937Y-22791540D01*
X8070636Y-22567849D01*
X7778729Y-22446638D01*
X7462658Y-22446363D01*
X7177953Y-22564000D01*
X5723157Y-22564000D01*
X5749746Y-22524208D01*
X5749746Y-22524207D01*
X5784000Y-22352000D01*
X5784000Y-20887396D01*
X6168396Y-20503000D01*
X6215180Y-20503000D01*
X6201143Y-20573000D01*
X6201143Y-21133000D01*
X6224810Y-21254983D01*
X6201143Y-21373000D01*
X6201143Y-21933000D01*
X6227036Y-22066454D01*
X6304086Y-22183747D01*
X6420403Y-22262263D01*
X6558000Y-22289857D01*
X8158000Y-22289857D01*
X8291454Y-22263964D01*
X8408747Y-22186914D01*
X8487263Y-22070597D01*
X8514857Y-21933000D01*
X8514857Y-21373000D01*
X8501275Y-21303000D01*
X9683604Y-21303000D01*
X8889802Y-22096802D01*
X8792254Y-22242792D01*
X8762337Y-22393193D01*
X8677253Y-22449086D01*
X8598737Y-22565403D01*
X8571143Y-22703000D01*
X8571143Y-24303000D01*
X8597036Y-24436454D01*
X8674086Y-24553747D01*
X8790403Y-24632263D01*
X8928000Y-24659857D01*
X9488000Y-24659857D01*
X9609983Y-24636189D01*
X9728000Y-24659857D01*
X10288000Y-24659857D01*
X10409983Y-24636189D01*
X10528000Y-24659857D01*
X11088000Y-24659857D01*
X11209983Y-24636189D01*
X11328000Y-24659857D01*
X11888000Y-24659857D01*
X12009983Y-24636189D01*
X12128000Y-24659857D01*
X12676747Y-24659857D01*
X12005604Y-25331000D01*
X8890000Y-25331000D01*
X8717792Y-25365254D01*
X8571802Y-25462802D01*
X8064961Y-25969643D01*
X8007000Y-25969643D01*
X7873546Y-25995536D01*
X7756253Y-26072586D01*
X7677737Y-26188903D01*
X7650143Y-26326500D01*
X7650143Y-27526500D01*
X7676036Y-27659954D01*
X7753086Y-27777247D01*
X7864605Y-27852524D01*
X7780418Y-27887396D01*
X7667896Y-27999918D01*
X7607000Y-28146935D01*
X7607000Y-28701500D01*
X7707000Y-28801500D01*
X8357000Y-28801500D01*
X8357000Y-28781500D01*
X8407000Y-28781500D01*
X8407000Y-28801500D01*
X9057000Y-28801500D01*
X9157000Y-28701500D01*
X9157000Y-28146935D01*
X9096104Y-27999918D01*
X8983582Y-27887396D01*
X8898522Y-27852163D01*
X9007747Y-27780414D01*
X9086263Y-27664097D01*
X9113857Y-27526500D01*
X9113857Y-26326500D01*
X9095327Y-26231000D01*
X12192000Y-26231000D01*
X12364207Y-26196746D01*
X12364208Y-26196746D01*
X12510198Y-26099198D01*
X13526198Y-25083198D01*
X13623746Y-24937208D01*
X13623746Y-24937207D01*
X13658000Y-24765000D01*
X13658000Y-24703000D01*
X13807565Y-24703000D01*
X13883000Y-24703000D01*
X13983000Y-24603000D01*
X13983000Y-23528000D01*
X13963000Y-23528000D01*
X13963000Y-23478000D01*
X13983000Y-23478000D01*
X13983000Y-23458000D01*
X14033000Y-23458000D01*
X14033000Y-23478000D01*
X14053000Y-23478000D01*
X14053000Y-23528000D01*
X14033000Y-23528000D01*
X14033000Y-24603000D01*
X14133000Y-24703000D01*
X14208435Y-24703000D01*
X14358000Y-24703000D01*
X14358000Y-26244143D01*
X13327000Y-26244143D01*
X13193546Y-26270036D01*
X13076253Y-26347086D01*
X12997737Y-26463403D01*
X12970143Y-26601000D01*
X12970143Y-27501000D01*
X12996036Y-27634454D01*
X13073086Y-27751747D01*
X13189403Y-27830263D01*
X13327000Y-27857857D01*
X14527000Y-27857857D01*
X14660454Y-27831964D01*
X14777747Y-27754914D01*
X14856263Y-27638597D01*
X14883857Y-27501000D01*
X14883857Y-27395484D01*
X14923198Y-27369198D01*
X15126198Y-27166198D01*
X15158000Y-27118603D01*
X15158000Y-27893604D01*
X14870166Y-28181437D01*
X14857964Y-28118546D01*
X14780914Y-28001253D01*
X14664597Y-27922737D01*
X14527000Y-27895143D01*
X13327000Y-27895143D01*
X13193546Y-27921036D01*
X13076253Y-27998086D01*
X12997737Y-28114403D01*
X12970143Y-28252000D01*
X12970143Y-29152000D01*
X12996036Y-29285454D01*
X13073086Y-29402747D01*
X13189403Y-29481263D01*
X13327000Y-29508857D01*
X14527000Y-29508857D01*
X14660454Y-29482964D01*
X14777747Y-29405914D01*
X14856263Y-29289597D01*
X14883857Y-29152000D01*
X14986000Y-29152000D01*
X15158207Y-29117746D01*
X15158208Y-29117746D01*
X15304198Y-29020198D01*
X15858000Y-28466396D01*
X15858000Y-29917182D01*
X15231177Y-30544004D01*
X15152161Y-30511194D01*
X14709780Y-30510808D01*
X14300926Y-30679743D01*
X13987842Y-30992280D01*
X13818194Y-31400839D01*
X13817808Y-31843220D01*
X13986743Y-32252074D01*
X14299280Y-32565158D01*
X14707839Y-32734806D01*
X15150220Y-32735192D01*
X15559074Y-32566257D01*
X15872158Y-32253720D01*
X16041806Y-31845161D01*
X16042192Y-31402780D01*
X16008815Y-31322002D01*
X16796905Y-30533911D01*
X16796909Y-30533909D01*
X16796909Y-30533908D01*
X16916134Y-30355476D01*
X16958000Y-30145000D01*
X16958001Y-30145000D01*
X16958000Y-30144994D01*
X16958000Y-27363791D01*
X17064024Y-27434634D01*
X17274500Y-27476500D01*
X17302143Y-27476500D01*
X17302143Y-27526500D01*
X17328036Y-27659954D01*
X17405086Y-27777247D01*
X17516605Y-27852524D01*
X17432418Y-27887396D01*
X17319896Y-27999918D01*
X17259000Y-28146935D01*
X17259000Y-28701500D01*
X17359000Y-28801500D01*
X18009000Y-28801500D01*
X18009000Y-28781500D01*
X18059000Y-28781500D01*
X18059000Y-28801500D01*
X18709000Y-28801500D01*
X18809000Y-28701500D01*
X18809000Y-28146935D01*
X18748104Y-27999918D01*
X18635582Y-27887396D01*
X18550522Y-27852163D01*
X18659747Y-27780414D01*
X18738263Y-27664097D01*
X18765857Y-27526500D01*
X18765857Y-26326500D01*
X18739964Y-26193046D01*
X18662914Y-26075753D01*
X18546597Y-25997237D01*
X18409000Y-25969643D01*
X17659000Y-25969643D01*
X17525546Y-25995536D01*
X17408253Y-26072586D01*
X17329737Y-26188903D01*
X17327228Y-26201410D01*
X16958000Y-25832182D01*
X16958000Y-24659857D01*
X17488000Y-24659857D01*
X17621454Y-24633964D01*
X17738747Y-24556914D01*
X17817263Y-24440597D01*
X17844857Y-24303000D01*
X17844857Y-22703000D01*
X17818964Y-22569546D01*
X17741914Y-22452253D01*
X17625597Y-22373737D01*
X17488000Y-22346143D01*
X16928000Y-22346143D01*
X16806016Y-22369810D01*
X16757833Y-22360147D01*
X16726198Y-22312802D01*
X16320198Y-21906802D01*
X16174208Y-21809254D01*
X16002000Y-21775000D01*
X12827000Y-21775000D01*
X12654792Y-21809254D01*
X12508802Y-21906802D01*
X12089802Y-22325802D01*
X12068496Y-22357687D01*
X12068496Y-22357688D01*
X12006016Y-22369810D01*
X11910285Y-22350612D01*
X12002198Y-22289198D01*
X12710345Y-21581050D01*
X12757364Y-21628151D01*
X13049271Y-21749362D01*
X13365342Y-21749637D01*
X13657460Y-21628937D01*
X13881151Y-21405636D01*
X14002362Y-21113729D01*
X14002637Y-20797658D01*
X13881937Y-20505540D01*
X13658636Y-20281849D01*
X13368162Y-20161233D01*
X13399198Y-20130198D01*
X13496746Y-19984208D01*
X13496747Y-19984207D01*
X13531000Y-19812000D01*
X13531000Y-19088397D01*
X13754151Y-18865636D01*
X13875362Y-18573729D01*
X13875637Y-18257658D01*
X13811733Y-18103000D01*
X14672604Y-18103000D01*
X15679000Y-19109396D01*
X15679000Y-19392602D01*
X15455849Y-19615364D01*
X15334638Y-19907271D01*
X15334363Y-20223342D01*
X15455063Y-20515460D01*
X15678364Y-20739151D01*
X15969582Y-20860076D01*
X15969363Y-21112342D01*
X16090063Y-21404460D01*
X16313364Y-21628151D01*
X16605271Y-21749362D01*
X16921342Y-21749637D01*
X17213460Y-21628937D01*
X17437151Y-21405636D01*
X17558362Y-21113729D01*
X17558637Y-20797658D01*
X17450370Y-20535631D01*
X17468000Y-20447000D01*
X17468000Y-19685000D01*
X17433746Y-19512792D01*
X17336198Y-19366802D01*
X17214000Y-19244604D01*
X17214000Y-18923000D01*
X17179746Y-18750793D01*
X17179746Y-18750792D01*
X17082198Y-18604802D01*
X15177198Y-16699802D01*
X15031208Y-16602254D01*
X14859000Y-16568000D01*
X13521396Y-16568000D01*
X13399198Y-16445802D01*
X13023000Y-16069604D01*
X13023000Y-13970000D01*
X12988746Y-13797793D01*
X12988746Y-13797792D01*
X12891198Y-13651802D01*
X12199253Y-12959857D01*
X12688000Y-12959857D01*
X12809983Y-12936189D01*
X12928000Y-12959857D01*
X13488000Y-12959857D01*
X13609983Y-12936189D01*
X13728000Y-12959857D01*
X14288000Y-12959857D01*
X14366288Y-12944667D01*
X14392254Y-13075208D01*
X14489802Y-13221198D01*
X15425000Y-14156396D01*
X15425000Y-15201602D01*
X15201849Y-15424364D01*
X15080638Y-15716271D01*
X15080363Y-16032342D01*
X15201063Y-16324460D01*
X15424364Y-16548151D01*
X15716271Y-16669362D01*
X16032342Y-16669637D01*
X16324460Y-16548937D01*
X16548151Y-16325636D01*
X16669362Y-16033729D01*
X16669637Y-15717658D01*
X16548937Y-15425540D01*
X16325636Y-15201849D01*
X16325000Y-15201584D01*
X16325000Y-13970000D01*
X16290746Y-13797793D01*
X16290746Y-13797792D01*
X16193198Y-13651802D01*
X15501253Y-12959857D01*
X15888000Y-12959857D01*
X16009983Y-12936189D01*
X16128000Y-12959857D01*
X16688000Y-12959857D01*
X16726325Y-12952420D01*
X16848435Y-13003000D01*
X17007565Y-13003000D01*
X17083000Y-13003000D01*
X17183000Y-12903000D01*
X17183000Y-11828000D01*
X17163000Y-11828000D01*
X17163000Y-11778000D01*
X17183000Y-11778000D01*
X17183000Y-10703000D01*
X17083000Y-10603000D01*
X17007565Y-10603000D01*
X16848435Y-10603000D01*
X16725919Y-10653747D01*
X16688000Y-10646143D01*
X16128000Y-10646143D01*
X16006016Y-10669810D01*
X15888000Y-10646143D01*
X15328000Y-10646143D01*
X15206016Y-10669810D01*
X15088000Y-10646143D01*
X14528000Y-10646143D01*
X14468867Y-10657616D01*
X14643151Y-10483636D01*
X14732645Y-10268111D01*
X14916364Y-10452151D01*
X15208271Y-10573362D01*
X15524342Y-10573637D01*
X15816460Y-10452937D01*
X16040151Y-10229636D01*
X16040415Y-10229000D01*
X16129000Y-10229000D01*
X16301207Y-10194746D01*
X16301208Y-10194746D01*
X16447198Y-10097198D01*
X18220396Y-8324000D01*
X19879604Y-8324000D01*
X20261478Y-8705874D01*
X20165253Y-8769086D01*
X20089975Y-8880605D01*
X20055104Y-8796418D01*
X19942582Y-8683896D01*
X19795565Y-8623000D01*
X19241000Y-8623000D01*
X19141000Y-8723000D01*
X19141000Y-9373000D01*
X19161000Y-9373000D01*
X19161000Y-9423000D01*
X19141000Y-9423000D01*
X19141000Y-10073000D01*
X19241000Y-10173000D01*
X19795565Y-10173000D01*
X19942582Y-10112104D01*
X20055104Y-9999582D01*
X20090336Y-9914522D01*
X20162086Y-10023747D01*
X20278403Y-10102263D01*
X20416000Y-10129857D01*
X20566000Y-10129857D01*
X20566000Y-10420604D01*
X19091000Y-11895604D01*
X19091000Y-10073000D01*
X19091000Y-9423000D01*
X19091000Y-9373000D01*
X19091000Y-8723000D01*
X18991000Y-8623000D01*
X18436435Y-8623000D01*
X18289418Y-8683896D01*
X18176896Y-8796418D01*
X18116000Y-8943435D01*
X18116000Y-9102565D01*
X18116000Y-9273000D01*
X18216000Y-9373000D01*
X19091000Y-9373000D01*
X19091000Y-9423000D01*
X18216000Y-9423000D01*
X18116000Y-9523000D01*
X18116000Y-9693435D01*
X18116000Y-9852565D01*
X18176896Y-9999582D01*
X18289418Y-10112104D01*
X18436435Y-10173000D01*
X18991000Y-10173000D01*
X19091000Y-10073000D01*
X19091000Y-11895604D01*
X18739802Y-12246802D01*
X18642254Y-12392792D01*
X18608000Y-12565000D01*
X18608000Y-13016143D01*
X18258000Y-13016143D01*
X18124546Y-13042036D01*
X18007253Y-13119086D01*
X17928737Y-13235403D01*
X17901143Y-13373000D01*
X17901143Y-13933000D01*
X17908579Y-13971325D01*
X17888000Y-14021007D01*
X17888000Y-12682565D01*
X17888000Y-11928000D01*
X17888000Y-11678000D01*
X17888000Y-10923435D01*
X17827104Y-10776418D01*
X17714582Y-10663896D01*
X17567565Y-10603000D01*
X17408435Y-10603000D01*
X17333000Y-10603000D01*
X17233000Y-10703000D01*
X17233000Y-11778000D01*
X17788000Y-11778000D01*
X17888000Y-11678000D01*
X17888000Y-11928000D01*
X17788000Y-11828000D01*
X17233000Y-11828000D01*
X17233000Y-12903000D01*
X17333000Y-13003000D01*
X17408435Y-13003000D01*
X17567565Y-13003000D01*
X17714582Y-12942104D01*
X17827104Y-12829582D01*
X17888000Y-12682565D01*
X17888000Y-14021007D01*
X17858000Y-14093435D01*
X17858000Y-14252565D01*
X17858000Y-14328000D01*
X17958000Y-14428000D01*
X19033000Y-14428000D01*
X19033000Y-14408000D01*
X19083000Y-14408000D01*
X19083000Y-14428000D01*
X20158000Y-14428000D01*
X20258000Y-14328000D01*
X20258000Y-14252565D01*
X20258000Y-14103000D01*
X20324604Y-14103000D01*
X20632000Y-14410396D01*
X20632000Y-20895604D01*
X20324604Y-21203000D01*
X20258000Y-21203000D01*
X20258000Y-21053435D01*
X20258000Y-20978000D01*
X20258000Y-20728000D01*
X20258000Y-20652565D01*
X20258000Y-20493435D01*
X20207252Y-20370919D01*
X20214857Y-20333000D01*
X20214857Y-19773000D01*
X20191189Y-19651016D01*
X20214857Y-19533000D01*
X20214857Y-18973000D01*
X20191189Y-18851016D01*
X20214857Y-18733000D01*
X20214857Y-18173000D01*
X20191189Y-18051016D01*
X20214857Y-17933000D01*
X20214857Y-17373000D01*
X20191189Y-17251016D01*
X20214857Y-17133000D01*
X20214857Y-16573000D01*
X20191189Y-16451016D01*
X20214857Y-16333000D01*
X20214857Y-15773000D01*
X20191189Y-15651016D01*
X20214857Y-15533000D01*
X20214857Y-14973000D01*
X20207420Y-14934674D01*
X20258000Y-14812565D01*
X20258000Y-14653435D01*
X20258000Y-14578000D01*
X20158000Y-14478000D01*
X19083000Y-14478000D01*
X19083000Y-14498000D01*
X19033000Y-14498000D01*
X19033000Y-14478000D01*
X17958000Y-14478000D01*
X17858000Y-14578000D01*
X17858000Y-14653435D01*
X17858000Y-14812565D01*
X17908747Y-14935080D01*
X17901143Y-14973000D01*
X17901143Y-15533000D01*
X17924810Y-15654983D01*
X17901143Y-15773000D01*
X17901143Y-16333000D01*
X17924810Y-16454983D01*
X17901143Y-16573000D01*
X17901143Y-17133000D01*
X17924810Y-17254983D01*
X17901143Y-17373000D01*
X17901143Y-17933000D01*
X17924810Y-18054983D01*
X17901143Y-18173000D01*
X17901143Y-18733000D01*
X17924810Y-18854983D01*
X17901143Y-18973000D01*
X17901143Y-19533000D01*
X17924810Y-19654983D01*
X17901143Y-19773000D01*
X17901143Y-20333000D01*
X17908579Y-20371325D01*
X17858000Y-20493435D01*
X17858000Y-20652565D01*
X17858000Y-20728000D01*
X17958000Y-20828000D01*
X19033000Y-20828000D01*
X19033000Y-20808000D01*
X19083000Y-20808000D01*
X19083000Y-20828000D01*
X20158000Y-20828000D01*
X20258000Y-20728000D01*
X20258000Y-20978000D01*
X20158000Y-20878000D01*
X19083000Y-20878000D01*
X19083000Y-20898000D01*
X19033000Y-20898000D01*
X19033000Y-20878000D01*
X17958000Y-20878000D01*
X17858000Y-20978000D01*
X17858000Y-21053435D01*
X17858000Y-21212565D01*
X17908747Y-21335080D01*
X17901143Y-21373000D01*
X17901143Y-21933000D01*
X17927036Y-22066454D01*
X18004086Y-22183747D01*
X18120403Y-22262263D01*
X18258000Y-22289857D01*
X19858000Y-22289857D01*
X19991454Y-22263964D01*
X20108747Y-22186914D01*
X20165390Y-22103000D01*
X20511000Y-22103000D01*
X20683207Y-22068746D01*
X20683208Y-22068746D01*
X20829198Y-21971198D01*
X21400198Y-21400198D01*
X21497746Y-21254208D01*
X21497746Y-21254207D01*
X21532000Y-21082000D01*
X21532000Y-14224000D01*
X21497746Y-14051793D01*
X21497746Y-14051792D01*
X21400198Y-13905802D01*
X20829198Y-13334802D01*
X20683208Y-13237254D01*
X20511000Y-13203000D01*
X20164956Y-13203000D01*
X20111914Y-13122253D01*
X19995597Y-13043737D01*
X19858000Y-13016143D01*
X19508000Y-13016143D01*
X19508000Y-12751396D01*
X21334198Y-10925198D01*
X21431746Y-10779208D01*
X21431746Y-10779207D01*
X21466000Y-10607000D01*
X21466000Y-10129857D01*
X21616000Y-10129857D01*
X21749454Y-10103964D01*
X21866747Y-10026914D01*
X21945263Y-9910597D01*
X21972857Y-9773000D01*
X21972857Y-31418269D01*
X21677603Y-31477000D01*
X19685000Y-31477000D01*
X19646359Y-31484686D01*
X19606965Y-31484686D01*
X19412561Y-31523354D01*
X19412560Y-31523355D01*
X19310600Y-31565588D01*
X19268370Y-31583081D01*
X19268369Y-31583081D01*
X19268368Y-31583082D01*
X19103563Y-31693201D01*
X19103562Y-31693202D01*
X19103561Y-31693203D01*
X18993203Y-31803561D01*
X18993202Y-31803562D01*
X18993201Y-31803563D01*
X18883082Y-31968368D01*
X18883081Y-31968369D01*
X18848094Y-32052834D01*
X18823355Y-32112560D01*
X18823354Y-32112561D01*
X18809000Y-32184725D01*
X18809000Y-29506065D01*
X18809000Y-28951500D01*
X18709000Y-28851500D01*
X18059000Y-28851500D01*
X18059000Y-29726500D01*
X18159000Y-29826500D01*
X18329435Y-29826500D01*
X18488565Y-29826500D01*
X18635582Y-29765604D01*
X18748104Y-29653082D01*
X18809000Y-29506065D01*
X18809000Y-32184725D01*
X18784686Y-32306964D01*
X18784686Y-32346359D01*
X18777000Y-32385000D01*
X18777000Y-35393604D01*
X18703535Y-35762936D01*
X18630000Y-35872988D01*
X18630000Y-34698000D01*
X18630000Y-34048000D01*
X18630000Y-33998000D01*
X18630000Y-33348000D01*
X18517670Y-32833280D01*
X18216916Y-32400728D01*
X18009000Y-32267304D01*
X18009000Y-29726500D01*
X18009000Y-28851500D01*
X17359000Y-28851500D01*
X17259000Y-28951500D01*
X17259000Y-29506065D01*
X17319896Y-29653082D01*
X17432418Y-29765604D01*
X17579435Y-29826500D01*
X17738565Y-29826500D01*
X17909000Y-29826500D01*
X18009000Y-29726500D01*
X18009000Y-32267304D01*
X17773525Y-32116196D01*
X17515842Y-32043761D01*
X17305000Y-32123250D01*
X17305000Y-33998000D01*
X18630000Y-33998000D01*
X18630000Y-34048000D01*
X17305000Y-34048000D01*
X17305000Y-35922750D01*
X17515842Y-36002239D01*
X17773525Y-35929804D01*
X18216916Y-35645272D01*
X18517670Y-35212720D01*
X18630000Y-34698000D01*
X18630000Y-35872988D01*
X18516642Y-36042641D01*
X18236935Y-36229535D01*
X17867604Y-36303000D01*
X17255000Y-36303000D01*
X17255000Y-35922750D01*
X17255000Y-34048000D01*
X17255000Y-33998000D01*
X17255000Y-32123250D01*
X17044158Y-32043761D01*
X16786475Y-32116196D01*
X16343084Y-32400728D01*
X16042330Y-32833280D01*
X15930000Y-33348000D01*
X15930000Y-33998000D01*
X17255000Y-33998000D01*
X17255000Y-34048000D01*
X15930000Y-34048000D01*
X15930000Y-34698000D01*
X16042330Y-35212720D01*
X16343084Y-35645272D01*
X16786475Y-35929804D01*
X17044158Y-36002239D01*
X17255000Y-35922750D01*
X17255000Y-36303000D01*
X14580156Y-36303000D01*
X14580156Y-33844764D01*
X14443428Y-33513857D01*
X14190475Y-33260462D01*
X13859806Y-33123157D01*
X13542192Y-33122879D01*
X13542192Y-31402780D01*
X13373257Y-30993926D01*
X13060720Y-30680842D01*
X12652161Y-30511194D01*
X12209780Y-30510808D01*
X12028929Y-30585533D01*
X10864000Y-29420604D01*
X10864000Y-29388915D01*
X10873086Y-29402747D01*
X10989403Y-29481263D01*
X11127000Y-29508857D01*
X12327000Y-29508857D01*
X12460454Y-29482964D01*
X12577747Y-29405914D01*
X12656263Y-29289597D01*
X12683857Y-29152000D01*
X12683857Y-28252000D01*
X12657964Y-28118546D01*
X12580914Y-28001253D01*
X12464597Y-27922737D01*
X12327000Y-27895143D01*
X11127000Y-27895143D01*
X10993546Y-27921036D01*
X10876253Y-27998086D01*
X10797737Y-28114403D01*
X10770143Y-28252000D01*
X10668000Y-28252000D01*
X10495792Y-28286254D01*
X10349802Y-28383802D01*
X10229000Y-28504604D01*
X10229000Y-27745396D01*
X10473396Y-27501000D01*
X10770143Y-27501000D01*
X10796036Y-27634454D01*
X10873086Y-27751747D01*
X10989403Y-27830263D01*
X11127000Y-27857857D01*
X12327000Y-27857857D01*
X12460454Y-27831964D01*
X12577747Y-27754914D01*
X12656263Y-27638597D01*
X12683857Y-27501000D01*
X12683857Y-26601000D01*
X12657964Y-26467546D01*
X12580914Y-26350253D01*
X12464597Y-26271737D01*
X12327000Y-26244143D01*
X11127000Y-26244143D01*
X10993546Y-26270036D01*
X10876253Y-26347086D01*
X10797737Y-26463403D01*
X10770143Y-26601000D01*
X10287000Y-26601000D01*
X10114792Y-26635254D01*
X9968802Y-26732802D01*
X9460802Y-27240802D01*
X9363254Y-27386792D01*
X9329000Y-27559000D01*
X9329000Y-29718000D01*
X9363254Y-29890208D01*
X9460802Y-30036198D01*
X9980000Y-30555396D01*
X9980000Y-30605751D01*
X9800926Y-30679743D01*
X9487842Y-30992280D01*
X9318194Y-31400839D01*
X9317808Y-31843220D01*
X9486743Y-32252074D01*
X9799280Y-32565158D01*
X10207839Y-32734806D01*
X10650220Y-32735192D01*
X11059074Y-32566257D01*
X11372158Y-32253720D01*
X11429932Y-32114582D01*
X11486743Y-32252074D01*
X11799280Y-32565158D01*
X12207839Y-32734806D01*
X12650220Y-32735192D01*
X13059074Y-32566257D01*
X13372158Y-32253720D01*
X13541806Y-31845161D01*
X13542192Y-31402780D01*
X13542192Y-33122879D01*
X13501764Y-33122844D01*
X13170857Y-33259572D01*
X12917462Y-33512525D01*
X12780157Y-33843194D01*
X12779844Y-34201236D01*
X12916572Y-34532143D01*
X13169525Y-34785538D01*
X13500194Y-34922843D01*
X13858236Y-34923156D01*
X14189143Y-34786428D01*
X14442538Y-34533475D01*
X14579843Y-34202806D01*
X14580156Y-33844764D01*
X14580156Y-36303000D01*
X10080156Y-36303000D01*
X10080156Y-33844764D01*
X9943428Y-33513857D01*
X9690475Y-33260462D01*
X9359806Y-33123157D01*
X9157000Y-33122979D01*
X9157000Y-29506065D01*
X9157000Y-28951500D01*
X9057000Y-28851500D01*
X8407000Y-28851500D01*
X8407000Y-29726500D01*
X8507000Y-29826500D01*
X8677435Y-29826500D01*
X8836565Y-29826500D01*
X8983582Y-29765604D01*
X9096104Y-29653082D01*
X9157000Y-29506065D01*
X9157000Y-33122979D01*
X9096007Y-33122926D01*
X9096007Y-31413011D01*
X8926890Y-30982784D01*
X8902976Y-30946993D01*
X8714519Y-30873837D01*
X8679163Y-30909192D01*
X8679163Y-30838481D01*
X8606007Y-30650024D01*
X8357000Y-30541541D01*
X8357000Y-29726500D01*
X8357000Y-28851500D01*
X7707000Y-28851500D01*
X7607000Y-28951500D01*
X7607000Y-29506065D01*
X7667896Y-29653082D01*
X7780418Y-29765604D01*
X7927435Y-29826500D01*
X8086565Y-29826500D01*
X8257000Y-29826500D01*
X8357000Y-29726500D01*
X8357000Y-30541541D01*
X8182207Y-30465391D01*
X7720011Y-30456993D01*
X7289784Y-30626110D01*
X7253993Y-30650024D01*
X7180837Y-30838481D01*
X7930000Y-31587645D01*
X8679163Y-30838481D01*
X8679163Y-30909192D01*
X7965355Y-31623000D01*
X8714519Y-32372163D01*
X8902976Y-32299007D01*
X9087609Y-31875207D01*
X9096007Y-31413011D01*
X9096007Y-33122926D01*
X9001764Y-33122844D01*
X8679163Y-33256140D01*
X8679163Y-32407519D01*
X7930000Y-31658355D01*
X7894645Y-31693710D01*
X7894645Y-31623000D01*
X7145481Y-30873837D01*
X6957024Y-30946993D01*
X6772391Y-31370793D01*
X6763993Y-31832989D01*
X6933110Y-32263216D01*
X6957024Y-32299007D01*
X7145481Y-32372163D01*
X7894645Y-31623000D01*
X7894645Y-31693710D01*
X7180837Y-32407519D01*
X7253993Y-32595976D01*
X7677793Y-32780609D01*
X8139989Y-32789007D01*
X8570216Y-32619890D01*
X8606007Y-32595976D01*
X8679163Y-32407519D01*
X8679163Y-33256140D01*
X8670857Y-33259572D01*
X8417462Y-33512525D01*
X8280157Y-33843194D01*
X8279844Y-34201236D01*
X8416572Y-34532143D01*
X8669525Y-34785538D01*
X9000194Y-34922843D01*
X9358236Y-34923156D01*
X9689143Y-34786428D01*
X9942538Y-34533475D01*
X10079843Y-34202806D01*
X10080156Y-33844764D01*
X10080156Y-36303000D01*
X6930000Y-36303000D01*
X6930000Y-34698000D01*
X6930000Y-34048000D01*
X6930000Y-33998000D01*
X6930000Y-33348000D01*
X6817670Y-32833280D01*
X6516916Y-32400728D01*
X6073525Y-32116196D01*
X5815842Y-32043761D01*
X5605000Y-32123250D01*
X5605000Y-33998000D01*
X6930000Y-33998000D01*
X6930000Y-34048000D01*
X5605000Y-34048000D01*
X5605000Y-35922750D01*
X5815842Y-36002239D01*
X6073525Y-35929804D01*
X6516916Y-35645272D01*
X6817670Y-35212720D01*
X6930000Y-34698000D01*
X6930000Y-36303000D01*
X5555000Y-36303000D01*
X5555000Y-35922750D01*
X5555000Y-34048000D01*
X5555000Y-33998000D01*
X5555000Y-32123250D01*
X5344158Y-32043761D01*
X5086475Y-32116196D01*
X4643084Y-32400728D01*
X4342330Y-32833280D01*
X4230000Y-33348000D01*
X4230000Y-33998000D01*
X5555000Y-33998000D01*
X5555000Y-34048000D01*
X4230000Y-34048000D01*
X4230000Y-34698000D01*
X4342330Y-35212720D01*
X4643084Y-35645272D01*
X5086475Y-35929804D01*
X5344158Y-36002239D01*
X5555000Y-35922750D01*
X5555000Y-36303000D01*
X4865396Y-36303000D01*
X4544665Y-36239202D01*
X4306161Y-36079838D01*
X4146797Y-35841334D01*
X4083000Y-35520603D01*
X4083000Y-32385000D01*
X4075314Y-32346359D01*
X4075314Y-32306965D01*
X4036645Y-32112561D01*
X4036645Y-32112560D01*
X3994411Y-32010600D01*
X3976919Y-31968370D01*
X3976918Y-31968369D01*
X3976918Y-31968368D01*
X3866798Y-31803563D01*
X3866798Y-31803562D01*
X3866797Y-31803561D01*
X3756439Y-31693203D01*
X3756438Y-31693202D01*
X3756436Y-31693201D01*
X3591632Y-31583082D01*
X3591631Y-31583081D01*
X3507166Y-31548094D01*
X3447440Y-31523355D01*
X3447438Y-31523354D01*
X3253036Y-31484686D01*
X3213640Y-31484686D01*
X3175000Y-31477000D01*
X2073000Y-31477000D01*
X2073000Y-23789000D01*
X2073000Y-23139000D01*
X2073000Y-23089000D01*
X2073000Y-22439000D01*
X2073000Y-21757000D01*
X2073000Y-21107000D01*
X2073000Y-21057000D01*
X2073000Y-20407000D01*
X1973000Y-20307000D01*
X1418435Y-20307000D01*
X1271418Y-20367896D01*
X1158896Y-20480418D01*
X1098000Y-20627435D01*
X1098000Y-20786565D01*
X1098000Y-20957000D01*
X1198000Y-21057000D01*
X2073000Y-21057000D01*
X2073000Y-21107000D01*
X1198000Y-21107000D01*
X1098000Y-21207000D01*
X1098000Y-21377435D01*
X1098000Y-21536565D01*
X1158896Y-21683582D01*
X1271418Y-21796104D01*
X1418435Y-21857000D01*
X1973000Y-21857000D01*
X2073000Y-21757000D01*
X2073000Y-22439000D01*
X1973000Y-22339000D01*
X1418435Y-22339000D01*
X1271418Y-22399896D01*
X1158896Y-22512418D01*
X1098000Y-22659435D01*
X1098000Y-22818565D01*
X1098000Y-22989000D01*
X1198000Y-23089000D01*
X2073000Y-23089000D01*
X2073000Y-23139000D01*
X1198000Y-23139000D01*
X1098000Y-23239000D01*
X1098000Y-23409435D01*
X1098000Y-23568565D01*
X1158896Y-23715582D01*
X1271418Y-23828104D01*
X1418435Y-23889000D01*
X1973000Y-23889000D01*
X2073000Y-23789000D01*
X2073000Y-31477000D01*
X1182396Y-31477000D01*
X861665Y-31413202D01*
X623161Y-31253838D01*
X463797Y-31015334D01*
X400000Y-30694603D01*
X400000Y-4865395D01*
X744148Y-3135242D01*
X1701886Y-1701886D01*
X3135242Y-744148D01*
X4865395Y-400000D01*
X17994604Y-400000D01*
X19724757Y-744148D01*
X21158113Y-1701886D01*
X22115851Y-3135242D01*
X22460000Y-4865395D01*
X22460000Y-30694603D01*
X22460000Y-30694603D01*
G37*
X22460000Y-30694603D02*
X22396202Y-31015334D01*
X22236838Y-31253838D01*
X21998334Y-31413202D01*
X21972857Y-31418269D01*
X21972857Y-9773000D01*
X21972857Y-9023000D01*
X21946964Y-8889546D01*
X21869914Y-8772253D01*
X21753597Y-8693737D01*
X21616000Y-8666143D01*
X21434600Y-8666143D01*
X21431746Y-8651793D01*
X21431746Y-8651792D01*
X21334198Y-8505802D01*
X20384198Y-7555802D01*
X20238208Y-7458254D01*
X20066000Y-7424000D01*
X19909304Y-7424000D01*
X19909304Y-4455285D01*
X19638556Y-3749572D01*
X19581811Y-3664648D01*
X19316670Y-3501685D01*
X19281315Y-3537040D01*
X19281315Y-3466330D01*
X19118352Y-3201189D01*
X18427889Y-2893623D01*
X17672285Y-2873696D01*
X16966572Y-3144444D01*
X16881648Y-3201189D01*
X16718685Y-3466330D01*
X18000000Y-4747645D01*
X19281315Y-3466330D01*
X19281315Y-3537040D01*
X18035355Y-4783000D01*
X19316670Y-6064315D01*
X19581811Y-5901352D01*
X19889377Y-5210889D01*
X19909304Y-4455285D01*
X19909304Y-7424000D01*
X19281315Y-7424000D01*
X19281315Y-6099670D01*
X18000000Y-4818355D01*
X17964645Y-4853710D01*
X17964645Y-4783000D01*
X16683330Y-3501685D01*
X16418189Y-3664648D01*
X16110623Y-4355111D01*
X16090696Y-5110715D01*
X16361444Y-5816428D01*
X16418189Y-5901352D01*
X16683330Y-6064315D01*
X17964645Y-4783000D01*
X17964645Y-4853710D01*
X16718685Y-6099670D01*
X16881648Y-6364811D01*
X17572111Y-6672377D01*
X18327715Y-6692304D01*
X19033428Y-6421556D01*
X19118352Y-6364811D01*
X19281315Y-6099670D01*
X19281315Y-7424000D01*
X18034000Y-7424000D01*
X17861792Y-7458254D01*
X17715802Y-7555802D01*
X16090201Y-9181402D01*
X16090201Y-7263274D01*
X15913974Y-6836771D01*
X15587945Y-6510173D01*
X15161751Y-6333202D01*
X14700274Y-6332799D01*
X14273771Y-6509026D01*
X13947173Y-6835055D01*
X13770202Y-7261249D01*
X13769799Y-7722726D01*
X13946026Y-8149229D01*
X14272055Y-8475827D01*
X14698249Y-8652798D01*
X15159726Y-8653201D01*
X15586229Y-8476974D01*
X15912827Y-8150945D01*
X16089798Y-7724751D01*
X16090201Y-7263274D01*
X16090201Y-9181402D01*
X15991543Y-9280060D01*
X15817636Y-9105849D01*
X15525729Y-8984638D01*
X15209658Y-8984363D01*
X15209021Y-8984625D01*
X15177198Y-8952802D01*
X15113698Y-8889302D01*
X14967708Y-8791754D01*
X14795500Y-8757500D01*
X13590201Y-8757500D01*
X13590201Y-7263274D01*
X13413974Y-6836771D01*
X13087945Y-6510173D01*
X12661751Y-6333202D01*
X12200274Y-6332799D01*
X11773771Y-6509026D01*
X11447173Y-6835055D01*
X11430177Y-6875985D01*
X11413974Y-6836771D01*
X11087945Y-6510173D01*
X10661751Y-6333202D01*
X10200274Y-6332799D01*
X9773771Y-6509026D01*
X9447173Y-6835055D01*
X9270202Y-7261249D01*
X9269799Y-7722726D01*
X9446026Y-8149229D01*
X9772055Y-8475827D01*
X10198249Y-8652798D01*
X10659726Y-8653201D01*
X11086229Y-8476974D01*
X11412827Y-8150945D01*
X11429822Y-8110014D01*
X11446026Y-8149229D01*
X11772055Y-8475827D01*
X12198249Y-8652798D01*
X12659726Y-8653201D01*
X13086229Y-8476974D01*
X13412827Y-8150945D01*
X13589798Y-7724751D01*
X13590201Y-7263274D01*
X13590201Y-8757500D01*
X13271500Y-8757500D01*
X13099293Y-8791753D01*
X12953302Y-8889302D01*
X12005604Y-9837000D01*
X10287000Y-9837000D01*
X10114793Y-9871253D01*
X9968802Y-9968802D01*
X9689802Y-10247802D01*
X9592254Y-10393792D01*
X9558000Y-10566000D01*
X9558000Y-10603000D01*
X9408435Y-10603000D01*
X9333000Y-10603000D01*
X9233000Y-10703000D01*
X9233000Y-11778000D01*
X9253000Y-11778000D01*
X9253000Y-11828000D01*
X9233000Y-11828000D01*
X9233000Y-12903000D01*
X9333000Y-13003000D01*
X9408435Y-13003000D01*
X9558000Y-13003000D01*
X9558000Y-18186000D01*
X9558000Y-19142604D01*
X9183000Y-19517604D01*
X9183000Y-12903000D01*
X9183000Y-11828000D01*
X9183000Y-11778000D01*
X9183000Y-10703000D01*
X9144355Y-10664355D01*
X9144355Y-7275353D01*
X8968627Y-6827207D01*
X8942578Y-6788221D01*
X8749133Y-6709222D01*
X8713778Y-6744577D01*
X8713778Y-6673867D01*
X8634779Y-6480422D01*
X8193634Y-6287792D01*
X7712353Y-6278645D01*
X7264207Y-6454373D01*
X7225221Y-6480422D01*
X7146222Y-6673867D01*
X7930000Y-7457645D01*
X8713778Y-6673867D01*
X8713778Y-6744577D01*
X7965355Y-7493000D01*
X8749133Y-8276778D01*
X8942578Y-8197779D01*
X9135208Y-7756634D01*
X9144355Y-7275353D01*
X9144355Y-10664355D01*
X9083000Y-10603000D01*
X9007565Y-10603000D01*
X8848435Y-10603000D01*
X8713778Y-10658776D01*
X8713778Y-8312133D01*
X7930000Y-7528355D01*
X7894645Y-7563710D01*
X7894645Y-7493000D01*
X7110867Y-6709222D01*
X6917422Y-6788221D01*
X6769304Y-7127428D01*
X6769304Y-4455285D01*
X6498556Y-3749572D01*
X6441811Y-3664648D01*
X6176670Y-3501685D01*
X6141315Y-3537040D01*
X6141315Y-3466330D01*
X5978352Y-3201189D01*
X5287889Y-2893623D01*
X4532285Y-2873696D01*
X3826572Y-3144444D01*
X3741648Y-3201189D01*
X3578685Y-3466330D01*
X4860000Y-4747645D01*
X6141315Y-3466330D01*
X6141315Y-3537040D01*
X4895355Y-4783000D01*
X6176670Y-6064315D01*
X6441811Y-5901352D01*
X6749377Y-5210889D01*
X6769304Y-4455285D01*
X6769304Y-7127428D01*
X6724792Y-7229366D01*
X6715645Y-7710647D01*
X6891373Y-8158793D01*
X6917422Y-8197779D01*
X7110867Y-8276778D01*
X7894645Y-7493000D01*
X7894645Y-7563710D01*
X7146222Y-8312133D01*
X7225221Y-8505578D01*
X7666366Y-8698208D01*
X8147647Y-8707355D01*
X8595793Y-8531627D01*
X8634779Y-8505578D01*
X8713778Y-8312133D01*
X8713778Y-10658776D01*
X8701418Y-10663896D01*
X8588896Y-10776418D01*
X8528000Y-10923435D01*
X8528000Y-11678000D01*
X8628000Y-11778000D01*
X9183000Y-11778000D01*
X9183000Y-11828000D01*
X8628000Y-11828000D01*
X8528000Y-11928000D01*
X8528000Y-12682565D01*
X8588896Y-12829582D01*
X8701418Y-12942104D01*
X8848435Y-13003000D01*
X9007565Y-13003000D01*
X9083000Y-13003000D01*
X9183000Y-12903000D01*
X9183000Y-19517604D01*
X9097604Y-19603000D01*
X8558000Y-19603000D01*
X8558000Y-19453435D01*
X8558000Y-19378000D01*
X8458000Y-19278000D01*
X7383000Y-19278000D01*
X7383000Y-19298000D01*
X7333000Y-19298000D01*
X7333000Y-19278000D01*
X6258000Y-19278000D01*
X6158000Y-19378000D01*
X6158000Y-19453435D01*
X6158000Y-19603000D01*
X5982000Y-19603000D01*
X5809792Y-19637254D01*
X5663802Y-19734802D01*
X5015802Y-20382802D01*
X4918254Y-20528792D01*
X4913910Y-20550629D01*
X4851914Y-20456253D01*
X4735597Y-20377737D01*
X4598000Y-20350143D01*
X4448000Y-20350143D01*
X4448000Y-20254000D01*
X4413747Y-20081793D01*
X4413746Y-20081792D01*
X4364439Y-20008000D01*
X4826000Y-20008000D01*
X4998207Y-19973746D01*
X4998208Y-19973746D01*
X5144198Y-19876198D01*
X6117396Y-18903000D01*
X6158000Y-18903000D01*
X6158000Y-19052565D01*
X6158000Y-19128000D01*
X6258000Y-19228000D01*
X7333000Y-19228000D01*
X7333000Y-19208000D01*
X7383000Y-19208000D01*
X7383000Y-19228000D01*
X8458000Y-19228000D01*
X8558000Y-19128000D01*
X8558000Y-19052565D01*
X8558000Y-18893435D01*
X8507252Y-18770919D01*
X8514857Y-18733000D01*
X8514857Y-18173000D01*
X8491189Y-18051016D01*
X8514857Y-17933000D01*
X8514857Y-17373000D01*
X8491189Y-17251016D01*
X8514857Y-17133000D01*
X8514857Y-16573000D01*
X8491189Y-16451016D01*
X8514857Y-16333000D01*
X8514857Y-15773000D01*
X8491189Y-15651016D01*
X8514857Y-15533000D01*
X8514857Y-14973000D01*
X8491189Y-14851016D01*
X8514857Y-14733000D01*
X8514857Y-14173000D01*
X8491189Y-14051016D01*
X8514857Y-13933000D01*
X8514857Y-13373000D01*
X8488964Y-13239546D01*
X8411914Y-13122253D01*
X8295597Y-13043737D01*
X8158000Y-13016143D01*
X6558000Y-13016143D01*
X6424546Y-13042036D01*
X6307253Y-13119086D01*
X6228737Y-13235403D01*
X6201143Y-13373000D01*
X6201143Y-13933000D01*
X6224810Y-14054983D01*
X6201143Y-14173000D01*
X6201143Y-14733000D01*
X6224810Y-14854983D01*
X6201143Y-14973000D01*
X6201143Y-15533000D01*
X6224810Y-15654983D01*
X6201143Y-15773000D01*
X6201143Y-16333000D01*
X6224810Y-16454983D01*
X6201143Y-16573000D01*
X6201143Y-17133000D01*
X6214724Y-17203000D01*
X6141315Y-17203000D01*
X6141315Y-6099670D01*
X4860000Y-4818355D01*
X4824645Y-4853710D01*
X4824645Y-4783000D01*
X3543330Y-3501685D01*
X3278189Y-3664648D01*
X2970623Y-4355111D01*
X2950696Y-5110715D01*
X3221444Y-5816428D01*
X3278189Y-5901352D01*
X3543330Y-6064315D01*
X4824645Y-4783000D01*
X4824645Y-4853710D01*
X3578685Y-6099670D01*
X3741648Y-6364811D01*
X4432111Y-6672377D01*
X5187715Y-6692304D01*
X5893428Y-6421556D01*
X5978352Y-6364811D01*
X6141315Y-6099670D01*
X6141315Y-17203000D01*
X6028396Y-17203000D01*
X5271198Y-16445802D01*
X4804857Y-15979461D01*
X4804857Y-15472000D01*
X4778964Y-15338546D01*
X4701914Y-15221253D01*
X4585597Y-15142737D01*
X4448000Y-15115143D01*
X4298000Y-15115143D01*
X4298000Y-14193857D01*
X4598000Y-14193857D01*
X4731454Y-14167964D01*
X4848747Y-14090914D01*
X4927263Y-13974597D01*
X4954857Y-13837000D01*
X4954857Y-13087000D01*
X4928964Y-12953546D01*
X4851914Y-12836253D01*
X4735597Y-12757737D01*
X4598000Y-12730143D01*
X3398000Y-12730143D01*
X3264546Y-12756036D01*
X3147253Y-12833086D01*
X3071975Y-12944605D01*
X3037104Y-12860418D01*
X2924582Y-12747896D01*
X2777565Y-12687000D01*
X2223000Y-12687000D01*
X2123000Y-12787000D01*
X2123000Y-13437000D01*
X2143000Y-13437000D01*
X2143000Y-13487000D01*
X2123000Y-13487000D01*
X2123000Y-14137000D01*
X2223000Y-14237000D01*
X2777565Y-14237000D01*
X2924582Y-14176104D01*
X3037104Y-14063582D01*
X3072336Y-13978522D01*
X3144086Y-14087747D01*
X3260403Y-14166263D01*
X3398000Y-14193857D01*
X3398000Y-15115143D01*
X3248000Y-15115143D01*
X3114546Y-15141036D01*
X3047917Y-15184804D01*
X2985597Y-15142737D01*
X2848000Y-15115143D01*
X2073000Y-15115143D01*
X2073000Y-14137000D01*
X2073000Y-13487000D01*
X2073000Y-13437000D01*
X2073000Y-12787000D01*
X1973000Y-12687000D01*
X1418435Y-12687000D01*
X1271418Y-12747896D01*
X1158896Y-12860418D01*
X1098000Y-13007435D01*
X1098000Y-13166565D01*
X1098000Y-13337000D01*
X1198000Y-13437000D01*
X2073000Y-13437000D01*
X2073000Y-13487000D01*
X1198000Y-13487000D01*
X1098000Y-13587000D01*
X1098000Y-13757435D01*
X1098000Y-13916565D01*
X1158896Y-14063582D01*
X1271418Y-14176104D01*
X1418435Y-14237000D01*
X1973000Y-14237000D01*
X2073000Y-14137000D01*
X2073000Y-15115143D01*
X1648000Y-15115143D01*
X1514546Y-15141036D01*
X1397253Y-15218086D01*
X1318737Y-15334403D01*
X1291143Y-15472000D01*
X1291143Y-16872000D01*
X1317036Y-17005454D01*
X1394086Y-17122747D01*
X1510403Y-17201263D01*
X1648000Y-17228857D01*
X2848000Y-17228857D01*
X2981454Y-17202964D01*
X3048082Y-17159195D01*
X3110403Y-17201263D01*
X3248000Y-17228857D01*
X4448000Y-17228857D01*
X4581454Y-17202964D01*
X4686538Y-17133934D01*
X5523802Y-17971198D01*
X5669792Y-18068746D01*
X5669793Y-18068746D01*
X5702056Y-18075163D01*
X5612802Y-18134802D01*
X4804857Y-18942747D01*
X4804857Y-17672000D01*
X4778964Y-17538546D01*
X4701914Y-17421253D01*
X4585597Y-17342737D01*
X4448000Y-17315143D01*
X3248000Y-17315143D01*
X3114546Y-17341036D01*
X3047917Y-17384804D01*
X2985597Y-17342737D01*
X2848000Y-17315143D01*
X1648000Y-17315143D01*
X1514546Y-17341036D01*
X1397253Y-17418086D01*
X1318737Y-17534403D01*
X1291143Y-17672000D01*
X1291143Y-19072000D01*
X1317036Y-19205454D01*
X1394086Y-19322747D01*
X1510403Y-19401263D01*
X1648000Y-19428857D01*
X1910865Y-19428857D01*
X1929802Y-19457198D01*
X2348802Y-19876198D01*
X2494792Y-19973746D01*
X2667000Y-20008000D01*
X3115604Y-20008000D01*
X3457747Y-20350143D01*
X3398000Y-20350143D01*
X3264546Y-20376036D01*
X3147253Y-20453086D01*
X3071975Y-20564605D01*
X3037104Y-20480418D01*
X2924582Y-20367896D01*
X2777565Y-20307000D01*
X2223000Y-20307000D01*
X2123000Y-20407000D01*
X2123000Y-21057000D01*
X2143000Y-21057000D01*
X2143000Y-21107000D01*
X2123000Y-21107000D01*
X2123000Y-21757000D01*
X2223000Y-21857000D01*
X2777565Y-21857000D01*
X2924582Y-21796104D01*
X3037104Y-21683582D01*
X3072336Y-21598522D01*
X3144086Y-21707747D01*
X3260403Y-21786263D01*
X3398000Y-21813857D01*
X4598000Y-21813857D01*
X4731454Y-21787964D01*
X4848747Y-21710914D01*
X4884000Y-21658688D01*
X4884000Y-22165604D01*
X4655858Y-22393745D01*
X4598000Y-22382143D01*
X3398000Y-22382143D01*
X3264546Y-22408036D01*
X3147253Y-22485086D01*
X3071975Y-22596605D01*
X3037104Y-22512418D01*
X2924582Y-22399896D01*
X2777565Y-22339000D01*
X2223000Y-22339000D01*
X2123000Y-22439000D01*
X2123000Y-23089000D01*
X2143000Y-23089000D01*
X2143000Y-23139000D01*
X2123000Y-23139000D01*
X2123000Y-23789000D01*
X2223000Y-23889000D01*
X2777565Y-23889000D01*
X2924582Y-23828104D01*
X3037104Y-23715582D01*
X3072336Y-23630522D01*
X3144086Y-23739747D01*
X3260403Y-23818263D01*
X3398000Y-23845857D01*
X4598000Y-23845857D01*
X4731454Y-23819964D01*
X4848747Y-23742914D01*
X4902015Y-23664000D01*
X6935130Y-23664000D01*
X6946063Y-23690460D01*
X7169364Y-23914151D01*
X7461271Y-24035362D01*
X7777342Y-24035637D01*
X8069460Y-23914937D01*
X8293151Y-23691636D01*
X8414362Y-23399729D01*
X8414637Y-23083658D01*
X8293937Y-22791540D01*
X8070636Y-22567849D01*
X7778729Y-22446638D01*
X7462658Y-22446363D01*
X7177953Y-22564000D01*
X5723157Y-22564000D01*
X5749746Y-22524208D01*
X5749746Y-22524207D01*
X5784000Y-22352000D01*
X5784000Y-20887396D01*
X6168396Y-20503000D01*
X6215180Y-20503000D01*
X6201143Y-20573000D01*
X6201143Y-21133000D01*
X6224810Y-21254983D01*
X6201143Y-21373000D01*
X6201143Y-21933000D01*
X6227036Y-22066454D01*
X6304086Y-22183747D01*
X6420403Y-22262263D01*
X6558000Y-22289857D01*
X8158000Y-22289857D01*
X8291454Y-22263964D01*
X8408747Y-22186914D01*
X8487263Y-22070597D01*
X8514857Y-21933000D01*
X8514857Y-21373000D01*
X8501275Y-21303000D01*
X9683604Y-21303000D01*
X8889802Y-22096802D01*
X8792254Y-22242792D01*
X8762337Y-22393193D01*
X8677253Y-22449086D01*
X8598737Y-22565403D01*
X8571143Y-22703000D01*
X8571143Y-24303000D01*
X8597036Y-24436454D01*
X8674086Y-24553747D01*
X8790403Y-24632263D01*
X8928000Y-24659857D01*
X9488000Y-24659857D01*
X9609983Y-24636189D01*
X9728000Y-24659857D01*
X10288000Y-24659857D01*
X10409983Y-24636189D01*
X10528000Y-24659857D01*
X11088000Y-24659857D01*
X11209983Y-24636189D01*
X11328000Y-24659857D01*
X11888000Y-24659857D01*
X12009983Y-24636189D01*
X12128000Y-24659857D01*
X12676747Y-24659857D01*
X12005604Y-25331000D01*
X8890000Y-25331000D01*
X8717792Y-25365254D01*
X8571802Y-25462802D01*
X8064961Y-25969643D01*
X8007000Y-25969643D01*
X7873546Y-25995536D01*
X7756253Y-26072586D01*
X7677737Y-26188903D01*
X7650143Y-26326500D01*
X7650143Y-27526500D01*
X7676036Y-27659954D01*
X7753086Y-27777247D01*
X7864605Y-27852524D01*
X7780418Y-27887396D01*
X7667896Y-27999918D01*
X7607000Y-28146935D01*
X7607000Y-28701500D01*
X7707000Y-28801500D01*
X8357000Y-28801500D01*
X8357000Y-28781500D01*
X8407000Y-28781500D01*
X8407000Y-28801500D01*
X9057000Y-28801500D01*
X9157000Y-28701500D01*
X9157000Y-28146935D01*
X9096104Y-27999918D01*
X8983582Y-27887396D01*
X8898522Y-27852163D01*
X9007747Y-27780414D01*
X9086263Y-27664097D01*
X9113857Y-27526500D01*
X9113857Y-26326500D01*
X9095327Y-26231000D01*
X12192000Y-26231000D01*
X12364207Y-26196746D01*
X12364208Y-26196746D01*
X12510198Y-26099198D01*
X13526198Y-25083198D01*
X13623746Y-24937208D01*
X13623746Y-24937207D01*
X13658000Y-24765000D01*
X13658000Y-24703000D01*
X13807565Y-24703000D01*
X13883000Y-24703000D01*
X13983000Y-24603000D01*
X13983000Y-23528000D01*
X13963000Y-23528000D01*
X13963000Y-23478000D01*
X13983000Y-23478000D01*
X13983000Y-23458000D01*
X14033000Y-23458000D01*
X14033000Y-23478000D01*
X14053000Y-23478000D01*
X14053000Y-23528000D01*
X14033000Y-23528000D01*
X14033000Y-24603000D01*
X14133000Y-24703000D01*
X14208435Y-24703000D01*
X14358000Y-24703000D01*
X14358000Y-26244143D01*
X13327000Y-26244143D01*
X13193546Y-26270036D01*
X13076253Y-26347086D01*
X12997737Y-26463403D01*
X12970143Y-26601000D01*
X12970143Y-27501000D01*
X12996036Y-27634454D01*
X13073086Y-27751747D01*
X13189403Y-27830263D01*
X13327000Y-27857857D01*
X14527000Y-27857857D01*
X14660454Y-27831964D01*
X14777747Y-27754914D01*
X14856263Y-27638597D01*
X14883857Y-27501000D01*
X14883857Y-27395484D01*
X14923198Y-27369198D01*
X15126198Y-27166198D01*
X15158000Y-27118603D01*
X15158000Y-27893604D01*
X14870166Y-28181437D01*
X14857964Y-28118546D01*
X14780914Y-28001253D01*
X14664597Y-27922737D01*
X14527000Y-27895143D01*
X13327000Y-27895143D01*
X13193546Y-27921036D01*
X13076253Y-27998086D01*
X12997737Y-28114403D01*
X12970143Y-28252000D01*
X12970143Y-29152000D01*
X12996036Y-29285454D01*
X13073086Y-29402747D01*
X13189403Y-29481263D01*
X13327000Y-29508857D01*
X14527000Y-29508857D01*
X14660454Y-29482964D01*
X14777747Y-29405914D01*
X14856263Y-29289597D01*
X14883857Y-29152000D01*
X14986000Y-29152000D01*
X15158207Y-29117746D01*
X15158208Y-29117746D01*
X15304198Y-29020198D01*
X15858000Y-28466396D01*
X15858000Y-29917182D01*
X15231177Y-30544004D01*
X15152161Y-30511194D01*
X14709780Y-30510808D01*
X14300926Y-30679743D01*
X13987842Y-30992280D01*
X13818194Y-31400839D01*
X13817808Y-31843220D01*
X13986743Y-32252074D01*
X14299280Y-32565158D01*
X14707839Y-32734806D01*
X15150220Y-32735192D01*
X15559074Y-32566257D01*
X15872158Y-32253720D01*
X16041806Y-31845161D01*
X16042192Y-31402780D01*
X16008815Y-31322002D01*
X16796905Y-30533911D01*
X16796909Y-30533909D01*
X16796909Y-30533908D01*
X16916134Y-30355476D01*
X16958000Y-30145000D01*
X16958001Y-30145000D01*
X16958000Y-30144994D01*
X16958000Y-27363791D01*
X17064024Y-27434634D01*
X17274500Y-27476500D01*
X17302143Y-27476500D01*
X17302143Y-27526500D01*
X17328036Y-27659954D01*
X17405086Y-27777247D01*
X17516605Y-27852524D01*
X17432418Y-27887396D01*
X17319896Y-27999918D01*
X17259000Y-28146935D01*
X17259000Y-28701500D01*
X17359000Y-28801500D01*
X18009000Y-28801500D01*
X18009000Y-28781500D01*
X18059000Y-28781500D01*
X18059000Y-28801500D01*
X18709000Y-28801500D01*
X18809000Y-28701500D01*
X18809000Y-28146935D01*
X18748104Y-27999918D01*
X18635582Y-27887396D01*
X18550522Y-27852163D01*
X18659747Y-27780414D01*
X18738263Y-27664097D01*
X18765857Y-27526500D01*
X18765857Y-26326500D01*
X18739964Y-26193046D01*
X18662914Y-26075753D01*
X18546597Y-25997237D01*
X18409000Y-25969643D01*
X17659000Y-25969643D01*
X17525546Y-25995536D01*
X17408253Y-26072586D01*
X17329737Y-26188903D01*
X17327228Y-26201410D01*
X16958000Y-25832182D01*
X16958000Y-24659857D01*
X17488000Y-24659857D01*
X17621454Y-24633964D01*
X17738747Y-24556914D01*
X17817263Y-24440597D01*
X17844857Y-24303000D01*
X17844857Y-22703000D01*
X17818964Y-22569546D01*
X17741914Y-22452253D01*
X17625597Y-22373737D01*
X17488000Y-22346143D01*
X16928000Y-22346143D01*
X16806016Y-22369810D01*
X16757833Y-22360147D01*
X16726198Y-22312802D01*
X16320198Y-21906802D01*
X16174208Y-21809254D01*
X16002000Y-21775000D01*
X12827000Y-21775000D01*
X12654792Y-21809254D01*
X12508802Y-21906802D01*
X12089802Y-22325802D01*
X12068496Y-22357687D01*
X12068496Y-22357688D01*
X12006016Y-22369810D01*
X11910285Y-22350612D01*
X12002198Y-22289198D01*
X12710345Y-21581050D01*
X12757364Y-21628151D01*
X13049271Y-21749362D01*
X13365342Y-21749637D01*
X13657460Y-21628937D01*
X13881151Y-21405636D01*
X14002362Y-21113729D01*
X14002637Y-20797658D01*
X13881937Y-20505540D01*
X13658636Y-20281849D01*
X13368162Y-20161233D01*
X13399198Y-20130198D01*
X13496746Y-19984208D01*
X13496747Y-19984207D01*
X13531000Y-19812000D01*
X13531000Y-19088397D01*
X13754151Y-18865636D01*
X13875362Y-18573729D01*
X13875637Y-18257658D01*
X13811733Y-18103000D01*
X14672604Y-18103000D01*
X15679000Y-19109396D01*
X15679000Y-19392602D01*
X15455849Y-19615364D01*
X15334638Y-19907271D01*
X15334363Y-20223342D01*
X15455063Y-20515460D01*
X15678364Y-20739151D01*
X15969582Y-20860076D01*
X15969363Y-21112342D01*
X16090063Y-21404460D01*
X16313364Y-21628151D01*
X16605271Y-21749362D01*
X16921342Y-21749637D01*
X17213460Y-21628937D01*
X17437151Y-21405636D01*
X17558362Y-21113729D01*
X17558637Y-20797658D01*
X17450370Y-20535631D01*
X17468000Y-20447000D01*
X17468000Y-19685000D01*
X17433746Y-19512792D01*
X17336198Y-19366802D01*
X17214000Y-19244604D01*
X17214000Y-18923000D01*
X17179746Y-18750793D01*
X17179746Y-18750792D01*
X17082198Y-18604802D01*
X15177198Y-16699802D01*
X15031208Y-16602254D01*
X14859000Y-16568000D01*
X13521396Y-16568000D01*
X13399198Y-16445802D01*
X13023000Y-16069604D01*
X13023000Y-13970000D01*
X12988746Y-13797793D01*
X12988746Y-13797792D01*
X12891198Y-13651802D01*
X12199253Y-12959857D01*
X12688000Y-12959857D01*
X12809983Y-12936189D01*
X12928000Y-12959857D01*
X13488000Y-12959857D01*
X13609983Y-12936189D01*
X13728000Y-12959857D01*
X14288000Y-12959857D01*
X14366288Y-12944667D01*
X14392254Y-13075208D01*
X14489802Y-13221198D01*
X15425000Y-14156396D01*
X15425000Y-15201602D01*
X15201849Y-15424364D01*
X15080638Y-15716271D01*
X15080363Y-16032342D01*
X15201063Y-16324460D01*
X15424364Y-16548151D01*
X15716271Y-16669362D01*
X16032342Y-16669637D01*
X16324460Y-16548937D01*
X16548151Y-16325636D01*
X16669362Y-16033729D01*
X16669637Y-15717658D01*
X16548937Y-15425540D01*
X16325636Y-15201849D01*
X16325000Y-15201584D01*
X16325000Y-13970000D01*
X16290746Y-13797793D01*
X16290746Y-13797792D01*
X16193198Y-13651802D01*
X15501253Y-12959857D01*
X15888000Y-12959857D01*
X16009983Y-12936189D01*
X16128000Y-12959857D01*
X16688000Y-12959857D01*
X16726325Y-12952420D01*
X16848435Y-13003000D01*
X17007565Y-13003000D01*
X17083000Y-13003000D01*
X17183000Y-12903000D01*
X17183000Y-11828000D01*
X17163000Y-11828000D01*
X17163000Y-11778000D01*
X17183000Y-11778000D01*
X17183000Y-10703000D01*
X17083000Y-10603000D01*
X17007565Y-10603000D01*
X16848435Y-10603000D01*
X16725919Y-10653747D01*
X16688000Y-10646143D01*
X16128000Y-10646143D01*
X16006016Y-10669810D01*
X15888000Y-10646143D01*
X15328000Y-10646143D01*
X15206016Y-10669810D01*
X15088000Y-10646143D01*
X14528000Y-10646143D01*
X14468867Y-10657616D01*
X14643151Y-10483636D01*
X14732645Y-10268111D01*
X14916364Y-10452151D01*
X15208271Y-10573362D01*
X15524342Y-10573637D01*
X15816460Y-10452937D01*
X16040151Y-10229636D01*
X16040415Y-10229000D01*
X16129000Y-10229000D01*
X16301207Y-10194746D01*
X16301208Y-10194746D01*
X16447198Y-10097198D01*
X18220396Y-8324000D01*
X19879604Y-8324000D01*
X20261478Y-8705874D01*
X20165253Y-8769086D01*
X20089975Y-8880605D01*
X20055104Y-8796418D01*
X19942582Y-8683896D01*
X19795565Y-8623000D01*
X19241000Y-8623000D01*
X19141000Y-8723000D01*
X19141000Y-9373000D01*
X19161000Y-9373000D01*
X19161000Y-9423000D01*
X19141000Y-9423000D01*
X19141000Y-10073000D01*
X19241000Y-10173000D01*
X19795565Y-10173000D01*
X19942582Y-10112104D01*
X20055104Y-9999582D01*
X20090336Y-9914522D01*
X20162086Y-10023747D01*
X20278403Y-10102263D01*
X20416000Y-10129857D01*
X20566000Y-10129857D01*
X20566000Y-10420604D01*
X19091000Y-11895604D01*
X19091000Y-10073000D01*
X19091000Y-9423000D01*
X19091000Y-9373000D01*
X19091000Y-8723000D01*
X18991000Y-8623000D01*
X18436435Y-8623000D01*
X18289418Y-8683896D01*
X18176896Y-8796418D01*
X18116000Y-8943435D01*
X18116000Y-9102565D01*
X18116000Y-9273000D01*
X18216000Y-9373000D01*
X19091000Y-9373000D01*
X19091000Y-9423000D01*
X18216000Y-9423000D01*
X18116000Y-9523000D01*
X18116000Y-9693435D01*
X18116000Y-9852565D01*
X18176896Y-9999582D01*
X18289418Y-10112104D01*
X18436435Y-10173000D01*
X18991000Y-10173000D01*
X19091000Y-10073000D01*
X19091000Y-11895604D01*
X18739802Y-12246802D01*
X18642254Y-12392792D01*
X18608000Y-12565000D01*
X18608000Y-13016143D01*
X18258000Y-13016143D01*
X18124546Y-13042036D01*
X18007253Y-13119086D01*
X17928737Y-13235403D01*
X17901143Y-13373000D01*
X17901143Y-13933000D01*
X17908579Y-13971325D01*
X17888000Y-14021007D01*
X17888000Y-12682565D01*
X17888000Y-11928000D01*
X17888000Y-11678000D01*
X17888000Y-10923435D01*
X17827104Y-10776418D01*
X17714582Y-10663896D01*
X17567565Y-10603000D01*
X17408435Y-10603000D01*
X17333000Y-10603000D01*
X17233000Y-10703000D01*
X17233000Y-11778000D01*
X17788000Y-11778000D01*
X17888000Y-11678000D01*
X17888000Y-11928000D01*
X17788000Y-11828000D01*
X17233000Y-11828000D01*
X17233000Y-12903000D01*
X17333000Y-13003000D01*
X17408435Y-13003000D01*
X17567565Y-13003000D01*
X17714582Y-12942104D01*
X17827104Y-12829582D01*
X17888000Y-12682565D01*
X17888000Y-14021007D01*
X17858000Y-14093435D01*
X17858000Y-14252565D01*
X17858000Y-14328000D01*
X17958000Y-14428000D01*
X19033000Y-14428000D01*
X19033000Y-14408000D01*
X19083000Y-14408000D01*
X19083000Y-14428000D01*
X20158000Y-14428000D01*
X20258000Y-14328000D01*
X20258000Y-14252565D01*
X20258000Y-14103000D01*
X20324604Y-14103000D01*
X20632000Y-14410396D01*
X20632000Y-20895604D01*
X20324604Y-21203000D01*
X20258000Y-21203000D01*
X20258000Y-21053435D01*
X20258000Y-20978000D01*
X20258000Y-20728000D01*
X20258000Y-20652565D01*
X20258000Y-20493435D01*
X20207252Y-20370919D01*
X20214857Y-20333000D01*
X20214857Y-19773000D01*
X20191189Y-19651016D01*
X20214857Y-19533000D01*
X20214857Y-18973000D01*
X20191189Y-18851016D01*
X20214857Y-18733000D01*
X20214857Y-18173000D01*
X20191189Y-18051016D01*
X20214857Y-17933000D01*
X20214857Y-17373000D01*
X20191189Y-17251016D01*
X20214857Y-17133000D01*
X20214857Y-16573000D01*
X20191189Y-16451016D01*
X20214857Y-16333000D01*
X20214857Y-15773000D01*
X20191189Y-15651016D01*
X20214857Y-15533000D01*
X20214857Y-14973000D01*
X20207420Y-14934674D01*
X20258000Y-14812565D01*
X20258000Y-14653435D01*
X20258000Y-14578000D01*
X20158000Y-14478000D01*
X19083000Y-14478000D01*
X19083000Y-14498000D01*
X19033000Y-14498000D01*
X19033000Y-14478000D01*
X17958000Y-14478000D01*
X17858000Y-14578000D01*
X17858000Y-14653435D01*
X17858000Y-14812565D01*
X17908747Y-14935080D01*
X17901143Y-14973000D01*
X17901143Y-15533000D01*
X17924810Y-15654983D01*
X17901143Y-15773000D01*
X17901143Y-16333000D01*
X17924810Y-16454983D01*
X17901143Y-16573000D01*
X17901143Y-17133000D01*
X17924810Y-17254983D01*
X17901143Y-17373000D01*
X17901143Y-17933000D01*
X17924810Y-18054983D01*
X17901143Y-18173000D01*
X17901143Y-18733000D01*
X17924810Y-18854983D01*
X17901143Y-18973000D01*
X17901143Y-19533000D01*
X17924810Y-19654983D01*
X17901143Y-19773000D01*
X17901143Y-20333000D01*
X17908579Y-20371325D01*
X17858000Y-20493435D01*
X17858000Y-20652565D01*
X17858000Y-20728000D01*
X17958000Y-20828000D01*
X19033000Y-20828000D01*
X19033000Y-20808000D01*
X19083000Y-20808000D01*
X19083000Y-20828000D01*
X20158000Y-20828000D01*
X20258000Y-20728000D01*
X20258000Y-20978000D01*
X20158000Y-20878000D01*
X19083000Y-20878000D01*
X19083000Y-20898000D01*
X19033000Y-20898000D01*
X19033000Y-20878000D01*
X17958000Y-20878000D01*
X17858000Y-20978000D01*
X17858000Y-21053435D01*
X17858000Y-21212565D01*
X17908747Y-21335080D01*
X17901143Y-21373000D01*
X17901143Y-21933000D01*
X17927036Y-22066454D01*
X18004086Y-22183747D01*
X18120403Y-22262263D01*
X18258000Y-22289857D01*
X19858000Y-22289857D01*
X19991454Y-22263964D01*
X20108747Y-22186914D01*
X20165390Y-22103000D01*
X20511000Y-22103000D01*
X20683207Y-22068746D01*
X20683208Y-22068746D01*
X20829198Y-21971198D01*
X21400198Y-21400198D01*
X21497746Y-21254208D01*
X21497746Y-21254207D01*
X21532000Y-21082000D01*
X21532000Y-14224000D01*
X21497746Y-14051793D01*
X21497746Y-14051792D01*
X21400198Y-13905802D01*
X20829198Y-13334802D01*
X20683208Y-13237254D01*
X20511000Y-13203000D01*
X20164956Y-13203000D01*
X20111914Y-13122253D01*
X19995597Y-13043737D01*
X19858000Y-13016143D01*
X19508000Y-13016143D01*
X19508000Y-12751396D01*
X21334198Y-10925198D01*
X21431746Y-10779208D01*
X21431746Y-10779207D01*
X21466000Y-10607000D01*
X21466000Y-10129857D01*
X21616000Y-10129857D01*
X21749454Y-10103964D01*
X21866747Y-10026914D01*
X21945263Y-9910597D01*
X21972857Y-9773000D01*
X21972857Y-31418269D01*
X21677603Y-31477000D01*
X19685000Y-31477000D01*
X19646359Y-31484686D01*
X19606965Y-31484686D01*
X19412561Y-31523354D01*
X19412560Y-31523355D01*
X19310600Y-31565588D01*
X19268370Y-31583081D01*
X19268369Y-31583081D01*
X19268368Y-31583082D01*
X19103563Y-31693201D01*
X19103562Y-31693202D01*
X19103561Y-31693203D01*
X18993203Y-31803561D01*
X18993202Y-31803562D01*
X18993201Y-31803563D01*
X18883082Y-31968368D01*
X18883081Y-31968369D01*
X18848094Y-32052834D01*
X18823355Y-32112560D01*
X18823354Y-32112561D01*
X18809000Y-32184725D01*
X18809000Y-29506065D01*
X18809000Y-28951500D01*
X18709000Y-28851500D01*
X18059000Y-28851500D01*
X18059000Y-29726500D01*
X18159000Y-29826500D01*
X18329435Y-29826500D01*
X18488565Y-29826500D01*
X18635582Y-29765604D01*
X18748104Y-29653082D01*
X18809000Y-29506065D01*
X18809000Y-32184725D01*
X18784686Y-32306964D01*
X18784686Y-32346359D01*
X18777000Y-32385000D01*
X18777000Y-35393604D01*
X18703535Y-35762936D01*
X18630000Y-35872988D01*
X18630000Y-34698000D01*
X18630000Y-34048000D01*
X18630000Y-33998000D01*
X18630000Y-33348000D01*
X18517670Y-32833280D01*
X18216916Y-32400728D01*
X18009000Y-32267304D01*
X18009000Y-29726500D01*
X18009000Y-28851500D01*
X17359000Y-28851500D01*
X17259000Y-28951500D01*
X17259000Y-29506065D01*
X17319896Y-29653082D01*
X17432418Y-29765604D01*
X17579435Y-29826500D01*
X17738565Y-29826500D01*
X17909000Y-29826500D01*
X18009000Y-29726500D01*
X18009000Y-32267304D01*
X17773525Y-32116196D01*
X17515842Y-32043761D01*
X17305000Y-32123250D01*
X17305000Y-33998000D01*
X18630000Y-33998000D01*
X18630000Y-34048000D01*
X17305000Y-34048000D01*
X17305000Y-35922750D01*
X17515842Y-36002239D01*
X17773525Y-35929804D01*
X18216916Y-35645272D01*
X18517670Y-35212720D01*
X18630000Y-34698000D01*
X18630000Y-35872988D01*
X18516642Y-36042641D01*
X18236935Y-36229535D01*
X17867604Y-36303000D01*
X17255000Y-36303000D01*
X17255000Y-35922750D01*
X17255000Y-34048000D01*
X17255000Y-33998000D01*
X17255000Y-32123250D01*
X17044158Y-32043761D01*
X16786475Y-32116196D01*
X16343084Y-32400728D01*
X16042330Y-32833280D01*
X15930000Y-33348000D01*
X15930000Y-33998000D01*
X17255000Y-33998000D01*
X17255000Y-34048000D01*
X15930000Y-34048000D01*
X15930000Y-34698000D01*
X16042330Y-35212720D01*
X16343084Y-35645272D01*
X16786475Y-35929804D01*
X17044158Y-36002239D01*
X17255000Y-35922750D01*
X17255000Y-36303000D01*
X14580156Y-36303000D01*
X14580156Y-33844764D01*
X14443428Y-33513857D01*
X14190475Y-33260462D01*
X13859806Y-33123157D01*
X13542192Y-33122879D01*
X13542192Y-31402780D01*
X13373257Y-30993926D01*
X13060720Y-30680842D01*
X12652161Y-30511194D01*
X12209780Y-30510808D01*
X12028929Y-30585533D01*
X10864000Y-29420604D01*
X10864000Y-29388915D01*
X10873086Y-29402747D01*
X10989403Y-29481263D01*
X11127000Y-29508857D01*
X12327000Y-29508857D01*
X12460454Y-29482964D01*
X12577747Y-29405914D01*
X12656263Y-29289597D01*
X12683857Y-29152000D01*
X12683857Y-28252000D01*
X12657964Y-28118546D01*
X12580914Y-28001253D01*
X12464597Y-27922737D01*
X12327000Y-27895143D01*
X11127000Y-27895143D01*
X10993546Y-27921036D01*
X10876253Y-27998086D01*
X10797737Y-28114403D01*
X10770143Y-28252000D01*
X10668000Y-28252000D01*
X10495792Y-28286254D01*
X10349802Y-28383802D01*
X10229000Y-28504604D01*
X10229000Y-27745396D01*
X10473396Y-27501000D01*
X10770143Y-27501000D01*
X10796036Y-27634454D01*
X10873086Y-27751747D01*
X10989403Y-27830263D01*
X11127000Y-27857857D01*
X12327000Y-27857857D01*
X12460454Y-27831964D01*
X12577747Y-27754914D01*
X12656263Y-27638597D01*
X12683857Y-27501000D01*
X12683857Y-26601000D01*
X12657964Y-26467546D01*
X12580914Y-26350253D01*
X12464597Y-26271737D01*
X12327000Y-26244143D01*
X11127000Y-26244143D01*
X10993546Y-26270036D01*
X10876253Y-26347086D01*
X10797737Y-26463403D01*
X10770143Y-26601000D01*
X10287000Y-26601000D01*
X10114792Y-26635254D01*
X9968802Y-26732802D01*
X9460802Y-27240802D01*
X9363254Y-27386792D01*
X9329000Y-27559000D01*
X9329000Y-29718000D01*
X9363254Y-29890208D01*
X9460802Y-30036198D01*
X9980000Y-30555396D01*
X9980000Y-30605751D01*
X9800926Y-30679743D01*
X9487842Y-30992280D01*
X9318194Y-31400839D01*
X9317808Y-31843220D01*
X9486743Y-32252074D01*
X9799280Y-32565158D01*
X10207839Y-32734806D01*
X10650220Y-32735192D01*
X11059074Y-32566257D01*
X11372158Y-32253720D01*
X11429932Y-32114582D01*
X11486743Y-32252074D01*
X11799280Y-32565158D01*
X12207839Y-32734806D01*
X12650220Y-32735192D01*
X13059074Y-32566257D01*
X13372158Y-32253720D01*
X13541806Y-31845161D01*
X13542192Y-31402780D01*
X13542192Y-33122879D01*
X13501764Y-33122844D01*
X13170857Y-33259572D01*
X12917462Y-33512525D01*
X12780157Y-33843194D01*
X12779844Y-34201236D01*
X12916572Y-34532143D01*
X13169525Y-34785538D01*
X13500194Y-34922843D01*
X13858236Y-34923156D01*
X14189143Y-34786428D01*
X14442538Y-34533475D01*
X14579843Y-34202806D01*
X14580156Y-33844764D01*
X14580156Y-36303000D01*
X10080156Y-36303000D01*
X10080156Y-33844764D01*
X9943428Y-33513857D01*
X9690475Y-33260462D01*
X9359806Y-33123157D01*
X9157000Y-33122979D01*
X9157000Y-29506065D01*
X9157000Y-28951500D01*
X9057000Y-28851500D01*
X8407000Y-28851500D01*
X8407000Y-29726500D01*
X8507000Y-29826500D01*
X8677435Y-29826500D01*
X8836565Y-29826500D01*
X8983582Y-29765604D01*
X9096104Y-29653082D01*
X9157000Y-29506065D01*
X9157000Y-33122979D01*
X9096007Y-33122926D01*
X9096007Y-31413011D01*
X8926890Y-30982784D01*
X8902976Y-30946993D01*
X8714519Y-30873837D01*
X8679163Y-30909192D01*
X8679163Y-30838481D01*
X8606007Y-30650024D01*
X8357000Y-30541541D01*
X8357000Y-29726500D01*
X8357000Y-28851500D01*
X7707000Y-28851500D01*
X7607000Y-28951500D01*
X7607000Y-29506065D01*
X7667896Y-29653082D01*
X7780418Y-29765604D01*
X7927435Y-29826500D01*
X8086565Y-29826500D01*
X8257000Y-29826500D01*
X8357000Y-29726500D01*
X8357000Y-30541541D01*
X8182207Y-30465391D01*
X7720011Y-30456993D01*
X7289784Y-30626110D01*
X7253993Y-30650024D01*
X7180837Y-30838481D01*
X7930000Y-31587645D01*
X8679163Y-30838481D01*
X8679163Y-30909192D01*
X7965355Y-31623000D01*
X8714519Y-32372163D01*
X8902976Y-32299007D01*
X9087609Y-31875207D01*
X9096007Y-31413011D01*
X9096007Y-33122926D01*
X9001764Y-33122844D01*
X8679163Y-33256140D01*
X8679163Y-32407519D01*
X7930000Y-31658355D01*
X7894645Y-31693710D01*
X7894645Y-31623000D01*
X7145481Y-30873837D01*
X6957024Y-30946993D01*
X6772391Y-31370793D01*
X6763993Y-31832989D01*
X6933110Y-32263216D01*
X6957024Y-32299007D01*
X7145481Y-32372163D01*
X7894645Y-31623000D01*
X7894645Y-31693710D01*
X7180837Y-32407519D01*
X7253993Y-32595976D01*
X7677793Y-32780609D01*
X8139989Y-32789007D01*
X8570216Y-32619890D01*
X8606007Y-32595976D01*
X8679163Y-32407519D01*
X8679163Y-33256140D01*
X8670857Y-33259572D01*
X8417462Y-33512525D01*
X8280157Y-33843194D01*
X8279844Y-34201236D01*
X8416572Y-34532143D01*
X8669525Y-34785538D01*
X9000194Y-34922843D01*
X9358236Y-34923156D01*
X9689143Y-34786428D01*
X9942538Y-34533475D01*
X10079843Y-34202806D01*
X10080156Y-33844764D01*
X10080156Y-36303000D01*
X6930000Y-36303000D01*
X6930000Y-34698000D01*
X6930000Y-34048000D01*
X6930000Y-33998000D01*
X6930000Y-33348000D01*
X6817670Y-32833280D01*
X6516916Y-32400728D01*
X6073525Y-32116196D01*
X5815842Y-32043761D01*
X5605000Y-32123250D01*
X5605000Y-33998000D01*
X6930000Y-33998000D01*
X6930000Y-34048000D01*
X5605000Y-34048000D01*
X5605000Y-35922750D01*
X5815842Y-36002239D01*
X6073525Y-35929804D01*
X6516916Y-35645272D01*
X6817670Y-35212720D01*
X6930000Y-34698000D01*
X6930000Y-36303000D01*
X5555000Y-36303000D01*
X5555000Y-35922750D01*
X5555000Y-34048000D01*
X5555000Y-33998000D01*
X5555000Y-32123250D01*
X5344158Y-32043761D01*
X5086475Y-32116196D01*
X4643084Y-32400728D01*
X4342330Y-32833280D01*
X4230000Y-33348000D01*
X4230000Y-33998000D01*
X5555000Y-33998000D01*
X5555000Y-34048000D01*
X4230000Y-34048000D01*
X4230000Y-34698000D01*
X4342330Y-35212720D01*
X4643084Y-35645272D01*
X5086475Y-35929804D01*
X5344158Y-36002239D01*
X5555000Y-35922750D01*
X5555000Y-36303000D01*
X4865396Y-36303000D01*
X4544665Y-36239202D01*
X4306161Y-36079838D01*
X4146797Y-35841334D01*
X4083000Y-35520603D01*
X4083000Y-32385000D01*
X4075314Y-32346359D01*
X4075314Y-32306965D01*
X4036645Y-32112561D01*
X4036645Y-32112560D01*
X3994411Y-32010600D01*
X3976919Y-31968370D01*
X3976918Y-31968369D01*
X3976918Y-31968368D01*
X3866798Y-31803563D01*
X3866798Y-31803562D01*
X3866797Y-31803561D01*
X3756439Y-31693203D01*
X3756438Y-31693202D01*
X3756436Y-31693201D01*
X3591632Y-31583082D01*
X3591631Y-31583081D01*
X3507166Y-31548094D01*
X3447440Y-31523355D01*
X3447438Y-31523354D01*
X3253036Y-31484686D01*
X3213640Y-31484686D01*
X3175000Y-31477000D01*
X2073000Y-31477000D01*
X2073000Y-23789000D01*
X2073000Y-23139000D01*
X2073000Y-23089000D01*
X2073000Y-22439000D01*
X2073000Y-21757000D01*
X2073000Y-21107000D01*
X2073000Y-21057000D01*
X2073000Y-20407000D01*
X1973000Y-20307000D01*
X1418435Y-20307000D01*
X1271418Y-20367896D01*
X1158896Y-20480418D01*
X1098000Y-20627435D01*
X1098000Y-20786565D01*
X1098000Y-20957000D01*
X1198000Y-21057000D01*
X2073000Y-21057000D01*
X2073000Y-21107000D01*
X1198000Y-21107000D01*
X1098000Y-21207000D01*
X1098000Y-21377435D01*
X1098000Y-21536565D01*
X1158896Y-21683582D01*
X1271418Y-21796104D01*
X1418435Y-21857000D01*
X1973000Y-21857000D01*
X2073000Y-21757000D01*
X2073000Y-22439000D01*
X1973000Y-22339000D01*
X1418435Y-22339000D01*
X1271418Y-22399896D01*
X1158896Y-22512418D01*
X1098000Y-22659435D01*
X1098000Y-22818565D01*
X1098000Y-22989000D01*
X1198000Y-23089000D01*
X2073000Y-23089000D01*
X2073000Y-23139000D01*
X1198000Y-23139000D01*
X1098000Y-23239000D01*
X1098000Y-23409435D01*
X1098000Y-23568565D01*
X1158896Y-23715582D01*
X1271418Y-23828104D01*
X1418435Y-23889000D01*
X1973000Y-23889000D01*
X2073000Y-23789000D01*
X2073000Y-31477000D01*
X1182396Y-31477000D01*
X861665Y-31413202D01*
X623161Y-31253838D01*
X463797Y-31015334D01*
X400000Y-30694603D01*
X400000Y-4865395D01*
X744148Y-3135242D01*
X1701886Y-1701886D01*
X3135242Y-744148D01*
X4865395Y-400000D01*
X17994604Y-400000D01*
X19724757Y-744148D01*
X21158113Y-1701886D01*
X22115851Y-3135242D01*
X22460000Y-4865395D01*
X22460000Y-30694603D01*
M02*
