M48
;DRILL file {kicad (2014-12-10 BZR 5319)-product} date 2015年02月02日 11時43分34秒
;FORMAT={-:-/ absolute / metric / decimal}
FMAT,2
METRIC,TZ
T1C0.635
T2C0.920
T3C0.930
T4C1.100
T5C1.200
T6C2.300
%
G90
G05
M71
T1
X7.62Y-23.241
X9.017Y-13.843
X11.43Y-9.271
X11.43Y-14.859
X12.192Y-19.431
X13.081Y-18.415
X13.208Y-20.955
X13.652Y-30.226
X13.716Y-14.541
X13.779Y-25.59
X13.97Y-10.033
X15.367Y-9.779
X15.875Y-15.875
X16.129Y-20.066
X16.764Y-20.955
X17.209Y-14.414
T2
X7.93Y-7.493
X10.43Y-7.493
X12.43Y-7.493
X14.93Y-7.493
T3
X7.93Y-31.623
X10.43Y-31.623
X12.43Y-31.623
X14.93Y-31.623
T4
X9.18Y-34.023
X13.68Y-34.023
T6
X4.86Y-4.783
X18.Y-4.783
T5
X5.58Y-34.673G85X5.58Y-33.373
G05
X17.28Y-34.673G85X17.28Y-33.373
G05
T0
M30
