G04 #@! TF.FileFunction,Soldermask,Bot*
%FSLAX46Y46*%
G04 Gerber Fmt 4.6, Leading zero omitted, Abs format (unit mm)*
G04 Created by KiCad (PCBNEW (2014-12-10 BZR 5319)-product) date 2015年02月02日 11時42分02秒*
%MOMM*%
G01*
G04 APERTURE LIST*
%ADD10C,0.100000*%
%ADD11R,0.750000X1.200000*%
%ADD12R,1.200000X0.750000*%
%ADD13C,1.524000*%
%ADD14C,1.100000*%
%ADD15O,1.900000X3.200000*%
%ADD16R,1.200000X0.900000*%
%ADD17R,0.560000X1.600000*%
%ADD18R,1.600000X0.560000*%
%ADD19R,1.200000X1.400000*%
%ADD20C,1.620000*%
%ADD21C,3.000000*%
G04 APERTURE END LIST*
D10*
D11*
X18034000Y-26926500D03*
X18034000Y-28826500D03*
X8382000Y-26926500D03*
X8382000Y-28826500D03*
D12*
X3998000Y-23114000D03*
X2098000Y-23114000D03*
X3998000Y-21082000D03*
X2098000Y-21082000D03*
X3998000Y-13462000D03*
X2098000Y-13462000D03*
X21016000Y-9398000D03*
X19116000Y-9398000D03*
D13*
X12430000Y-31623000D03*
X10430000Y-31623000D03*
X7930000Y-31623000D03*
X14930000Y-31623000D03*
D14*
X9180000Y-34023000D03*
X13680000Y-34023000D03*
D15*
X5580000Y-34023000D03*
X17280000Y-34023000D03*
D16*
X13927000Y-27051000D03*
X11727000Y-27051000D03*
X11727000Y-28702000D03*
X13927000Y-28702000D03*
D17*
X17208000Y-23503000D03*
X16408000Y-23503000D03*
X15608000Y-23503000D03*
X14808000Y-23503000D03*
X14008000Y-23503000D03*
X13208000Y-23503000D03*
X12408000Y-23503000D03*
X11608000Y-23503000D03*
X10808000Y-23503000D03*
X10008000Y-23503000D03*
X9208000Y-23503000D03*
D18*
X7358000Y-21653000D03*
X7358000Y-20853000D03*
X7358000Y-20053000D03*
X7358000Y-19253000D03*
X7358000Y-18453000D03*
X7358000Y-17653000D03*
X7358000Y-16853000D03*
X7358000Y-16053000D03*
X7358000Y-15253000D03*
X7358000Y-14453000D03*
X7358000Y-13653000D03*
D17*
X9208000Y-11803000D03*
X10008000Y-11803000D03*
X10808000Y-11803000D03*
X11608000Y-11803000D03*
X12408000Y-11803000D03*
X13208000Y-11803000D03*
X14008000Y-11803000D03*
X14808000Y-11803000D03*
X15608000Y-11803000D03*
X16408000Y-11803000D03*
X17208000Y-11803000D03*
D18*
X19058000Y-13653000D03*
X19058000Y-14453000D03*
X19058000Y-15253000D03*
X19058000Y-16053000D03*
X19058000Y-16853000D03*
X19058000Y-17653000D03*
X19058000Y-18453000D03*
X19058000Y-19253000D03*
X19058000Y-20053000D03*
X19058000Y-20853000D03*
X19058000Y-21653000D03*
D19*
X2248000Y-18372000D03*
X2248000Y-16172000D03*
X3848000Y-18372000D03*
X3848000Y-16172000D03*
D20*
X7930000Y-7493000D03*
X10430000Y-7493000D03*
X12430000Y-7493000D03*
X14930000Y-7493000D03*
D21*
X4860000Y-4783000D03*
X18000000Y-4783000D03*
M02*
